<svg width="39" height="15" viewBox="0 0 39 15" fill="none" xmlns="http://www.w3.org/2000/svg">
<path d="M9.28 1.4H2.08V3.812H6.418V9.896C6.418 10.976 5.842 11.552 4.906 11.552C4.132 11.552 3.124 11.084 2.242 10.148L0.928 12.164C1.99 13.406 3.358 14.126 5.05 14.126C7.66 14.126 9.28 12.614 9.28 9.968V1.4ZM16.1455 4.226C13.0315 4.226 10.9435 6.188 10.9435 9.158C10.9435 12.11 13.0315 14.108 16.1455 14.108C19.2415 14.108 21.3295 12.11 21.3295 9.158C21.3295 6.188 19.2415 4.226 16.1455 4.226ZM16.1455 6.53C17.5675 6.53 18.5575 7.61 18.5575 9.194C18.5575 10.778 17.5675 11.858 16.1455 11.858C14.7055 11.858 13.7335 10.778 13.7335 9.194C13.7335 7.61 14.7055 6.53 16.1455 6.53ZM24.5481 0.0139998C23.6661 0.0139998 23.0541 0.661999 23.0541 1.562C23.0541 2.462 23.6661 3.11 24.5481 3.11C25.4301 3.11 26.0421 2.462 26.0421 1.562C26.0421 0.661999 25.4301 0.0139998 24.5481 0.0139998ZM25.9341 14V4.316H23.1621V14H25.9341ZM34.7137 4.208C33.2017 4.226 32.0497 4.802 31.3657 6.008V4.316H28.5937V14H31.3657V9.23C31.3657 7.808 32.1937 6.764 33.5797 6.746C34.7677 6.746 35.4877 7.502 35.4877 8.726V14H38.2597V7.916C38.2597 5.648 36.8737 4.208 34.7137 4.208Z" fill="white"/>
</svg>
