<svg width="252" height="65" viewBox="0 0 252 65" fill="none" xmlns="http://www.w3.org/2000/svg">
<path d="M46.87 59.1186C45.0394 57.4483 44.9057 54.6021 46.576 52.7715L50.3175 48.6559L58.6155 39.5294C58.7091 39.4358 58.816 39.3289 58.9095 39.2354C59.003 39.1285 59.0966 39.0216 59.1901 38.9013C60.5264 37.2711 61.1143 35.2668 60.994 33.3025C61.582 33.6365 62.1432 34.0374 62.6643 34.5185C62.7579 34.5986 62.8514 34.6922 62.9449 34.7857C66.4058 38.1931 66.6864 43.6851 63.5997 47.4265L62.9583 48.1214L53.2171 58.8246C51.5468 60.6553 48.7007 60.7889 46.87 59.1186V59.1186Z" fill="white"/>
<path d="M39.0933 38.7407C38.4385 38.3933 37.8105 37.9657 37.2359 37.4446C37.1557 37.3778 37.0756 37.2976 37.0088 37.2308C33.3608 33.7432 33.0936 27.9707 36.4475 24.1624L36.5411 24.0555L40.8839 19.1916L49.1284 9.95818L49.1552 9.93146C50.9591 7.90038 51.3332 5.09428 50.3444 2.75586C51.4 3.15673 52.4022 3.75804 53.2975 4.55978C53.4178 4.66668 53.538 4.77358 53.6449 4.89384C57.2661 8.4616 57.4799 14.2876 54.0592 18.1226L49.5694 23.1602L40.7636 33.0216L40.6834 33.1152C39.2804 34.7187 38.7592 36.8032 39.0799 38.7541L39.0933 38.7407Z" fill="white"/>
<path d="M38.3044 61.2701C37.3289 60.4016 36.5272 59.4127 35.8858 58.3438C33.1599 53.8273 33.4405 47.9478 36.8613 43.6719L37.8501 42.5761L49.3016 29.8418L56.8781 21.4101C56.9449 21.33 56.9984 21.2632 57.0652 21.1963C57.1186 21.1295 57.1721 21.0761 57.2389 21.0093V20.9825C59.5506 18.2833 60.2588 14.7557 59.4303 11.5487C60.4191 11.9897 61.3679 12.591 62.2097 13.3526C62.5705 13.6733 62.9045 14.0207 63.1985 14.3682C66.5391 18.2967 66.5525 24.1895 63.0248 28.1448L62.9713 28.2116L52.3215 40.0507L44.8252 48.3888C44.705 48.509 44.5981 48.6293 44.4912 48.7496C44.3843 48.8698 44.2774 48.9901 44.1705 49.1237C40.7363 53.3329 41.1907 59.5196 45.2662 63.1943C45.8809 63.7422 46.5356 64.2098 47.2305 64.584C44.0636 64.6642 40.8432 63.5818 38.3044 61.2968V61.2701Z" fill="white"/>
<path d="M36.5278 17.6149C33.3476 13.4725 33.4678 7.5129 37.089 3.50419C38.452 1.99424 40.1356 0.951977 41.9396 0.377395C42.1534 0.310583 42.3672 0.243771 42.581 0.190322C43.7569 -0.0368388 45.0263 0.270496 45.9884 1.12569L46.0151 1.15241C47.6319 2.62227 47.7656 5.12104 46.3091 6.75125L46.269 6.79134L36.4877 17.6149H36.5278Z" fill="white"/>
<path d="M19.7569 59.1179C21.5875 57.4476 21.7212 54.6014 20.0509 52.7707L16.3094 48.6551L8.01136 39.5286C7.91783 39.4351 7.81093 39.3282 7.71739 39.2347C7.62385 39.1278 7.53032 39.0209 7.43678 38.9006C6.10054 37.2704 5.5126 35.266 5.63286 33.3018C5.04491 33.6358 4.48369 34.0367 3.96256 34.5177C3.86903 34.5979 3.77549 34.6914 3.68195 34.785C0.221097 38.1924 -0.0595129 43.6843 3.0272 47.4258L3.66859 48.1206L13.4098 58.8239C15.0801 60.6545 17.9262 60.7882 19.7569 59.1179Z" fill="white"/>
<path d="M27.5336 38.7407C28.1884 38.3933 28.8164 37.9657 29.391 37.4446C29.4712 37.3778 29.5514 37.2976 29.6182 37.2308C33.2661 33.7432 33.5334 27.9707 30.1794 24.1624L30.0859 24.0555L25.7431 19.1916L17.4985 9.95818L17.4718 9.93146C15.6678 7.90038 15.2937 5.09428 16.2825 2.75586C15.2269 3.15673 14.2247 3.75804 13.3294 4.55978C13.2092 4.66668 13.0889 4.77358 12.982 4.89384C9.36081 8.4616 9.14701 14.2876 12.5678 18.1226L17.0575 23.1602L25.8633 33.0216L25.9435 33.1152C27.3466 34.7187 27.8677 36.8032 27.547 38.7541L27.5336 38.7407Z" fill="white"/>
<path d="M28.3227 61.2693C29.2981 60.4007 30.0999 59.4119 30.7413 58.3429C33.4672 53.8264 33.1866 47.947 29.7658 43.671L28.777 42.5753L17.3254 29.8409L9.74895 21.4093C9.68214 21.3291 9.62869 21.2623 9.56188 21.1955C9.50843 21.1287 9.45498 21.0752 9.38817 21.0084V20.9817C7.07648 18.2825 6.36827 14.7548 7.19674 11.5479C6.20792 11.9888 5.25919 12.5901 4.41736 13.3518C4.05658 13.6725 3.72252 14.0199 3.42855 14.3673C0.0879525 18.2959 0.0745899 24.1887 3.60226 28.1439L3.65571 28.2107L14.3055 40.0498L21.8018 48.3879C21.9221 48.5082 22.029 48.6285 22.1359 48.7487C22.2428 48.869 22.3497 48.9892 22.4566 49.1229C25.8907 53.332 25.4364 59.5188 21.3609 63.1934C20.7462 63.7413 20.0914 64.209 19.3966 64.5831C22.5635 64.6633 25.7838 63.581 28.3227 61.296V61.2693Z" fill="white"/>
<path d="M30.0995 17.614C33.2797 13.4717 33.1595 7.51205 29.5383 3.50334C28.1753 1.99339 26.4916 0.951123 24.6877 0.37654C24.4739 0.309729 24.2601 0.242917 24.0463 0.189467C22.8704 -0.0376933 21.601 0.269641 20.6389 1.12483L20.6122 1.15156C18.9953 2.62142 18.8617 5.12018 20.3182 6.75039L20.3583 6.79048L30.1396 17.614H30.0995Z" fill="white"/>
<path d="M117.67 1.1001V36.3854H111.727V14.7129C111.727 14.2501 111.727 13.7681 111.763 13.2475C111.781 12.7269 111.834 12.2063 111.888 11.6664L102.583 30.813C102.067 31.8735 101.284 32.3941 100.235 32.3941H99.2916C98.7757 32.3941 98.3131 32.2591 97.9039 31.9892C97.4948 31.7192 97.1745 31.3336 96.9432 30.813L87.5852 11.6085C87.6386 12.1677 87.6742 12.7269 87.692 13.2475C87.7276 13.7681 87.7454 14.2694 87.7454 14.7129V36.3854H81.8032V1.1001H86.927C87.2116 1.1001 87.4607 1.1001 87.692 1.11938C87.9233 1.11938 88.119 1.17722 88.2791 1.25435C88.457 1.33148 88.5993 1.44717 88.7417 1.60142C88.884 1.75567 89.0263 1.96777 89.1508 2.23771L98.2598 21.0565C98.5444 21.6157 98.8113 22.2134 99.0604 22.8111C99.3094 23.4089 99.5407 24.0259 99.772 24.6622C100.003 24.0066 100.235 23.3896 100.484 22.7726C100.733 22.1556 101 21.5578 101.284 20.9987L110.322 2.23771C110.464 1.96777 110.607 1.75567 110.749 1.60142C110.891 1.44717 111.051 1.33148 111.229 1.25435C111.407 1.17722 111.603 1.13866 111.816 1.11938C112.03 1.11938 112.297 1.1001 112.599 1.1001H117.723H117.67Z" fill="white"/>
<path d="M130.425 4.18572C130.425 4.74488 130.319 5.28477 130.105 5.76681C129.892 6.24885 129.607 6.69232 129.269 7.05867C128.913 7.42502 128.504 7.71424 128.041 7.92634C127.579 8.13844 127.063 8.23485 126.529 8.23485C126.013 8.23485 125.533 8.13844 125.088 7.92634C124.626 7.71424 124.234 7.42502 123.896 7.05867C123.558 6.69232 123.274 6.24885 123.078 5.76681C122.882 5.28477 122.775 4.74488 122.775 4.18572C122.775 3.62655 122.882 3.08667 123.078 2.58535C123.274 2.08403 123.558 1.65983 123.896 1.29348C124.234 0.927135 124.643 0.637912 125.088 0.425815C125.551 0.213718 126.031 0.11731 126.529 0.11731C127.063 0.11731 127.579 0.213718 128.041 0.425815C128.504 0.637912 128.931 0.927135 129.269 1.29348C129.625 1.65983 129.91 2.10331 130.105 2.58535C130.319 3.08667 130.425 3.60727 130.425 4.18572ZM129.678 11.3199V36.3859H123.487V11.3199H129.678V11.3199Z" fill="white"/>
<path d="M140.726 14.2303C141.189 13.7482 141.669 13.3047 142.167 12.8998C142.665 12.4949 143.199 12.1478 143.768 11.8586C144.338 11.5694 144.943 11.338 145.583 11.1838C146.241 11.0295 146.935 10.9331 147.7 10.9331C148.963 10.9331 150.066 11.1645 151.045 11.6465C152.023 12.1093 152.842 12.7649 153.5 13.6132C154.158 14.4616 154.674 15.4643 155.012 16.6212C155.35 17.7973 155.51 19.0699 155.51 20.4582V36.3848H149.337V20.4582C149.337 19.0699 149.035 17.9902 148.447 17.2189C147.843 16.4476 146.971 16.062 145.797 16.062C144.925 16.062 144.106 16.2741 143.359 16.679C142.594 17.0839 141.865 17.6431 141.189 18.3758V36.404H134.998V11.3187H138.805C139.588 11.3187 140.104 11.7044 140.353 12.4949L140.726 14.2495V14.2303Z" fill="white"/>
<path d="M180.915 0.117188V36.3858H177.108C176.307 36.3858 175.809 36.0002 175.578 35.2096L175.062 33.0115C174.599 33.5707 174.101 34.072 173.585 34.5155C173.069 34.9782 172.518 35.3639 171.913 35.6917C171.308 36.0194 170.668 36.2701 169.992 36.4629C169.298 36.6364 168.55 36.7329 167.75 36.7329C166.505 36.7329 165.366 36.4436 164.334 35.8845C163.302 35.3253 162.413 34.4769 161.648 33.3971C160.9 32.2981 160.313 30.9677 159.886 29.3673C159.459 27.7862 159.264 25.9545 159.264 23.9106C159.264 22.0403 159.495 20.305 159.975 18.7046C160.438 17.1042 161.114 15.716 161.986 14.5398C162.857 13.3636 163.907 12.4574 165.135 11.7825C166.362 11.127 167.714 10.7799 169.227 10.7799C170.49 10.7799 171.539 10.992 172.393 11.3969C173.247 11.8018 174.03 12.361 174.742 13.0551V0.117188H180.933H180.915ZM174.724 17.8177C174.137 17.085 173.514 16.5836 172.82 16.2944C172.144 16.0052 171.415 15.8509 170.65 15.8509C169.885 15.8509 169.227 16.0052 168.604 16.3137C167.999 16.6222 167.465 17.1042 167.02 17.7598C166.576 18.4154 166.238 19.2638 166.006 20.2857C165.775 21.3076 165.651 22.5224 165.651 23.9299C165.651 25.3375 165.74 26.5136 165.935 27.4777C166.131 28.4418 166.416 29.2323 166.771 29.8301C167.145 30.4278 167.59 30.8713 168.106 31.1219C168.622 31.3919 169.209 31.5268 169.849 31.5268C170.934 31.5268 171.86 31.2955 172.607 30.8134C173.354 30.3507 174.048 29.6758 174.706 28.8274V17.8177H174.724Z" fill="white"/>
<path d="M191.506 24.8016C191.702 27.2128 192.326 28.9717 193.36 30.0784C194.393 31.1852 195.766 31.7583 197.441 31.7583C198.297 31.7583 199.028 31.6397 199.652 31.4223C200.275 31.2049 200.828 30.948 201.291 30.6713C201.755 30.3946 202.183 30.1575 202.575 29.9203C202.949 29.7029 203.341 29.5844 203.715 29.5844C204.197 29.5844 204.571 29.782 204.838 30.1772L206.638 32.6674C205.979 33.5172 205.248 34.209 204.464 34.7821C203.662 35.3355 202.842 35.7702 201.986 36.1062C201.131 36.4224 200.275 36.6596 199.402 36.7782C198.529 36.8968 197.691 36.956 196.889 36.956C195.267 36.956 193.752 36.6596 192.361 36.0667C190.953 35.4738 189.741 34.6042 188.69 33.4579C187.656 32.3117 186.836 30.869 186.23 29.1496C185.624 27.4302 185.339 25.4538 185.339 23.2008C185.339 21.4617 185.606 19.8015 186.123 18.26C186.64 16.7185 187.389 15.3746 188.369 14.2283C189.349 13.082 190.526 12.1729 191.916 11.501C193.306 10.829 194.893 10.493 196.639 10.493C198.119 10.493 199.491 10.75 200.739 11.2836C201.986 11.7974 203.074 12.5682 203.983 13.5563C204.892 14.5445 205.587 15.7698 206.104 17.2323C206.603 18.6948 206.852 20.3351 206.852 22.2127C206.852 22.7265 206.835 23.1613 206.781 23.4775C206.728 23.8135 206.656 24.0704 206.549 24.268C206.442 24.4657 206.3 24.604 206.122 24.6831C205.943 24.7621 205.712 24.8016 205.426 24.8016H191.524H191.506ZM201.256 20.7106C201.256 19.9992 201.167 19.3075 200.988 18.675C200.81 18.0228 200.543 17.4497 200.168 16.9556C199.794 16.4615 199.313 16.0663 198.76 15.7698C198.19 15.4734 197.513 15.335 196.711 15.335C195.231 15.335 194.073 15.8094 193.217 16.7382C192.379 17.6671 191.827 18.9912 191.577 20.7304H201.238L201.256 20.7106Z" fill="white"/>
<path d="M214.646 36.9561V16.185L212.846 15.8292C212.382 15.7304 212.008 15.5525 211.705 15.2759C211.42 15.0189 211.259 14.6237 211.259 14.1296V11.3825H214.628V9.68285C214.628 8.22037 214.842 6.89623 215.252 5.71043C215.662 4.52464 216.25 3.51671 217.016 2.68666C217.783 1.8566 218.71 1.22417 219.833 0.789382C220.938 0.334827 222.185 0.117432 223.593 0.117432C224.128 0.117432 224.645 0.156958 225.126 0.236011C225.608 0.315064 226.107 0.41388 226.606 0.571986L226.463 3.97127C226.427 4.48511 226.231 4.82109 225.875 4.97919C225.501 5.1373 225.091 5.21635 224.645 5.21635C224.021 5.21635 223.451 5.29541 222.952 5.43375C222.453 5.59186 222.025 5.82901 221.686 6.18475C221.348 6.54049 221.08 7.01481 220.902 7.62747C220.724 8.24013 220.635 8.99114 220.635 9.88048V11.3825H226.392V16.1652H220.831V36.9364H214.646V36.9561Z" fill="white"/>
<path d="M250.74 11.2634L238.245 43.8728C238.049 44.3471 237.818 44.6831 237.533 44.9203C237.247 45.1574 236.82 45.276 236.214 45.276H231.597L235.982 34.9003L226.678 11.2634H232.114C232.613 11.2634 232.987 11.382 233.255 11.6389C233.522 11.8959 233.718 12.1725 233.843 12.5085L238.245 24.8013C238.406 25.2756 238.548 25.7697 238.691 26.2638C238.816 26.7578 238.941 27.2321 239.065 27.7262C239.333 26.7381 239.636 25.7697 239.992 24.7815L244.092 12.5085C244.216 12.1528 244.43 11.8366 244.751 11.6192C245.072 11.382 245.411 11.2634 245.785 11.2634H250.758H250.74Z" fill="white"/>
<path d="M85.9192 63.7025V53.3619H81.8707V51.8943H91.6378V53.3619H87.5892V63.7025H85.9192ZM97.8609 62.2349H104.743V63.7025H96.174V51.8943H104.507V53.3619H97.8609V56.9887H103.782V58.4226H97.8609V62.2349ZM115.404 63.8375C111.828 63.8375 109.163 61.2903 109.163 57.7984C109.163 54.3066 111.828 51.7594 115.421 51.7594C117.243 51.7594 118.829 52.3835 119.908 53.5981L118.812 54.6608C117.901 53.6993 116.788 53.2607 115.489 53.2607C112.823 53.2607 110.85 55.1837 110.85 57.7984C110.85 60.4131 112.823 62.3361 115.489 62.3361C116.788 62.3361 117.901 61.8807 118.812 60.9192L119.908 61.9819C118.829 63.1964 117.243 63.8375 115.404 63.8375ZM133.482 51.8943H135.169V63.7025H133.482V58.4394H126.701V63.7025H125.014V51.8943H126.701V56.9718H133.482V51.8943ZM149.871 51.8943H151.557V63.7025H150.174L143.089 54.897V63.7025H141.402V51.8943H142.786L149.871 60.6999V51.8943ZM163.121 63.8375C159.495 63.8375 156.829 61.2565 156.829 57.7984C156.829 54.3403 159.495 51.7594 163.121 51.7594C166.715 51.7594 169.38 54.3234 169.38 57.7984C169.38 61.2734 166.715 63.8375 163.121 63.8375ZM163.121 62.3361C165.736 62.3361 167.693 60.4131 167.693 57.7984C167.693 55.1837 165.736 53.2607 163.121 53.2607C160.473 53.2607 158.516 55.1837 158.516 57.7984C158.516 60.4131 160.473 62.3361 163.121 62.3361ZM174.657 63.7025V51.8943H176.344V62.2349H182.737V63.7025H174.657ZM192.488 63.8375C188.862 63.8375 186.196 61.2565 186.196 57.7984C186.196 54.3403 188.862 51.7594 192.488 51.7594C196.081 51.7594 198.747 54.3234 198.747 57.7984C198.747 61.2734 196.081 63.8375 192.488 63.8375ZM192.488 62.3361C195.103 62.3361 197.06 60.4131 197.06 57.7984C197.06 55.1837 195.103 53.2607 192.488 53.2607C189.84 53.2607 187.883 55.1837 187.883 57.7984C187.883 60.4131 189.84 62.3361 192.488 62.3361ZM212.205 61.577V57.7309H213.825V62.3361C212.644 63.3314 211.008 63.8375 209.355 63.8375C205.728 63.8375 203.063 61.2903 203.063 57.7984C203.063 54.3066 205.728 51.7594 209.388 51.7594C211.261 51.7594 212.847 52.3835 213.926 53.5812L212.88 54.6271C211.902 53.6824 210.789 53.2607 209.456 53.2607C206.723 53.2607 204.749 55.1669 204.749 57.7984C204.749 60.3962 206.723 62.3361 209.439 62.3361C210.434 62.3361 211.362 62.1168 212.205 61.577ZM219.754 63.7025V51.8943H221.441V63.7025H219.754ZM229.362 62.2349H236.244V63.7025H227.675V51.8943H236.008V53.3619H229.362V56.9887H235.283V58.4226H229.362V62.2349ZM245.116 63.8375C243.311 63.8375 241.54 63.2302 240.595 62.353L241.219 61.0372C242.096 61.8301 243.598 62.4036 245.116 62.4036C247.157 62.4036 248.034 61.6108 248.034 60.5818C248.034 57.6972 240.882 59.519 240.882 55.1331C240.882 53.3113 242.299 51.7594 245.403 51.7594C246.786 51.7594 248.22 52.1305 249.198 52.8052L248.641 54.1547C247.612 53.4969 246.449 53.1932 245.403 53.1932C243.395 53.1932 242.535 54.0367 242.535 55.0657C242.535 57.9502 249.687 56.1453 249.687 60.4806C249.687 62.2855 248.237 63.8375 245.116 63.8375Z" fill="white"/>
</svg>
