<svg width="451" height="283" viewBox="0 0 451 283" fill="none" xmlns="http://www.w3.org/2000/svg">
<g clip-path="url(#clip0)">
<path d="M350.889 163.667C344.088 166.335 336.675 167.044 329.492 165.713C329.299 164.269 329.492 160.899 335.365 157.457C335.669 157.289 335.895 157.008 335.994 156.675C336.093 156.342 336.057 155.983 335.894 155.676C335.811 155.513 335.695 155.368 335.554 155.251C335.414 155.134 335.25 155.047 335.075 154.995C334.899 154.944 334.714 154.928 334.533 154.95C334.351 154.972 334.175 155.031 334.017 155.123C324.871 160.345 326.796 166.603 327.518 167.157C320.105 192.549 314.256 195.389 312.066 195.389C307.613 195.389 303.233 185.208 301.813 180.274L297.505 181.526C298.058 183.403 303.04 199.866 311.946 199.866C318.878 199.866 324.967 190.648 330.96 170.984C336.042 174.809 341.835 177.583 348.001 179.143C348.178 179.189 348.363 179.198 348.544 179.168C348.725 179.139 348.898 179.072 349.052 178.973C349.205 178.873 349.337 178.743 349.438 178.59C349.539 178.437 349.607 178.265 349.637 178.084C349.697 177.75 349.628 177.406 349.445 177.121C349.262 176.835 348.979 176.629 348.651 176.544C345.636 175.733 342.703 174.646 339.89 173.294C343.838 174.612 347.956 175.349 352.116 175.485H352.477V174.04C352.466 173.71 352.331 173.396 352.099 173.16C351.868 172.924 351.556 172.783 351.226 172.765C348.788 172.597 346.37 172.202 344.005 171.585H345.136C347.416 171.588 349.693 171.419 351.948 171.08C352.129 171.058 352.304 170.998 352.46 170.903C352.617 170.809 352.752 170.683 352.856 170.533C352.961 170.383 353.033 170.213 353.067 170.034C353.101 169.854 353.097 169.669 353.055 169.492C352.98 169.164 352.785 168.876 352.509 168.685C352.233 168.494 351.896 168.412 351.563 168.457C348.454 168.888 345.308 169.001 342.176 168.794C345.546 168.397 348.835 167.479 351.924 166.074C352.094 166.001 352.248 165.895 352.375 165.761C352.502 165.627 352.601 165.468 352.664 165.294C352.727 165.12 352.754 164.935 352.742 164.75C352.731 164.566 352.682 164.385 352.598 164.22C352.435 163.93 352.168 163.712 351.852 163.609C351.535 163.507 351.191 163.527 350.889 163.667Z" fill="#231F20"/>
<path d="M149.121 180.273C147.677 185.087 143.297 195.388 138.844 195.388C136.654 195.388 130.805 192.597 123.392 167.156C123.753 165.688 126.064 160.296 116.894 155.122C116.734 155.033 116.559 154.977 116.378 154.957C116.197 154.937 116.014 154.953 115.839 155.005C115.664 155.056 115.501 155.142 115.36 155.257C115.219 155.372 115.102 155.514 115.016 155.675C114.865 155.984 114.835 156.339 114.933 156.669C115.032 156.999 115.25 157.28 115.546 157.456C121.394 160.778 121.611 164.268 121.418 165.712C114.244 167.057 106.835 166.347 100.045 163.666C99.8828 163.546 99.6953 163.464 99.4966 163.426C99.298 163.388 99.0934 163.395 98.898 163.447C98.7025 163.499 98.5213 163.595 98.3677 163.726C98.2141 163.858 98.0921 164.022 98.0106 164.207C97.9292 164.392 97.8904 164.593 97.8972 164.795C97.9041 164.997 97.9563 165.195 98.05 165.375C98.1437 165.554 98.2765 165.71 98.4386 165.83C98.6007 165.951 98.788 166.034 98.9864 166.073C102.125 167.467 105.463 168.36 108.879 168.72C105.765 168.948 102.637 168.867 99.54 168.48C99.2033 168.429 98.8597 168.507 98.5784 168.699C98.2971 168.891 98.0989 169.183 98.0237 169.515H97.9996C97.9615 169.692 97.9603 169.876 97.9961 170.054C98.0319 170.232 98.104 170.401 98.2078 170.55C98.3117 170.699 98.4451 170.825 98.5997 170.92C98.7544 171.015 98.927 171.078 99.1068 171.103C101.369 171.442 103.654 171.611 105.942 171.609H107.049C104.68 172.203 102.264 172.598 99.8288 172.788C99.4945 172.806 99.1795 172.95 98.9473 173.192C98.7151 173.433 98.5829 173.753 98.5773 174.088C98.5705 174.273 98.602 174.457 98.6698 174.63C98.7376 174.802 98.8401 174.959 98.9711 175.09C99.1021 175.221 99.2587 175.323 99.4312 175.391C99.6036 175.459 99.7881 175.49 99.9732 175.484C103.722 175.193 107.422 174.458 110.997 173.293C108.155 174.663 105.189 175.759 102.139 176.567C101.81 176.647 101.524 176.853 101.344 177.141C101.164 177.429 101.104 177.776 101.177 178.107C101.207 178.288 101.275 178.46 101.376 178.613C101.477 178.766 101.609 178.897 101.762 178.996C101.916 179.096 102.089 179.162 102.27 179.191C102.451 179.221 102.636 179.212 102.813 179.166C108.986 177.562 114.778 174.748 119.854 170.887C125.847 190.599 131.888 199.769 138.844 199.769C147.87 199.769 152.876 183.306 153.406 181.429L149.121 180.273Z" fill="#231F20"/>
<g style="mix-blend-mode:multiply">
<path d="M225.467 282.589C265.252 282.589 297.504 277.233 297.504 270.627C297.504 264.02 265.252 258.665 225.467 258.665C185.682 258.665 153.429 264.02 153.429 270.627C153.429 277.233 185.682 282.589 225.467 282.589Z" fill="#CFE1EC"/>
</g>
<path d="M203.42 231.059L199.088 231.564L203.613 268.293C201.343 267.697 199.022 267.318 196.681 267.162C192.373 267.017 189.894 271.422 191.458 271.422H207.993C208.715 271.47 207.921 267.571 203.42 231.059Z" fill="#231F20"/>
<path d="M255.12 267.161C252.7 267.222 250.288 267.447 247.899 267.835L252.159 232.045L247.731 231.516C247.731 231.516 242.917 271.277 243.037 271.277H261.137C263.183 271.325 260.343 267.161 255.12 267.161Z" fill="#231F20"/>
<path d="M225.732 236.354H224.047C204.492 235.907 185.768 228.364 171.363 215.133C156.957 201.901 147.855 183.883 145.752 164.437V163.859C145.463 153.582 145.607 144.917 145.752 136.541C145.896 128.165 146.016 119.838 145.752 109.921C145.72 108.923 145.886 107.928 146.241 106.994C146.596 106.06 147.132 105.206 147.819 104.481C148.507 103.755 149.331 103.174 150.244 102.769C151.157 102.364 152.142 102.145 153.141 102.123H153.357C155.342 102.122 157.248 102.897 158.668 104.282C160.089 105.667 160.913 107.553 160.963 109.536C161.252 119.789 161.108 128.454 160.963 136.83C160.819 145.206 160.698 153.365 160.963 163.161C162.653 179.747 170.671 195.043 183.349 205.868C196.027 216.694 212.391 222.216 229.036 221.286C245.682 220.356 261.328 213.046 272.722 200.875C284.116 188.705 290.38 172.611 290.212 155.941V110.21C290.178 108.194 290.925 106.243 292.299 104.767C293.672 103.29 295.564 102.403 297.577 102.292C298.594 102.263 299.606 102.438 300.554 102.807C301.502 103.176 302.366 103.732 303.095 104.441C303.825 105.15 304.404 105.999 304.8 106.936C305.196 107.873 305.399 108.88 305.399 109.897V160.899C305.375 167.157 304.426 173.378 302.583 179.359C297.533 195.818 287.349 210.228 273.521 220.483C259.694 230.738 242.947 236.3 225.732 236.354Z" fill="#50BDE7"/>
<path d="M225.564 105.3C223.546 105.3 221.612 104.498 220.185 103.072C218.759 101.646 217.958 99.7113 217.958 97.6941V7.60515C217.9 6.57198 218.053 5.5378 218.408 4.5659C218.764 3.59401 219.313 2.70484 220.024 1.95283C220.735 1.20082 221.592 0.601771 222.542 0.192358C223.493 -0.217054 224.517 -0.428223 225.551 -0.428223C226.586 -0.428223 227.61 -0.217054 228.561 0.192358C229.511 0.601771 230.368 1.20082 231.079 1.95283C231.79 2.70484 232.339 3.59401 232.695 4.5659C233.05 5.5378 233.203 6.57198 233.145 7.60515V97.6941C233.145 99.7071 232.347 101.638 230.926 103.064C229.505 104.489 227.577 105.293 225.564 105.3Z" fill="#50BDE7"/>
<path d="M187.415 108.814C185.404 108.801 183.479 107.995 182.059 106.571C180.64 105.146 179.84 103.219 179.833 101.208V26.4748C179.833 24.4577 180.635 22.5231 182.061 21.0968C183.487 19.6705 185.422 18.8691 187.439 18.8691C189.456 18.8691 191.391 19.6705 192.817 21.0968C194.243 22.5231 195.045 24.4577 195.045 26.4748V101.208C195.038 103.227 194.232 105.162 192.801 106.587C191.371 108.013 189.434 108.814 187.415 108.814Z" fill="#50BDE7"/>
<path d="M264.771 106.937C262.76 106.937 260.832 106.138 259.41 104.716C257.988 103.294 257.189 101.366 257.189 99.3553V27.8473C257.131 26.8142 257.284 25.78 257.64 24.8081C257.995 23.8362 258.545 22.947 259.256 22.195C259.967 21.443 260.823 20.844 261.774 20.4345C262.724 20.0251 263.748 19.814 264.783 19.814C265.818 19.814 266.842 20.0251 267.792 20.4345C268.742 20.844 269.599 21.443 270.31 22.195C271.021 22.947 271.571 23.8362 271.926 24.8081C272.282 25.78 272.435 26.8142 272.377 27.8473V99.3553C272.377 100.353 272.18 101.341 271.797 102.262C271.415 103.184 270.854 104.021 270.147 104.725C269.441 105.429 268.602 105.987 267.68 106.367C266.757 106.746 265.769 106.94 264.771 106.937Z" fill="#50BDE7"/>
<path d="M225.563 109.944C215.306 109.925 205.273 112.95 196.734 118.635C188.196 124.32 181.536 132.41 177.597 141.882C173.659 151.353 172.618 161.78 174.608 171.843C176.597 181.906 181.527 191.153 188.774 198.413C196.021 205.673 205.258 210.621 215.317 212.629C225.377 214.637 235.806 213.616 245.285 209.695C254.764 205.774 262.866 199.129 268.567 190.601C274.268 182.073 277.311 172.046 277.311 161.788C277.298 148.059 271.845 134.894 262.146 125.177C252.447 115.46 239.293 109.983 225.563 109.944ZM225.563 202.585C217.471 202.585 209.56 200.185 202.831 195.689C196.103 191.193 190.858 184.803 187.761 177.326C184.664 169.85 183.854 161.623 185.433 153.685C187.012 145.748 190.909 138.458 196.631 132.735C202.353 127.013 209.644 123.116 217.581 121.537C225.518 119.959 233.745 120.769 241.222 123.866C248.698 126.963 255.088 132.207 259.584 138.936C264.08 145.665 266.48 153.575 266.48 161.668C266.48 172.52 262.169 182.927 254.496 190.6C246.823 198.274 236.415 202.585 225.563 202.585Z" fill="#666666"/>
<path d="M250.403 156.975C249.213 156.981 248.074 157.458 247.236 158.301C246.397 159.145 245.926 160.286 245.926 161.475C245.926 163.882 247.923 163.642 250.403 163.642C252.882 163.642 254.903 163.955 254.903 161.475C254.903 160.282 254.429 159.137 253.585 158.293C252.741 157.449 251.596 156.975 250.403 156.975ZM249.993 160.994C249.835 161.109 249.655 161.191 249.465 161.233C249.274 161.276 249.076 161.279 248.884 161.241C248.692 161.204 248.51 161.127 248.349 161.016C248.188 160.905 248.052 160.762 247.949 160.596C247.846 160.429 247.778 160.244 247.75 160.05C247.722 159.857 247.735 159.659 247.787 159.471C247.838 159.282 247.929 159.106 248.052 158.954C248.175 158.802 248.328 158.677 248.501 158.587C248.659 158.472 248.839 158.39 249.03 158.348C249.221 158.305 249.418 158.303 249.61 158.34C249.802 158.378 249.984 158.454 250.145 158.565C250.306 158.676 250.443 158.819 250.546 158.986C250.649 159.152 250.716 159.338 250.744 159.531C250.772 159.725 250.76 159.922 250.708 160.11C250.656 160.299 250.566 160.475 250.443 160.627C250.32 160.779 250.167 160.904 249.993 160.994ZM253.652 162.679C253.532 162.751 253.395 162.789 253.255 162.789C253.115 162.789 252.977 162.751 252.858 162.679C252.77 162.659 252.693 162.608 252.641 162.534C252.593 162.459 252.56 162.374 252.544 162.286C252.529 162.198 252.532 162.107 252.552 162.02C252.572 161.932 252.609 161.85 252.662 161.777C252.714 161.704 252.781 161.643 252.858 161.596C252.977 161.521 253.114 161.481 253.255 161.481C253.395 161.481 253.533 161.521 253.652 161.596C253.737 161.621 253.813 161.671 253.868 161.74C253.96 161.895 253.988 162.078 253.948 162.253C253.908 162.428 253.802 162.58 253.652 162.679Z" fill="#231F20"/>
<path d="M200.508 156.975C199.314 156.975 198.17 157.449 197.326 158.293C196.482 159.137 196.007 160.282 196.007 161.475C196.007 163.882 198.029 163.642 200.508 163.642C202.987 163.642 205.009 163.955 205.009 161.475C205.009 160.282 204.535 159.137 203.691 158.293C202.847 157.449 201.702 156.975 200.508 156.975ZM199.858 160.994C199.606 161.084 199.334 161.102 199.073 161.044C198.811 160.986 198.571 160.856 198.381 160.668C198.191 160.479 198.057 160.241 197.996 159.981C197.935 159.72 197.949 159.447 198.037 159.194C198.124 158.941 198.281 158.718 198.489 158.55C198.698 158.383 198.95 158.277 199.216 158.247C199.482 158.216 199.751 158.261 199.992 158.377C200.234 158.492 200.438 158.674 200.58 158.9C200.756 159.274 200.779 159.703 200.644 160.094C200.51 160.485 200.228 160.808 199.858 160.994ZM202.891 162.679C202.771 162.751 202.634 162.789 202.494 162.789C202.354 162.789 202.217 162.751 202.097 162.679C202.009 162.659 201.932 162.608 201.88 162.534C201.832 162.459 201.799 162.374 201.784 162.286C201.768 162.198 201.771 162.107 201.791 162.02C201.811 161.932 201.849 161.85 201.901 161.777C201.954 161.704 202.02 161.643 202.097 161.596C202.216 161.521 202.353 161.481 202.494 161.481C202.634 161.481 202.772 161.521 202.891 161.596C202.976 161.621 203.052 161.671 203.108 161.74C203.193 161.896 203.219 162.078 203.179 162.251C203.139 162.424 203.036 162.576 202.891 162.679Z" fill="#231F20"/>
<path d="M219.402 180.948C217.524 179.769 222.218 177.386 225.515 177.386C228.812 177.386 233.193 179.937 231.628 180.948C229.67 181.641 227.583 181.896 225.515 181.694C223.447 181.908 221.357 181.653 219.402 180.948Z" fill="#231F20"/>
<path d="M225.563 180.057C223.621 180.039 221.683 180.24 219.787 180.659C221.65 181.127 223.574 181.305 225.491 181.189C227.4 181.305 229.316 181.126 231.171 180.659C229.332 180.24 227.45 180.038 225.563 180.057Z" fill="#FB422D"/>
</g>
<path d="M19.5537 174.895L56.1114 109.121H44.2751L6.66865 176.543V186.432H57.0104V214H68.2474V186.432H84.129V174.895H68.2474V147.177H57.0104V174.895H19.5537Z" fill="#666666"/>
<path d="M379.554 174.895L416.111 109.121H404.275L366.669 176.543V186.432H417.01V214H428.247V186.432H444.129V174.895H428.247V147.177H417.01V174.895H379.554Z" fill="#666666"/>
<defs>
<clipPath id="clip0">
<rect width="254.911" height="282.59" fill="white" transform="translate(98)"/>
</clipPath>
</defs>
</svg>
