<svg width="394" height="111" viewBox="0 0 394 111" fill="none" xmlns="http://www.w3.org/2000/svg">
<g clip-path="url(#clip0_1602_108)">
<path d="M139.73 61.57V43.3L130.73 21.05C126.57 22.71 124.26 26.45 124.26 31.31C124.26 36.17 125.86 37.31 126.34 38.25C121.59 38.25 118.63 36.25 118.63 31.07C118.63 23.54 127.23 17.07 136.24 17.07C137.14 17.07 137.97 17.13 138.74 17.19L147.22 38.49L153 17.37H156.91L149.22 43.3V61.57H139.73Z" fill="#50BDE7"/>
<path d="M178.41 41H178.83C181.02 41 184.7 39.34 186.95 37.44L187.84 39.04C186.18 41.54 182.27 43.2 178.65 43.91C178.7 44.4418 178.72 44.976 178.71 45.51C178.71 54.65 175.71 61.94 167.14 61.94C161.32 61.94 156.04 58.56 156.04 48.54C156.04 41.77 158.48 31.63 168.74 31.63C174.14 31.61 177.46 34.46 178.41 41ZM173.6 45V44.11C173.248 44.0735 172.906 43.9657 172.597 43.7932C172.288 43.6206 172.017 43.3869 171.801 43.1062C171.585 42.8255 171.428 42.5038 171.34 42.1606C171.252 41.8174 171.235 41.46 171.29 41.11C171.29 39.45 171.88 38.62 172.77 38.32C171.94 35.65 170.52 35.12 169.63 35.12C166.13 35.12 164.76 42.36 164.76 47.87C164.76 54.99 167.02 56.3 168.76 56.3C172.18 56.35 173.6 51.48 173.6 45Z" fill="#50BDE7"/>
<path d="M206.35 31.9V52.08C206.35 55.08 207.01 56.17 209.08 56.17C212.08 56.17 213.36 53.8 213.65 50.95H216.14C214.84 60.62 209.26 61.95 206 61.95C201.79 61.95 199.71 59.82 198.94 56.32C196.94 61.32 193.48 61.95 191.05 61.95C185.41 61.95 183.05 58.34 183.05 52.76V31.9H191.59V52.08C191.59 55.08 192.48 56.17 194.02 56.17C196.16 56.17 197.76 53.91 197.76 50.95V31.9H206.35Z" fill="#50BDE7"/>
<path d="M221.6 31.9V35.58C223.33 33.51 225.52 31.58 228.01 31.58C229.372 31.6484 230.656 32.232 231.603 33.2125C232.55 34.193 233.089 35.497 233.11 36.86C233.143 37.3231 233.078 37.7879 232.918 38.2236C232.757 38.6594 232.506 39.056 232.181 39.3871C231.855 39.7182 231.463 39.9762 231.03 40.1439C230.597 40.3117 230.134 40.3854 229.67 40.36C226.11 40.36 227.42 36.62 225.16 36.62C223.98 36.62 222.85 37.62 221.6 38.99V61.57H213.06V31.9H221.6Z" fill="#50BDE7"/>
<path d="M254.89 29.59C254.333 29.5944 253.78 29.4869 253.264 29.2739C252.749 29.061 252.282 28.7468 251.89 28.35C252.46 27.8561 252.911 27.2398 253.208 26.5471C253.506 25.8544 253.644 25.1033 253.61 24.35C253.61 21.92 252.01 20.14 248.81 20.14C245.25 20.14 243.81 22.33 243.81 25.6C243.81 37.11 262.49 34.6 262.49 50.22C262.49 59.12 256.38 62.68 248.19 62.68C240.9 62.68 233.6 59.89 233.6 51.76C233.6 46.3 236.92 42.92 240.72 42.92C241.984 42.8829 243.229 43.2404 244.281 43.9429C245.333 44.6454 246.14 45.6579 246.59 46.84C243.75 46.84 240.59 47.9 240.59 52.18C240.59 56.27 243.44 57.93 247.24 57.93C251.04 57.93 253.17 56.27 253.17 51.93C253.17 39.47 235.79 40.6 235.79 27.72C235.79 20.9 240.71 17.16 248.6 17.16C250.85 17.16 258.69 17.46 258.69 24.64C258.69 27.52 257.32 29.59 254.89 29.59Z" fill="#50BDE7"/>
<path d="M274.35 22.53V31.9H278V34.28H274.38V52.08C274.38 55.4 275.15 56.17 277.47 56.17C279.79 56.17 281.47 53.91 281.68 50.95H284.17C282.86 60.62 277.29 61.95 274.08 61.95C267.97 61.95 265.84 58.28 265.84 52.76V34.28H263.94V31.9H265.84V23.72L274.35 22.53Z" fill="#50BDE7"/>
<path d="M303 41H303.41C305.61 41 309.29 39.34 311.54 37.44L312.43 39.04C310.77 41.54 306.85 43.2 303.23 43.91C303.28 44.4418 303.3 44.976 303.29 45.51C303.29 54.65 300.29 61.94 291.73 61.94C285.91 61.94 280.63 58.56 280.63 48.54C280.63 41.77 283.06 31.63 293.33 31.63C298.74 31.61 302.06 34.46 303 41ZM298.19 45V44.11C297.838 44.0735 297.496 43.9657 297.187 43.7932C296.878 43.6206 296.607 43.3869 296.39 43.1062C296.174 42.8255 296.018 42.5038 295.93 42.1606C295.842 41.8174 295.825 41.46 295.88 41.11C295.88 39.45 296.47 38.62 297.36 38.32C296.53 35.65 295.11 35.12 294.22 35.12C290.72 35.12 289.35 42.36 289.35 47.87C289.35 54.99 291.61 56.3 293.35 56.3C296.78 56.35 298.2 51.48 298.2 45H298.19Z" fill="#50BDE7"/>
<path d="M316.24 31.9V35.58C317.96 33.51 320.16 31.58 322.65 31.58C324.011 31.6507 325.294 32.2351 326.24 33.2151C327.187 34.1951 327.726 35.4977 327.75 36.86C327.783 37.3231 327.718 37.7879 327.557 38.2236C327.397 38.6594 327.146 39.056 326.821 39.3871C326.495 39.7182 326.103 39.9762 325.67 40.1439C325.237 40.3117 324.773 40.3854 324.31 40.36C320.75 40.36 322.05 36.62 319.8 36.62C318.61 36.62 317.49 37.62 316.24 38.99V61.57H307.7V31.9H316.24Z" fill="#50BDE7"/>
<path d="M334 19.27C334.637 19.2407 335.274 19.3408 335.872 19.5646C336.469 19.7883 337.015 20.1308 337.477 20.5715C337.938 21.0123 338.306 21.542 338.557 22.1287C338.808 22.7154 338.937 23.3469 338.937 23.985C338.937 24.6231 338.808 25.2546 338.557 25.8413C338.306 26.428 337.938 26.9578 337.477 27.3985C337.015 27.8392 336.469 28.1818 335.872 28.4055C335.274 28.6292 334.637 28.7294 334 28.7C332.787 28.6441 331.642 28.123 330.804 27.2449C329.965 26.3667 329.497 25.1992 329.497 23.985C329.497 22.7708 329.965 21.6033 330.804 20.7252C331.642 19.8471 332.787 19.3259 334 19.27ZM338.51 31.9V52.08C338.51 55.4 339.28 56.17 341.59 56.17C343.9 56.17 345.59 53.91 345.81 50.95H348.3C346.99 60.62 341.42 61.95 338.21 61.95C332.1 61.95 329.97 58.28 329.97 52.76V31.9H338.51Z" fill="#50BDE7"/>
<path d="M368.63 51H370.63C368.44 56.46 364.63 62 356.57 62C349.75 62 344.89 58.09 344.89 48.42C344.89 41.54 347.56 31.69 357.46 31.69C365 31.69 365.18 37.32 365.18 38.57C365.18 45.63 359.42 49.37 353.55 49.66C353.67 54.94 355.09 57.02 359.36 57.02C364.18 56.94 366.37 54.33 368.63 51ZM358.36 34.8C355.69 34.8 353.86 40.38 353.56 46.8C355.556 46.5836 357.395 45.6176 358.705 44.0973C360.016 42.5769 360.7 40.6157 360.62 38.61C360.62 35.82 359.49 34.75 358.36 34.75V34.8Z" fill="#50BDE7"/>
<path d="M382.51 30.07C386.51 45.43 387.67 47.74 387.67 53.56C387.67 59.79 382.04 61.92 377.67 61.92C370.72 61.92 367.22 57 367.22 53.14C367.158 52.2864 367.33 51.4319 367.717 50.6688C368.105 49.9057 368.694 49.263 369.42 48.81C371.686 43.1748 373.225 37.274 374 31.25L382.51 30.07ZM372.07 53.85C371.734 53.8709 371.397 53.812 371.088 53.6782C370.778 53.5444 370.505 53.3395 370.29 53.08C370.88 55.87 372.19 57.24 374.8 57.24C377.05 57.24 379.01 56.17 379.01 53.08C379.01 48.87 378.18 46.91 375.75 38.02C374.88 41.7474 373.791 45.4204 372.49 49.02C372.98 49.2273 373.398 49.5736 373.693 50.0162C373.988 50.4588 374.147 50.9781 374.15 51.51C374.169 51.8006 374.13 52.0921 374.035 52.3676C373.941 52.643 373.792 52.897 373.599 53.1146C373.405 53.3323 373.171 53.5094 372.908 53.6356C372.646 53.7619 372.361 53.8347 372.07 53.85Z" fill="#50BDE7"/>
<path d="M91 24.35V57.25C91.0002 60.5633 90.2371 63.832 88.77 66.8028C87.3029 69.7735 85.1711 72.3663 82.54 74.38L58.32 92.94V63.94C58.3206 60.6255 59.0839 57.3555 60.5509 54.3833C62.018 51.4111 64.1493 48.8164 66.78 46.8L91 24.35ZM49.77 40.35V110.26L96.92 74.14C97.7366 73.5117 98.3983 72.7046 98.8543 71.7806C99.3102 70.8566 99.5482 69.8404 99.55 68.81V1.60003C99.5468 1.30543 99.4623 1.01743 99.3059 0.767786C99.1495 0.518139 98.9271 0.316533 98.6634 0.185191C98.3997 0.0538487 98.1048 -0.00212942 97.8113 0.0234267C97.5178 0.0489829 97.2371 0.155081 97 0.330026L49.77 40.35Z" fill="#50BDE7"/>
<path d="M8.55 24.35L32.77 46.75C35.4007 48.7664 37.5321 51.3611 38.9991 54.3333C40.4661 57.3055 41.2295 60.5755 41.23 63.89V92.94L17 74.38C14.3702 72.3657 12.2399 69.7726 10.7745 66.8018C9.30906 63.8311 8.54787 60.5626 8.55 57.25V24.35ZM2.63 74.14L49.77 110.25V40.34L2.57 0.330005C2.33301 0.149344 2.05028 0.0384566 1.75366 0.0098378C1.45704 -0.018781 1.15832 0.036006 0.891163 0.168026C0.624005 0.300045 0.399025 0.50405 0.241573 0.757055C0.0841211 1.01006 0.000454561 1.30201 6.38572e-07 1.60001V68.81C-0.000449009 69.8408 0.236571 70.8577 0.692671 71.7821C1.14877 72.7064 1.81169 73.5133 2.63 74.14Z" fill="#50BDE7"/>
<path d="M22 5.71001L49.77 38.25L17 8.68001L19.69 5.74001C19.8373 5.58228 20.015 5.45597 20.2124 5.3687C20.4098 5.28143 20.6228 5.23499 20.8386 5.23219C21.0544 5.22939 21.2685 5.27027 21.4681 5.35239C21.6677 5.43451 21.8486 5.55615 22 5.71001Z" fill="#50BDE7"/>
<path d="M82.35 8.67002L49.77 38.25L77.32 5.72002C77.4705 5.56083 77.6519 5.43403 77.853 5.34737C78.0542 5.2607 78.271 5.216 78.49 5.216C78.7091 5.216 78.9258 5.2607 79.127 5.34737C79.3282 5.43403 79.5095 5.56083 79.66 5.72002L82.35 8.67002Z" fill="#50BDE7"/>
<path d="M150.027 80.9L152.981 90.7926L153.464 92.4127L153.94 90.7906L156.835 80.9195H158.177L161.131 90.8131L161.615 92.4342L162.089 90.8102L164.984 80.9195H166.119L162.298 92.4996H160.85L157.959 83.024L157.48 81.4566L157.002 83.024L154.11 92.4996H152.651L148.802 80.9H150.027Z" fill="white" stroke="white"/>
<path d="M177.49 87.05V93.05H175.42V87.63C175.447 87.3194 175.406 87.0065 175.3 86.7133C175.194 86.4201 175.025 86.1537 174.805 85.9327C174.585 85.7117 174.319 85.5414 174.026 85.4339C173.734 85.3263 173.421 85.284 173.11 85.31C172.728 85.3081 172.349 85.3866 171.999 85.5404C171.649 85.6941 171.335 85.9198 171.078 86.2026C170.82 86.4854 170.625 86.8192 170.505 87.1822C170.385 87.5453 170.342 87.9295 170.38 88.31V93H168.3V79.65H170.38V85.31C170.701 84.6596 171.21 84.121 171.842 83.7643C172.473 83.4075 173.197 83.2492 173.92 83.31C174.413 83.2741 174.908 83.3476 175.369 83.5253C175.83 83.703 176.246 83.9806 176.587 84.338C176.928 84.6955 177.186 85.124 177.342 85.5929C177.498 86.0618 177.549 86.5594 177.49 87.05Z" fill="white"/>
<path d="M188.68 89H181.45C181.575 89.6944 181.949 90.3196 182.501 90.7592C183.052 91.1989 183.745 91.4231 184.45 91.39C184.951 91.3955 185.449 91.3 185.913 91.1093C186.377 90.9187 186.797 90.6366 187.15 90.28L188.25 91.45C187.736 91.9876 187.113 92.4099 186.424 92.6891C185.734 92.9684 184.993 93.0982 184.25 93.07C182.997 93.02 181.812 92.4889 180.941 91.5872C180.07 90.6854 179.581 89.4826 179.574 88.2289C179.568 86.9753 180.045 85.7675 180.907 84.8568C181.768 83.9462 182.948 83.4029 184.2 83.34C187.57 83.36 188.94 85.56 188.68 89ZM186.88 87.48C186.884 87.1378 186.816 86.7984 186.682 86.4838C186.547 86.1691 186.348 85.886 186.098 85.6526C185.847 85.4192 185.551 85.2406 185.228 85.1282C184.904 85.0158 184.561 84.9722 184.22 85C183.523 84.9743 182.843 85.2173 182.32 85.6788C181.797 86.1404 181.471 86.7852 181.41 87.48H186.88Z" fill="white"/>
<path d="M192.91 85.34C193.203 84.7175 193.674 84.1955 194.263 83.8396C194.852 83.4838 195.533 83.3099 196.22 83.34V85.34C195.826 85.2841 195.425 85.3097 195.041 85.4151C194.657 85.5206 194.299 85.7036 193.989 85.9529C193.679 86.2022 193.423 86.5125 193.237 86.8646C193.052 87.2167 192.94 87.6032 192.91 88V93H190.84V83.44H192.91V85.34Z" fill="white"/>
<path d="M206.36 89H199.12C199.247 89.6934 199.621 90.3174 200.173 90.7567C200.724 91.1959 201.416 91.4209 202.12 91.39C202.622 91.3978 203.12 91.3034 203.584 91.1125C204.048 90.9217 204.469 90.6385 204.82 90.28L205.92 91.45C205.407 91.9891 204.785 92.4124 204.095 92.6918C203.405 92.9712 202.664 93.1001 201.92 93.07C201.263 93.103 200.606 93.0025 199.989 92.7745C199.371 92.5465 198.807 92.1959 198.329 91.7436C197.851 91.2914 197.47 90.747 197.208 90.1433C196.946 89.5396 196.809 88.8891 196.806 88.2312C196.803 87.5732 196.933 86.9213 197.188 86.315C197.444 85.7086 197.819 85.1603 198.293 84.7032C198.766 84.2461 199.327 83.8896 199.942 83.6553C200.557 83.421 201.213 83.3138 201.87 83.34C205.24 83.36 206.61 85.56 206.36 89ZM204.56 87.48C204.564 87.1368 204.496 86.7966 204.361 86.4812C204.226 86.1658 204.026 85.8821 203.774 85.6486C203.523 85.415 203.225 85.2366 202.901 85.1249C202.576 85.0132 202.232 84.9707 201.89 85C201.194 84.9767 200.515 85.2205 199.992 85.6816C199.47 86.1427 199.144 86.7861 199.08 87.48H204.56Z" fill="white"/>
<path d="M221.84 81.62L221 83.49C219.893 82.7851 218.621 82.3818 217.31 82.32C216.06 82.32 215.25 82.79 215.25 83.63C215.25 86.39 222.06 84.91 222.04 89.45C222.04 91.7 220.04 93.09 217.29 93.09C215.386 93.0796 213.552 92.3675 212.14 91.09L213.06 89.25C214.211 90.358 215.724 91.0116 217.32 91.09C218.8 91.09 219.68 90.53 219.68 89.56C219.68 86.75 212.88 88.31 212.88 83.83C212.88 81.67 214.73 80.32 217.47 80.32C219.021 80.3288 220.537 80.7798 221.84 81.62Z" fill="white"/>
<path d="M229.78 92.4C229.071 92.8429 228.255 93.0849 227.42 93.1C227.051 93.1272 226.681 93.0728 226.335 92.9408C225.989 92.8087 225.677 92.6022 225.421 92.3359C225.164 92.0696 224.969 91.75 224.849 91.3999C224.73 91.0498 224.689 90.6777 224.73 90.31V85.31H223.38V83.8H224.73V81.17H226.79V83.8H229.61V85.34H226.79V89.94C226.79 90.94 227.17 91.23 227.79 91.23C228.295 91.2065 228.788 91.0662 229.23 90.82L229.78 92.4Z" fill="white"/>
<path d="M240.67 88.23C240.696 89.2241 240.425 90.2032 239.891 91.0424C239.358 91.8816 238.586 92.5426 237.675 92.9411C236.764 93.3395 235.755 93.4573 234.777 93.2793C233.798 93.1013 232.895 92.6356 232.183 91.9418C231.471 91.248 230.981 90.3576 230.778 89.3843C230.574 88.411 230.665 87.3991 231.039 86.4779C231.414 85.5566 232.054 84.7679 232.879 84.2126C233.704 83.6572 234.676 83.3604 235.67 83.36C236.326 83.3175 236.985 83.4134 237.602 83.6413C238.219 83.8693 238.781 84.2243 239.253 84.6833C239.724 85.1424 240.094 85.6953 240.338 86.3062C240.582 86.9172 240.695 87.5726 240.67 88.23ZM232.74 88.23C232.771 88.8012 232.969 89.3508 233.309 89.811C233.649 90.2711 234.116 90.6216 234.653 90.8194C235.19 91.0171 235.773 91.0534 236.33 90.9237C236.887 90.794 237.394 90.5041 237.788 90.0896C238.183 89.6752 238.447 89.1544 238.549 88.5914C238.651 88.0285 238.585 87.4481 238.361 86.9218C238.137 86.3954 237.764 85.9463 237.287 85.6297C236.811 85.313 236.252 85.1428 235.68 85.14C235.278 85.132 234.879 85.208 234.508 85.3631C234.137 85.5182 233.802 85.749 233.525 86.0407C233.249 86.3325 233.036 86.6788 232.901 87.0575C232.765 87.4362 232.711 87.839 232.74 88.24V88.23Z" fill="white"/>
<path d="M244.89 85.34C245.186 84.7175 245.659 84.1959 246.249 83.8402C246.839 83.4845 247.521 83.3106 248.21 83.34V85.34C247.815 85.2841 247.414 85.3097 247.029 85.415C246.645 85.5203 246.286 85.7032 245.975 85.9524C245.664 86.2016 245.407 86.5118 245.221 86.864C245.034 87.2161 244.922 87.6027 244.89 88V93H242.82V83.44H244.89V85.34Z" fill="white"/>
<path d="M252.15 80.7C252.14 80.937 252.061 81.1658 251.922 81.3581C251.783 81.5504 251.591 81.6977 251.369 81.7816C251.148 81.8656 250.906 81.8825 250.675 81.8304C250.443 81.7782 250.232 81.6592 250.068 81.4881C249.904 81.3171 249.794 81.1015 249.751 80.8683C249.708 80.635 249.735 80.3944 249.828 80.1762C249.92 79.958 250.075 79.7719 250.273 79.641C250.471 79.5101 250.703 79.4402 250.94 79.44C251.104 79.437 251.267 79.4679 251.418 79.5308C251.57 79.5937 251.707 79.6872 251.82 79.8056C251.934 79.9239 252.022 80.0644 252.079 80.2183C252.135 80.3723 252.16 80.5363 252.15 80.7ZM249.92 93V83.44H252V93H249.92Z" fill="white"/>
<path d="M263.45 89H256.22C256.345 89.6944 256.719 90.3196 257.27 90.7592C257.822 91.1989 258.515 91.4231 259.22 91.39C259.722 91.3966 260.219 91.3017 260.683 91.1109C261.147 90.9202 261.568 90.6375 261.92 90.28L263.02 91.45C262.506 91.9876 261.883 92.4099 261.194 92.6891C260.504 92.9684 259.763 93.0982 259.02 93.07C257.768 93.0132 256.586 92.4759 255.72 91.5697C254.854 90.6636 254.371 89.4584 254.371 88.205C254.371 86.9516 254.854 85.7465 255.72 84.8403C256.586 83.9342 257.768 83.3968 259.02 83.34C262.34 83.36 263.71 85.56 263.45 89ZM261.65 87.48C261.654 87.1387 261.586 86.8003 261.452 86.4863C261.318 86.1724 261.12 85.8898 260.871 85.6565C260.622 85.4233 260.327 85.2444 260.005 85.1314C259.682 85.0184 259.34 84.9736 259 85C258.303 84.9743 257.623 85.2173 257.1 85.6788C256.577 86.1404 256.251 86.7852 256.19 87.48H261.65Z" fill="white"/>
<path d="M271.82 84.32L271.07 85.85C270.239 85.3336 269.288 85.0408 268.31 85C267.5 85 266.91 85.27 266.91 86C266.91 87.76 272 86.81 271.99 90.28C271.99 92.28 270.24 93.13 268.31 93.13C266.908 93.1558 265.543 92.6807 264.46 91.79L265.2 90.32C266.103 91.0648 267.23 91.484 268.4 91.51C269.28 91.51 269.97 91.2 269.97 90.51C269.97 88.51 264.97 89.64 264.97 86.19C264.97 84.19 266.66 83.42 268.49 83.42C269.664 83.3905 270.821 83.7032 271.82 84.32Z" fill="white"/>
<path d="M281 82.32V86H286.72V87.89H281V93H278.87V80.41H287.33V82.32H281Z" fill="white"/>
<path d="M291.3 80.7C291.29 80.937 291.211 81.1658 291.072 81.3581C290.934 81.5504 290.741 81.6977 290.52 81.7816C290.298 81.8656 290.056 81.8825 289.825 81.8304C289.594 81.7782 289.383 81.6592 289.218 81.4881C289.054 81.3171 288.944 81.1015 288.901 80.8683C288.858 80.635 288.885 80.3944 288.978 80.1762C289.071 79.958 289.226 79.7719 289.423 79.641C289.621 79.5101 289.853 79.4402 290.09 79.44C290.254 79.437 290.417 79.4679 290.568 79.5308C290.72 79.5937 290.857 79.6872 290.97 79.8056C291.084 79.9239 291.172 80.0644 291.229 80.2183C291.285 80.3723 291.31 80.5363 291.3 80.7ZM289.06 93V83.44H291.12V93H289.06Z" fill="white"/>
<path d="M303.34 87.05V93.05H301.27V87.63C301.299 87.3199 301.259 87.0072 301.154 86.7139C301.049 86.4207 300.881 86.1541 300.662 85.9329C300.442 85.7117 300.177 85.5413 299.885 85.4336C299.593 85.326 299.28 85.2838 298.97 85.31C298.263 85.2966 297.58 85.5638 297.071 86.053C296.561 86.5423 296.266 87.2136 296.25 87.92V93H294.18V83.44H296.25V85.27C296.584 84.639 297.098 84.1209 297.726 83.781C298.354 83.4412 299.069 83.2947 299.78 83.36C300.267 83.3268 300.756 83.4005 301.212 83.5761C301.668 83.7516 302.08 84.0247 302.419 84.3763C302.758 84.7279 303.016 85.1494 303.175 85.6112C303.334 86.0731 303.391 86.5642 303.34 87.05Z" fill="white"/>
<path d="M315.24 93H313.17V91.38C312.813 91.9412 312.312 92.3966 311.719 92.699C311.127 93.0015 310.464 93.1399 309.8 93.1C307.05 93.1 305.21 91.1 305.21 88.19C305.21 85.28 307.06 83.35 309.77 83.35C310.44 83.3141 311.107 83.4562 311.704 83.7618C312.302 84.0674 312.807 84.5257 313.17 85.09V79.65H315.24V93ZM313.17 88.25C313.202 87.846 313.149 87.4397 313.016 87.0571C312.882 86.6744 312.67 86.3238 312.394 86.0275C312.117 85.7312 311.782 85.4957 311.409 85.336C311.037 85.1764 310.635 85.096 310.23 85.1C309.429 85.1453 308.676 85.4953 308.125 86.0782C307.574 86.6612 307.267 87.4329 307.267 88.235C307.267 89.0371 307.574 89.8088 308.125 90.3918C308.676 90.9748 309.429 91.3248 310.23 91.37C310.632 91.3751 311.031 91.2968 311.401 91.1401C311.771 90.9833 312.105 90.7515 312.382 90.4593C312.658 90.1671 312.87 89.8208 313.006 89.4423C313.142 89.0637 313.198 88.6612 313.17 88.26V88.25Z" fill="white"/>
<path d="M328.32 93H326.22V88.89L321.52 80.41H323.66L327.26 86.55L330.79 80.41H333L328.37 88.82L328.32 93Z" fill="white"/>
<path d="M342.62 88.23C342.646 89.2241 342.375 90.2032 341.841 91.0424C341.308 91.8816 340.536 92.5426 339.625 92.9411C338.714 93.3395 337.705 93.4573 336.727 93.2793C335.748 93.1013 334.845 92.6356 334.133 91.9418C333.421 91.248 332.931 90.3576 332.728 89.3843C332.524 88.411 332.615 87.3991 332.989 86.4779C333.364 85.5566 334.004 84.7679 334.829 84.2126C335.654 83.6572 336.626 83.3604 337.62 83.36C338.276 83.3175 338.935 83.4134 339.552 83.6413C340.169 83.8693 340.731 84.2243 341.203 84.6833C341.674 85.1424 342.044 85.6953 342.288 86.3062C342.532 86.9172 342.645 87.5726 342.62 88.23ZM334.7 88.23C334.731 88.8017 334.929 89.3516 335.27 89.812C335.61 90.2723 336.078 90.6228 336.615 90.8203C337.152 91.0177 337.736 91.0534 338.293 90.9229C338.851 90.7924 339.358 90.5015 339.752 90.0861C340.146 89.6706 340.409 89.1489 340.51 88.5853C340.611 88.0218 340.544 87.441 340.318 86.9149C340.093 86.3888 339.718 85.9403 339.24 85.6249C338.762 85.3094 338.202 85.1409 337.63 85.14C337.228 85.1319 336.829 85.2078 336.459 85.363C336.088 85.5182 335.754 85.7492 335.478 86.0412C335.202 86.3331 334.991 86.6796 334.857 87.0583C334.722 87.4369 334.669 87.8395 334.7 88.24V88.23Z" fill="white"/>
<path d="M353.47 93H351.4V91.14C351.094 91.7764 350.605 92.3069 349.996 92.6632C349.387 93.0196 348.684 93.1857 347.98 93.14C345.78 93.14 344.47 91.73 344.47 89.45V83.45H346.54V88.83C346.509 89.1346 346.545 89.4423 346.644 89.7318C346.744 90.0212 346.906 90.2855 347.118 90.5063C347.33 90.727 347.588 90.8989 347.873 91.0101C348.158 91.1212 348.464 91.169 348.77 91.15C349.145 91.1426 349.515 91.057 349.855 90.8987C350.196 90.7403 350.5 90.5127 350.747 90.2304C350.995 89.9481 351.18 89.6173 351.293 89.259C351.405 88.9008 351.442 88.5231 351.4 88.15V83.44H353.47V93Z" fill="white"/>
<path d="M358.29 92C358.29 92.3037 358.169 92.5949 357.955 92.8096C357.74 93.0244 357.449 93.145 357.145 93.145C356.841 93.145 356.55 93.0244 356.335 92.8096C356.121 92.5949 356 92.3037 356 92C355.985 91.842 356.004 91.6826 356.054 91.5321C356.104 91.3816 356.185 91.2432 356.292 91.1259C356.399 91.0085 356.529 90.9148 356.674 90.8506C356.819 90.7865 356.976 90.7534 357.135 90.7534C357.294 90.7534 357.451 90.7865 357.596 90.8506C357.741 90.9148 357.871 91.0085 357.978 91.1259C358.085 91.2432 358.166 91.3816 358.216 91.5321C358.267 91.6826 358.285 91.842 358.27 92H358.29ZM357.81 89H356.49L356.17 83.67V80.57H358.17V83.67L357.81 89Z" fill="white"/>
<path d="M113.85 72.33H392.96" stroke="#808080" stroke-miterlimit="10" stroke-linecap="round"/>
</g>
<defs>
<clipPath id="clip0_1602_108">
<rect width="394" height="111" fill="white"/>
</clipPath>
</defs>
</svg>
