<svg width="1440" height="308" viewBox="0 0 1440 308" fill="none" xmlns="http://www.w3.org/2000/svg">
<mask id="mask0" mask-type="alpha" maskUnits="userSpaceOnUse" x="0" y="0" width="1440" height="262">
<path d="M392 48.4999C327.083 43.3064 171.5 112 82.5 125.5C50.589 130.34 22.6418 129.135 3.8147e-06 125.34L0 88.5001V0H1440V115.58V151C1323.89 231.054 1184.07 262.001 1031.5 261.08C866 260.08 668.5 150.5 598 115C527.5 79.5 477.5 55.3401 392 48.4999Z" fill="black"/>
</mask>
<g mask="url(#mask0)">
<path opacity="0.61" d="M470 5.31718V-89.1428C451.24 -89.1428 436.39 -76.8628 429.68 -59.0728C427.253 -63.4468 423.825 -67.1843 419.677 -69.9798C415.529 -72.7753 410.778 -74.5494 405.812 -75.157C400.847 -75.7646 395.809 -75.1885 391.109 -73.4758C386.409 -71.7631 382.181 -68.9625 378.77 -65.3028C373.808 -77.9775 364.637 -88.5594 352.796 -95.2721C340.955 -101.985 327.166 -104.42 313.742 -102.168C300.318 -99.9167 288.077 -93.1157 279.075 -82.9068C270.072 -72.698 264.855 -59.7028 264.3 -46.1028C259.056 -47.3132 253.568 -46.8974 248.566 -44.9109C243.564 -42.9244 239.285 -39.4613 236.3 -34.9828C234.09 -42.3234 229.89 -48.9085 224.166 -54.0081C218.442 -59.1076 211.417 -62.5224 203.871 -63.8738C196.325 -65.2252 188.552 -64.4605 181.414 -61.6644C174.275 -58.8683 168.051 -54.1501 163.43 -48.0328C160.945 -58.5461 154.876 -67.8656 146.265 -74.3902C137.655 -80.9147 127.041 -84.237 116.248 -83.7862C105.454 -83.3353 95.1541 -79.1396 87.1178 -71.9198C79.0816 -64.6999 73.8106 -54.9068 72.2104 -44.2228C69.9451 -47.3064 67.0391 -49.8631 63.6921 -51.7172C60.3451 -53.5713 56.6363 -54.679 52.8207 -54.964C49.0051 -55.249 45.173 -54.7047 41.5876 -53.3684C38.0023 -52.0322 34.7487 -49.9356 32.0504 -47.2228C30.5519 -54.743 26.4935 -61.5114 20.5661 -66.3759C14.6386 -71.2405 7.2084 -73.9003 -0.459608 -73.9028C-5.88049 -73.9022 -11.2177 -72.5662 -15.9996 -70.0128C-15.8067 -71.3005 -15.7098 -72.6007 -15.7096 -73.9028C-15.7117 -78.773 -17.0558 -83.5484 -19.5943 -87.7047C-22.1329 -91.8609 -25.7677 -95.2372 -30.0996 -97.4628V5.31718H470Z" fill="#72B3E3"/>
<path d="M470 75.0075V-23.3025C445.24 -23.9325 432.2 -10.6125 424.31 1.69753C421.908 -7.81741 417.198 -16.594 410.598 -23.8567C403.998 -31.1195 395.711 -36.6448 386.468 -39.9443C377.226 -43.2439 367.313 -44.2161 357.606 -42.7752C347.899 -41.3342 338.696 -37.5245 330.81 -31.6825C330.88 -32.6325 330.92 -33.5825 330.92 -34.5425C330.906 -40.6831 329.561 -46.7475 326.977 -52.3181C324.393 -57.8886 320.633 -62.8328 315.954 -66.8099C311.275 -70.7871 305.79 -73.7026 299.876 -75.3556C293.962 -77.0087 287.76 -77.36 281.697 -76.3852C275.635 -75.4105 269.855 -73.133 264.758 -69.7096C259.66 -66.2861 255.365 -61.7982 252.169 -56.555C248.972 -51.3119 246.951 -45.4381 246.243 -39.3384C245.536 -33.2387 246.159 -27.0581 248.07 -21.2225C243.282 -25.0387 237.725 -27.7744 231.78 -29.242C225.836 -30.7097 219.644 -30.8745 213.629 -29.7252C207.615 -28.5759 201.92 -26.1397 196.936 -22.5835C191.951 -19.0274 187.794 -14.4354 184.75 -9.12247C179.689 -13.7866 173.119 -16.4751 166.24 -16.6972C159.361 -16.9194 152.632 -14.6603 147.28 -10.3325C142.836 -17.5082 136.352 -23.195 128.658 -26.6653C120.964 -30.1356 112.409 -31.2317 104.088 -29.8132C95.7679 -28.3948 88.0596 -24.5264 81.9498 -18.7028C75.8399 -12.8793 71.6063 -5.36544 69.7904 2.87753C63.4551 -4.8716 55.2746 -10.905 46 -14.6688C36.7254 -18.4326 26.6539 -19.8062 16.7101 -18.6634C6.76631 -17.5206 -2.73104 -13.8981 -10.91 -8.12837C-19.089 -2.35869 -25.6874 5.37324 -30.0996 14.3575V75.0075H470Z" fill="#7AB8E5"/>
<path d="M470 126.997V12.4472C443 12.4472 433.87 42.9473 431.11 67.0872C426.841 61.7016 421.403 57.3568 415.208 54.3812C409.013 51.4055 402.223 49.8767 395.35 49.9104C388.478 49.9441 381.703 51.5394 375.537 54.5757C369.371 57.6121 363.977 62.01 359.76 67.4373C355.778 59.0265 349.489 51.9196 341.625 46.9433C333.761 41.9669 324.646 39.3258 315.34 39.3272H315.23C315.29 38.3272 315.34 37.3872 315.34 36.3972C315.353 24.4426 310.647 12.9659 302.245 4.4617C293.843 -4.04252 282.424 -8.88697 270.47 -9.01873C258.516 -9.15048 246.993 -4.55889 238.406 3.75807C229.819 12.075 224.861 23.4452 224.61 35.3972C217.089 26.9846 207.632 20.5306 197.056 16.5932C186.481 12.6558 175.105 11.3535 163.913 12.799C152.722 14.2445 142.051 18.3942 132.822 24.8894C123.594 31.3846 116.087 40.0297 110.95 50.0772C105.034 44.5915 97.36 41.3884 89.2994 41.0403C81.2389 40.6923 73.3172 43.2219 66.9502 48.1772C64.1661 42.4367 60.2024 37.348 55.3178 33.2435C50.4333 29.1391 44.7378 26.1112 38.6034 24.3577C32.469 22.6042 26.0337 22.1646 19.7179 23.0674C13.402 23.9702 7.34762 26.1953 1.9502 29.5973C0.662794 21.0617 -3.03131 13.0701 -8.699 6.55931C-14.3667 0.048542 -21.7731 -4.7115 -30.0498 -7.16275V126.997H470Z" fill="#82BCE7"/>
<path d="M470 199.967V84.0675C451.09 84.0675 434.49 98.2775 431.5 113.437C426.186 107.826 419.071 104.258 411.396 103.356C403.72 102.453 395.972 104.273 389.5 108.497C387.331 99.1176 382.508 90.56 375.608 83.8459C368.708 77.1318 360.022 72.5449 350.587 70.6324C341.151 68.72 331.364 69.5628 322.395 73.0604C313.425 76.558 305.651 82.5625 300 90.3575C296.975 80.1339 290.41 71.3208 281.48 65.4961C272.55 59.6713 261.838 57.2152 251.262 58.5674C240.686 59.9195 230.937 64.9918 223.76 72.876C216.583 80.7602 212.446 90.9416 212.09 101.597C208.239 98.7952 203.826 96.8599 199.156 95.9247C194.485 94.9894 189.667 95.0763 185.034 96.1794C180.4 97.2825 176.06 99.3756 172.312 102.315C168.564 105.254 165.496 108.97 163.32 113.207C156.602 105.203 147.553 99.4954 137.435 96.8816C127.317 94.2678 116.635 94.8782 106.88 98.6275C107.435 96.2032 107.717 93.7244 107.72 91.2375C107.74 83.5515 105.077 76.0996 100.189 70.1677C95.302 64.2358 88.4973 60.1959 80.9494 58.7451C73.4016 57.2943 65.5841 58.5237 58.8459 62.221C52.1076 65.9184 46.8713 71.8518 44.0404 78.9975C39.3957 72.564 33.2891 67.326 26.2234 63.7149C19.1578 60.1038 11.3353 58.2231 3.40039 58.2275C-8.96884 58.2132 -20.9043 62.7843 -30.0996 71.0575V199.967H470Z" fill="#8EC2E9"/>
<path d="M470 253.047V140.777C442.48 140.777 430.35 154.977 418.8 171.777C408.342 166.475 396.23 165.452 385.03 168.926C373.83 172.399 364.422 180.097 358.8 190.387C354.707 186.242 349.519 183.347 343.842 182.04C338.165 180.734 332.234 181.069 326.74 183.007C329.953 171.48 328.456 159.148 322.576 148.725C316.697 138.301 306.918 130.64 295.39 127.427C289.682 125.836 283.717 125.385 277.835 126.1C271.953 126.814 266.269 128.68 261.108 131.591C250.684 137.471 243.023 147.25 239.81 158.777C236.237 155.744 232.017 153.568 227.473 152.416C222.929 151.264 218.182 151.167 213.595 152.132C209.008 153.097 204.703 155.099 201.008 157.984C197.314 160.869 194.328 164.561 192.28 168.777C186.723 161.673 179.163 156.399 170.577 153.637C161.991 150.874 152.774 150.75 144.117 153.281C135.459 155.811 127.76 160.88 122.013 167.832C116.267 174.783 112.737 183.299 111.88 192.277C100.044 178.377 83.4028 169.449 65.2757 167.275C47.1486 165.101 28.868 169.84 14.0804 180.547C11.982 170.38 6.44158 161.247 -1.60651 154.689C-9.65459 148.131 -19.718 144.549 -30.0996 144.547V253.047H470Z" fill="#9DCBEC"/>
<path d="M470 272.698V151.288C457.12 151.288 444.51 169.538 444.51 184.388C444.513 186.275 444.653 188.16 444.93 190.028C438.2 186.428 435.24 185.398 427.08 185.398C415.974 185.397 405.212 189.248 396.627 196.294C388.042 203.34 382.166 213.145 380 224.038C376.097 220.106 371.388 217.065 366.198 215.125C361.008 213.186 355.459 212.392 349.933 212.8C344.407 213.207 339.035 214.806 334.186 217.487C329.337 220.167 325.125 223.865 321.84 228.328C319.52 212.854 311.882 198.673 300.24 188.22C288.598 177.767 273.678 171.695 258.045 171.049C242.412 170.403 227.042 175.222 214.577 184.679C202.112 194.135 193.33 207.639 189.74 222.868C183.048 214 174.03 207.16 163.687 203.106C153.343 199.052 142.079 197.942 131.144 199.901C120.208 201.86 110.029 206.81 101.736 214.202C93.4422 221.593 87.3589 231.138 84.1604 241.778C78.9411 233.969 71.0422 228.343 61.9566 225.962C52.8711 223.582 43.2282 224.612 34.8504 228.858C31.2323 216.335 23.6427 205.326 13.225 197.492C2.80722 189.657 -9.87444 185.419 -22.9096 185.418C-25.3132 185.421 -27.7144 185.571 -30.0996 185.868V272.718L470 272.698Z" fill="#A6CFEE"/>
<path opacity="0.61" d="M470 5.31718V-89.1428C488.66 -89.1428 503.6 -76.8628 510.31 -59.0728C512.737 -63.4468 516.165 -67.1843 520.313 -69.9798C524.462 -72.7753 529.213 -74.5494 534.178 -75.157C539.143 -75.7646 544.182 -75.1885 548.882 -73.4758C553.582 -71.7631 557.81 -68.9625 561.22 -65.3028C566.182 -77.9775 575.353 -88.5594 587.194 -95.2721C599.035 -101.985 612.825 -104.42 626.249 -102.168C639.672 -99.9167 651.913 -93.1157 660.916 -82.9068C669.918 -72.698 675.135 -59.7028 675.69 -46.1028C680.934 -47.3103 686.422 -46.8932 691.423 -44.9069C696.425 -42.9206 700.703 -39.4592 703.69 -34.9828C705.9 -42.3234 710.101 -48.9085 715.825 -54.0081C721.549 -59.1076 728.573 -62.5224 736.12 -63.8738C743.666 -65.2252 751.439 -64.4605 758.577 -61.6644C765.715 -58.8683 771.939 -54.1501 776.56 -48.0328C779.075 -58.5114 785.152 -67.7908 793.752 -74.2843C802.352 -80.7779 812.941 -84.0821 823.707 -83.6322C834.474 -83.1822 844.75 -79.0058 852.778 -71.8174C860.807 -64.6289 866.088 -54.8747 867.72 -44.2228C869.985 -47.3064 872.891 -49.8631 876.238 -51.7172C879.585 -53.5713 883.294 -54.679 887.11 -54.964C890.925 -55.249 894.757 -54.7047 898.343 -53.3684C901.928 -52.0322 905.182 -49.9356 907.88 -47.2228C908.89 -52.2978 911.074 -57.0659 914.256 -61.1459C917.439 -65.2258 921.532 -68.5043 926.209 -70.7191C930.885 -72.934 936.015 -74.0237 941.188 -73.901C946.361 -73.7784 951.434 -72.4468 956 -70.0128C955.807 -71.3005 955.71 -72.6007 955.71 -73.9028C955.71 -84.1628 959.02 -97.4628 970.05 -97.4628V5.31718H470Z" fill="#72B3E3"/>
<path d="M470 75.0073V-23.3027C487.72 -23.3027 504 -17.4627 515.68 1.69731C518.083 -7.81762 522.792 -16.5942 529.392 -23.857C535.992 -31.1197 544.28 -36.645 553.522 -39.9445C562.764 -43.2441 572.677 -44.2163 582.384 -42.7754C592.092 -41.3345 601.295 -37.5247 609.18 -31.6827C609.12 -32.6327 609.07 -33.5827 609.07 -34.5427C609.058 -40.699 610.384 -46.7844 612.957 -52.3775C615.529 -57.9705 619.287 -62.9375 623.969 -66.9346C628.651 -70.9317 634.147 -73.8634 640.074 -75.5265C646.001 -77.1896 652.22 -77.5445 658.298 -76.5666C664.376 -75.5887 670.169 -73.3013 675.276 -69.8629C680.382 -66.4245 684.68 -61.9173 687.873 -56.6533C691.065 -51.3892 693.075 -45.4943 693.763 -39.3765C694.452 -33.2588 693.802 -27.0646 691.86 -21.2227C696.648 -25.0389 702.205 -27.7747 708.15 -29.2423C714.095 -30.7099 720.287 -30.8747 726.301 -29.7254C732.315 -28.5761 738.01 -26.1399 742.995 -22.5837C747.979 -19.0276 752.136 -14.4357 755.18 -9.12268C760.243 -13.7876 766.814 -16.4764 773.695 -16.6986C780.576 -16.9207 787.307 -14.6613 792.66 -10.3327C797.103 -17.5095 803.586 -23.1975 811.279 -26.6687C818.973 -30.1399 827.528 -31.2363 835.848 -29.8177C844.169 -28.3991 851.877 -24.53 857.986 -18.7055C864.095 -12.881 868.327 -5.36616 870.14 2.87732C876.476 -4.86506 884.655 -10.8925 893.926 -14.6521C903.198 -18.4117 913.264 -19.7831 923.204 -18.6405C933.143 -17.4979 942.636 -13.8778 950.812 -8.11244C958.988 -2.34706 965.586 5.3791 970 14.3573V75.0073H470Z" fill="#7AB8E5"/>
<path d="M470 126.997V12.4472C499.87 12.4472 506.12 42.9473 508.88 67.0872C513.149 61.7016 518.587 57.3568 524.782 54.3812C530.977 51.4055 537.768 49.8767 544.64 49.9104C551.513 49.9441 558.288 51.5394 564.453 54.5757C570.619 57.6121 576.014 62.01 580.23 67.4373C584.214 59.0257 590.505 51.9184 598.37 46.9421C606.236 41.9658 615.353 39.3251 624.66 39.3272H624.76C624.7 38.3272 624.66 37.3872 624.66 36.3972C624.647 24.4426 629.353 12.9659 637.755 4.4617C646.157 -4.04252 657.576 -8.88697 669.53 -9.01873C681.484 -9.15048 693.007 -4.55889 701.594 3.75807C710.182 12.075 715.139 23.4452 715.39 35.3972C722.915 26.9968 732.372 20.5545 742.944 16.6267C753.516 12.6988 764.885 11.4036 776.07 12.8527C787.254 14.3018 797.918 18.4518 807.14 24.9443C816.361 31.4367 823.864 40.0764 829 50.1172C834.916 44.6315 842.59 41.4284 850.651 41.0803C858.711 40.7323 866.633 43.2619 873 48.2173C875.783 42.4756 879.746 37.3857 884.63 33.2804C889.515 29.175 895.211 26.1466 901.345 24.3929C907.48 22.6393 913.916 22.2 920.232 23.1037C926.549 24.0074 932.603 26.2337 938 29.6372C940.63 12.0672 952.37 -7.12274 970 -7.12274V126.997H470Z" fill="#82BCE7"/>
<path d="M470 199.967V84.0674C488.59 84.0674 505.51 98.2773 508.49 113.437C513.804 107.826 520.919 104.258 528.595 103.356C536.27 102.453 544.019 104.272 550.49 108.497C552.662 99.1244 557.484 90.5739 564.38 83.8653C571.277 77.1567 579.958 72.5732 589.387 70.6611C598.816 68.7491 608.597 69.5893 617.562 73.0816C626.527 76.5738 634.299 82.5708 639.95 90.3573C642.981 80.1385 649.549 71.3314 658.479 65.5112C667.408 59.6909 678.117 57.2372 688.69 58.5889C699.263 59.9405 709.01 65.0094 716.188 72.8889C723.366 80.7685 727.507 90.9446 727.87 101.597C731.721 98.7969 736.133 96.8631 740.803 95.9288C745.472 94.9945 750.288 95.0819 754.921 96.1849C759.553 97.2879 763.892 99.3805 767.64 102.319C771.387 105.257 774.454 108.972 776.63 113.207C783.343 105.217 792.381 99.5188 802.484 96.9056C812.588 94.2923 823.255 94.8942 833 98.6273C832.445 96.203 832.164 93.7243 832.16 91.2373C832.14 83.5514 834.804 76.0995 839.691 70.1676C844.578 64.2357 851.383 60.1958 858.931 58.745C866.479 57.2942 874.296 58.5236 881.035 62.2209C887.773 65.9183 893.009 71.8517 895.84 78.9973C904.96 66.4173 925.84 47.2773 969.99 47.2773V199.967H470Z" fill="#8EC2E9"/>
<path d="M470 253.048V140.778C498.45 140.778 509.64 154.978 521.2 171.778C531.658 166.472 543.771 165.448 554.972 168.922C566.172 172.396 575.58 180.095 581.2 190.388C585.295 186.242 590.484 183.346 596.163 182.039C601.842 180.733 607.775 181.068 613.27 183.008C610.517 171.641 612.285 159.65 618.203 149.562C624.121 139.474 633.725 132.08 644.99 128.937C656.255 125.794 668.3 127.149 678.585 132.716C688.87 138.283 696.592 147.627 700.12 158.778C703.693 155.744 707.913 153.568 712.457 152.416C717.001 151.264 721.748 151.167 726.335 152.132C730.922 153.097 735.228 155.099 738.922 157.984C742.617 160.869 745.602 164.561 747.65 168.778C753.209 161.675 760.77 156.403 769.356 153.641C777.942 150.879 787.159 150.756 795.817 153.286C804.474 155.816 812.174 160.883 817.921 167.834C823.669 174.785 827.201 183.299 828.06 192.278C839.896 178.377 856.538 169.449 874.665 167.275C892.792 165.101 911.072 169.84 925.86 180.548C927.958 170.382 933.497 161.251 941.543 154.693C949.589 148.135 959.65 144.552 970.03 144.548V253.048H470Z" fill="#9DCBEC"/>
<path d="M470 272.698V151.288C484.52 151.288 496.08 169.538 496.08 184.388C496.077 186.275 495.937 188.16 495.66 190.028C502.39 186.428 504.76 185.398 512.92 185.398C524.026 185.397 534.789 189.248 543.373 196.294C551.958 203.34 557.834 213.145 560 224.038C563.904 220.106 568.613 217.065 573.803 215.125C578.993 213.186 584.541 212.392 590.067 212.8C595.593 213.207 600.965 214.806 605.814 217.487C610.664 220.167 614.875 223.865 618.16 228.328C620.486 212.857 628.127 198.68 639.77 188.23C651.412 177.781 666.33 171.712 681.961 171.066C697.592 170.42 712.96 175.237 725.425 184.69C737.891 194.143 746.675 207.642 750.27 222.868C756.965 214.019 765.979 207.196 776.313 203.154C786.647 199.112 797.897 198.009 808.82 199.966C819.742 201.924 829.909 206.866 838.196 214.246C846.482 221.625 852.565 231.154 855.77 241.778C860.989 233.969 868.888 228.343 877.974 225.962C887.059 223.582 896.702 224.612 905.08 228.858C912.31 203.778 930.69 182.778 970 182.778V272.688L470 272.698Z" fill="#A6CFEE"/>
<path opacity="0.61" d="M1470.1 5.31742V-95.4926C1460.97 -93.0616 1452.55 -88.4899 1445.54 -82.1564C1438.53 -75.8228 1433.12 -67.9097 1429.78 -59.0726C1427.35 -63.4466 1423.93 -67.1841 1419.78 -69.9796C1415.63 -72.775 1410.88 -74.5491 1405.91 -75.1567C1400.95 -75.7643 1395.91 -75.1883 1391.21 -73.4756C1386.51 -71.7629 1382.28 -68.9622 1378.87 -65.3026C1373.91 -77.9808 1364.74 -88.5669 1352.9 -95.2827C1341.06 -101.998 1327.27 -104.435 1313.84 -102.183C1300.42 -99.9309 1288.18 -93.1275 1279.17 -82.9154C1270.17 -72.7033 1264.96 -59.7046 1264.41 -46.1026C1262.47 -46.5447 1260.49 -46.7695 1258.5 -46.7726C1254.14 -46.7755 1249.84 -45.7008 1245.99 -43.6441C1242.14 -41.5873 1238.86 -38.6121 1236.44 -34.9826C1234.23 -42.3232 1230.03 -48.9083 1224.31 -54.0078C1218.58 -59.1074 1211.56 -62.5222 1204.01 -63.8736C1196.46 -65.225 1188.69 -64.4603 1181.55 -61.6642C1174.42 -58.8681 1168.19 -54.1498 1163.57 -48.0326C1161.09 -58.546 1155.02 -67.867 1146.42 -74.3945C1137.81 -80.922 1127.2 -84.2484 1116.4 -83.8023C1105.61 -83.3562 1095.31 -79.1655 1087.27 -71.9501C1079.23 -64.7347 1073.96 -54.9449 1072.35 -44.2626C1070.08 -47.3464 1067.18 -49.9032 1063.83 -51.7574C1060.48 -53.6116 1056.77 -54.7192 1052.96 -55.0042C1049.14 -55.2892 1045.31 -54.7449 1041.72 -53.4085C1038.13 -52.0722 1034.88 -49.9756 1032.18 -47.2626C1031.17 -52.3344 1028.99 -57.0997 1025.81 -61.1775C1022.63 -65.2553 1018.54 -68.5325 1013.86 -70.7472C1009.19 -72.9618 1004.06 -74.0524 998.895 -73.9318C993.725 -73.8112 988.655 -72.4827 984.09 -70.0526C984.275 -71.3411 984.368 -72.6409 984.37 -73.9426C984.37 -84.2026 981.74 -97.5026 970.03 -97.5026V5.31742H1470.1Z" fill="#72B3E3"/>
<path d="M1470.1 75.0073V-5.22267C1462.63 -8.59949 1454.34 -9.74197 1446.23 -8.51231C1438.12 -7.28265 1430.55 -3.73338 1424.41 1.70732C1422.01 -7.80742 1417.3 -16.5841 1410.7 -23.847C1404.1 -31.1099 1395.82 -36.6354 1386.57 -39.9351C1377.33 -43.2348 1367.42 -44.2071 1357.71 -42.766C1348.01 -41.3249 1338.8 -37.5149 1330.92 -31.6727C1330.98 -32.6227 1331.02 -33.5727 1331.02 -34.5327C1331.02 -40.6816 1329.69 -46.7574 1327.11 -52.3401C1324.53 -57.9229 1320.77 -62.8797 1316.09 -66.868C1311.41 -70.8563 1305.92 -73.781 1300 -75.4401C1294.08 -77.0992 1287.87 -77.4531 1281.8 -76.4774C1275.73 -75.5018 1269.94 -73.2197 1264.84 -69.789C1259.74 -66.3583 1255.44 -61.8606 1252.24 -56.6068C1249.05 -51.3529 1247.03 -45.4681 1246.33 -39.3589C1245.64 -33.2498 1246.27 -27.0618 1248.2 -21.2227C1243.41 -25.0404 1237.86 -27.7775 1231.91 -29.2459C1225.97 -30.7144 1219.78 -30.8796 1213.76 -29.7302C1207.75 -28.5808 1202.05 -26.1439 1197.07 -22.5868C1192.09 -19.0298 1187.93 -14.4367 1184.89 -9.12267C1179.83 -13.7875 1173.26 -16.4764 1166.38 -16.6985C1159.49 -16.9207 1152.76 -14.6613 1147.41 -10.3327C1142.97 -17.5084 1136.48 -23.1952 1128.79 -26.6655C1121.09 -30.1358 1112.54 -31.2318 1104.22 -29.8134C1095.9 -28.395 1088.19 -24.5266 1082.08 -18.703C1075.97 -12.8795 1071.74 -5.36564 1069.92 2.87733C1063.59 -4.87856 1055.4 -10.918 1046.13 -14.686C1036.85 -18.454 1026.77 -19.8298 1016.82 -18.6868C1006.87 -17.5438 997.373 -13.9187 989.191 -8.14473C981.01 -2.37075 974.41 5.36696 970 14.3573V75.0073H1470.1Z" fill="#7AB8E5"/>
<path d="M1470.1 126.997V12.4472C1459.54 17.539 1450.43 25.218 1443.64 34.7708C1436.84 44.3236 1432.56 55.44 1431.21 67.0872C1426.94 61.7016 1421.5 57.3568 1415.31 54.3812C1409.11 51.4055 1402.32 49.8767 1395.45 49.9104C1388.58 49.9441 1381.8 51.5394 1375.64 54.5757C1369.47 57.6121 1364.08 62.01 1359.86 67.4373C1355.88 59.0265 1349.59 51.9196 1341.73 46.9433C1333.86 41.9669 1324.75 39.3258 1315.44 39.3272H1315.33C1315.4 38.3272 1315.44 37.3872 1315.44 36.3972C1315.45 24.4426 1310.75 12.9659 1302.35 4.4617C1293.94 -4.04252 1282.52 -8.88697 1270.57 -9.01873C1258.62 -9.15048 1247.09 -4.55889 1238.51 3.75807C1229.92 12.075 1224.96 23.4452 1224.71 35.3972C1217.19 26.9846 1207.73 20.5306 1197.16 16.5932C1186.58 12.6558 1175.21 11.3535 1164.01 12.799C1152.82 14.2445 1142.15 18.3942 1132.92 24.8894C1123.69 31.3846 1116.19 40.0297 1111.05 50.0772C1105.13 44.5915 1097.46 41.3884 1089.4 41.0403C1081.34 40.6923 1073.42 43.2219 1067.05 48.1772C1064.27 42.4355 1060.3 37.3457 1055.42 33.2404C1050.54 29.135 1044.84 26.1066 1038.71 24.3529C1032.57 22.5993 1026.13 22.16 1019.82 23.0637C1013.5 23.9674 1007.45 26.1937 1002.05 29.5973C999.421 12.0273 990.441 -7.16275 970.051 -7.16275V126.997H1470.1Z" fill="#82BCE7"/>
<path d="M1470.1 199.967V87.4073C1461.55 85.7908 1452.71 87.6156 1445.5 92.4848C1438.29 97.354 1433.29 104.874 1431.6 113.407C1426.29 107.796 1419.17 104.228 1411.5 103.326C1403.82 102.423 1396.07 104.242 1389.6 108.467C1387.43 99.0947 1382.6 90.5449 1375.71 83.837C1368.81 77.1292 1360.13 72.5461 1350.7 70.6343C1341.27 68.7224 1331.49 69.5624 1322.52 73.054C1313.56 76.5456 1305.78 82.5416 1300.13 90.3273C1297.11 80.1037 1290.54 71.2907 1281.61 65.4659C1272.68 59.6412 1261.97 57.185 1251.39 58.5372C1240.82 59.8894 1231.07 64.9616 1223.89 72.8459C1216.71 80.7301 1212.58 90.9115 1212.22 101.567C1208.37 98.7651 1203.96 96.8298 1199.29 95.8946C1194.62 94.9593 1189.8 95.0462 1185.16 96.1493C1180.53 97.2524 1176.19 99.3455 1172.44 102.285C1168.69 105.224 1165.63 108.94 1163.45 113.177C1156.73 105.176 1147.68 99.4729 1137.56 96.8645C1127.44 94.2561 1116.75 94.8724 1107 98.6273C1108.9 90.5103 1107.66 81.9747 1103.52 74.7359C1099.39 67.4971 1092.67 62.0915 1084.71 59.6054C1076.75 57.1193 1068.15 57.737 1060.63 61.3343C1053.11 64.9317 1047.23 71.2421 1044.17 78.9973C1035.05 66.4173 1012.82 47.2773 970.011 47.2773V199.967H1470.1Z" fill="#8EC2E9"/>
<path d="M1470.1 253.047V140.777C1459.85 142.008 1449.99 145.41 1441.16 150.756C1432.33 156.101 1424.74 163.268 1418.9 171.777C1408.44 166.472 1396.33 165.448 1385.13 168.922C1373.93 172.396 1364.52 180.095 1358.9 190.387C1354.81 186.241 1349.62 183.346 1343.94 182.039C1338.26 180.732 1332.33 181.068 1326.83 183.007C1329.8 171.564 1328.16 159.413 1322.26 149.168C1316.36 138.924 1306.67 131.405 1295.28 128.229C1283.89 125.054 1271.72 126.475 1261.37 132.189C1251.02 137.902 1243.32 147.449 1239.94 158.777C1236.37 155.744 1232.15 153.568 1227.61 152.416C1223.06 151.264 1218.32 151.167 1213.73 152.132C1209.14 153.097 1204.84 155.099 1201.15 157.984C1197.45 160.869 1194.47 164.561 1192.42 168.777C1186.86 161.675 1179.3 156.402 1170.71 153.641C1162.13 150.879 1152.91 150.755 1144.25 153.285C1135.6 155.815 1127.9 160.883 1122.15 167.834C1116.4 174.785 1112.87 183.299 1112.01 192.277C1100.17 178.377 1083.53 169.449 1065.41 167.275C1047.28 165.101 1029 169.84 1014.21 180.547C1012.11 170.38 1006.57 161.247 998.523 154.689C990.475 148.131 980.412 144.549 970.03 144.547V253.047H1470.1Z" fill="#9DCBEC"/>
<path d="M1470.1 272.698V151.288C1463.84 154.521 1458.6 159.414 1454.93 165.43C1451.27 171.446 1449.33 178.354 1449.33 185.398C1449.33 187.285 1449.47 189.17 1449.75 191.038C1443.14 187.513 1435.8 185.585 1428.31 185.408C1420.82 185.231 1413.39 186.809 1406.62 190.016C1399.85 193.223 1393.92 197.97 1389.32 203.878C1384.71 209.786 1381.55 216.69 1380.09 224.038C1376.19 220.106 1371.48 217.065 1366.29 215.125C1361.1 213.186 1355.55 212.392 1350.02 212.8C1344.5 213.207 1339.12 214.806 1334.28 217.487C1329.43 220.167 1325.21 223.865 1321.93 228.328C1319.61 212.854 1311.97 198.673 1300.33 188.22C1288.69 177.767 1273.77 171.695 1258.13 171.049C1242.5 170.403 1227.13 175.222 1214.67 184.679C1202.2 194.135 1193.42 207.639 1189.83 222.868C1183.14 214.011 1174.12 207.181 1163.78 203.134C1153.44 199.087 1142.19 197.982 1131.26 199.94C1120.33 201.898 1110.16 206.843 1101.87 214.228C1093.58 221.612 1087.49 231.148 1084.29 241.778C1079.07 233.971 1071.18 228.344 1062.1 225.96C1053.02 223.575 1043.38 224.599 1035 228.838C1027.75 203.778 1003 182.778 970 182.778V272.688L1470.1 272.698Z" fill="#A6CFEE"/>
<path d="M392 48.4999C327.083 43.3064 171.5 112 82.5 125.5C50.589 130.34 22.6418 129.135 3.8147e-06 125.34L0 88.5001V0H1440V115.58V151C1323.89 231.054 1184.07 262.001 1031.5 261.08C866 260.08 668.5 150.5 598 115C527.5 79.5 477.5 55.3401 392 48.4999Z" fill="url(#paint0_linear)"/>
</g>
<g style="mix-blend-mode:multiply">
<path d="M1051.69 307.535C1085.21 307.535 1112.39 303.704 1112.39 298.979C1112.39 294.253 1085.21 290.422 1051.69 290.422C1018.16 290.422 990.986 294.253 990.986 298.979C990.986 303.704 1018.16 307.535 1051.69 307.535Z" fill="#CFE1EC"/>
</g>
<path d="M1033.34 264.798L1029.6 263.611L1019.34 296.067C1017.7 294.835 1015.91 293.804 1014.01 292.999C1009.94 291.341 1004.54 292.999 1006.04 293.626L1021.72 299.673C1022.03 299.673 1022.17 299.673 1022.23 299.494L1033.34 264.798Z" fill="#231F20"/>
<path d="M1068.55 295.888C1066.28 295.979 1064.03 296.317 1061.83 296.896L1069.23 265.269L1065.33 264.261C1065.33 264.552 1056.88 299.718 1057.18 299.718H1075.9C1077.72 299.673 1073.15 295.798 1068.55 295.888Z" fill="#231F20"/>
<path d="M1148.2 219.06C1146.82 219.06 1145.96 219.799 1143.39 221.636C1143.01 219.678 1142.37 217.779 1141.48 215.991C1141.37 215.762 1141.21 215.557 1141.01 215.39C1140.82 215.222 1140.59 215.095 1140.35 215.015C1140.1 214.935 1139.84 214.904 1139.59 214.923C1139.33 214.943 1139.08 215.013 1138.85 215.129C1138.62 215.245 1138.42 215.405 1138.25 215.6C1138.08 215.795 1137.96 216.022 1137.88 216.266C1137.8 216.51 1137.77 216.768 1137.78 217.025C1137.8 217.281 1137.87 217.531 1137.99 217.761C1143.57 228.781 1135.97 245.087 1133.71 246.431C1133.47 246.569 1133.2 246.641 1132.93 246.641C1132.65 246.641 1132.38 246.569 1132.14 246.431C1126.84 244.191 1122.33 229.744 1120.72 221.188L1116.85 221.86C1117.32 224.323 1121.62 246.162 1130.58 250.015C1131.28 250.327 1132.04 250.494 1132.82 250.508C1133.8 250.501 1134.76 250.23 1135.59 249.724C1140.9 246.565 1142.74 235.702 1143.39 230.326C1146.03 230.483 1148.83 230.797 1149.88 229.654C1153.56 225.69 1151.68 219.329 1148.2 219.06Z" fill="#231F20"/>
<path d="M1051.62 267.957H1050.05C1031.86 267.54 1014.43 260.52 1001.03 248.206C987.629 235.892 979.163 219.124 977.211 201.029V200.492C976.942 190.927 977.076 182.864 977.211 175.069C977.345 167.274 977.457 159.524 977.211 150.296C977.184 149.367 977.341 148.443 977.672 147.575C978.004 146.707 978.503 145.913 979.142 145.239C979.781 144.565 980.547 144.023 981.395 143.646C982.244 143.268 983.159 143.062 984.087 143.039H984.244C986.102 143.014 987.896 143.722 989.237 145.009C990.578 146.295 991.359 148.057 991.412 149.915C991.68 159.457 991.546 167.521 991.412 175.315C991.277 183.11 991.165 190.703 991.412 199.82C992.984 215.255 1000.45 229.489 1012.24 239.564C1024.04 249.638 1039.27 254.777 1054.76 253.912C1070.25 253.047 1084.81 246.243 1095.42 234.917C1106.02 223.591 1111.85 208.614 1111.69 193.1V150.542C1111.66 148.666 1112.36 146.851 1113.64 145.477C1114.91 144.103 1116.67 143.277 1118.55 143.173C1119.5 143.149 1120.44 143.316 1121.33 143.666C1122.21 144.015 1123.02 144.538 1123.69 145.205C1124.37 145.872 1124.91 146.668 1125.27 147.547C1125.63 148.425 1125.81 149.368 1125.8 150.318V197.781C1125.84 203.582 1125.01 209.355 1123.36 214.917C1118.65 230.269 1109.14 243.707 1096.23 253.254C1083.31 262.801 1067.68 267.954 1051.62 267.957Z" fill="white"/>
<path d="M1051.37 145.995C1049.5 145.995 1047.7 145.249 1046.37 143.922C1045.04 142.594 1044.3 140.794 1044.3 138.917V55.078C1044.3 53.2008 1045.04 51.4005 1046.37 50.0731C1047.7 48.7457 1049.5 48 1051.37 48C1053.25 48 1055.05 48.7457 1056.38 50.0731C1057.71 51.4005 1058.45 53.2008 1058.45 55.078V138.917C1058.45 140.792 1057.7 142.589 1056.37 143.915C1055.05 145.241 1053.25 145.989 1051.37 145.995Z" fill="white"/>
<path d="M1016.05 149.265C1014.17 149.259 1012.38 148.511 1011.05 147.185C1009.73 145.859 1008.98 144.062 1008.97 142.187V72.6386C1008.97 70.7614 1009.72 68.961 1011.04 67.6337C1012.37 66.3063 1014.17 65.5605 1016.05 65.5605C1017.93 65.5605 1019.73 66.3063 1021.05 67.6337C1022.38 68.961 1023.13 70.7614 1023.13 72.6386V142.187C1023.12 144.062 1022.37 145.859 1021.05 147.185C1019.72 148.511 1017.93 149.259 1016.05 149.265Z" fill="white"/>
<path d="M1087.97 147.518C1086.12 147.494 1084.35 146.741 1083.04 145.42C1081.74 144.099 1081.01 142.318 1081.01 140.462V73.9155C1080.95 72.954 1081.1 71.9916 1081.43 71.0871C1081.76 70.1826 1082.27 69.3552 1082.93 68.6553C1083.59 67.9555 1084.39 67.398 1085.27 67.017C1086.16 66.636 1087.11 66.4395 1088.07 66.4395C1089.04 66.4395 1089.99 66.636 1090.87 67.017C1091.76 67.398 1092.56 67.9555 1093.22 68.6553C1093.88 69.3552 1094.39 70.1826 1094.72 71.0871C1095.05 71.9916 1095.2 72.954 1095.14 73.9155V140.462C1095.14 141.398 1094.95 142.325 1094.59 143.189C1094.23 144.052 1093.7 144.835 1093.03 145.491C1092.37 146.148 1091.58 146.666 1090.71 147.013C1089.84 147.361 1088.91 147.533 1087.97 147.518Z" fill="white"/>
<path d="M1051.37 150.318C1041.83 150.318 1032.5 153.148 1024.57 158.449C1016.63 163.75 1010.45 171.286 1006.8 180.102C1003.15 188.918 1002.19 198.618 1004.05 207.977C1005.91 217.336 1010.51 225.933 1017.26 232.681C1024 239.428 1032.6 244.023 1041.96 245.885C1051.32 247.747 1061.02 246.791 1069.84 243.139C1078.65 239.488 1086.19 233.304 1091.49 225.37C1096.79 217.435 1099.62 208.107 1099.62 198.565C1099.61 185.773 1094.52 173.508 1085.48 164.462C1076.43 155.417 1064.17 150.33 1051.37 150.318ZM1051.37 236.531C1043.84 236.531 1036.48 234.298 1030.22 230.114C1023.96 225.93 1019.08 219.983 1016.19 213.025C1013.31 206.067 1012.56 198.411 1014.03 191.024C1015.5 183.638 1019.12 176.853 1024.45 171.528C1029.77 166.202 1036.56 162.576 1043.94 161.107C1051.33 159.637 1058.99 160.391 1065.94 163.273C1072.9 166.155 1078.85 171.036 1083.03 177.298C1087.22 183.56 1089.45 190.922 1089.45 198.453C1089.45 208.552 1085.44 218.237 1078.3 225.378C1071.16 232.519 1061.47 236.531 1051.37 236.531Z" fill="white"/>
<path d="M1003.75 246.006C993.876 242.086 976.472 243.811 973.358 240.63C973.197 240.453 973.076 240.244 973.003 240.016C972.929 239.788 972.905 239.547 972.933 239.309C973.134 235.277 979.093 228.311 983.572 224.414L982.206 220.718C980.884 221.771 969.349 232.007 969.013 239.04C968.961 239.807 969.067 240.577 969.325 241.302C969.583 242.026 969.988 242.69 970.514 243.251C973.918 246.812 989.172 247.484 997.594 247.574C996.929 247.951 996.344 248.453 995.869 249.052C994.122 251.292 996.295 251.427 996.295 251.427C995.992 251.955 995.8 252.539 995.731 253.143C995.662 253.748 995.716 254.36 995.892 254.943C996.948 255.99 998.314 256.669 999.787 256.878C1001.26 257.088 1002.76 256.818 1004.07 256.108C1007.83 253.465 1006.53 247.104 1003.75 246.006Z" fill="#231F20"/>
<path d="M1060.04 210.011C1058.77 208.622 1055.97 209.831 1051.64 209.831C1047.32 209.831 1044.41 208.644 1043.18 210.011C1042.92 210.32 1042.73 210.679 1042.63 211.065C1042.52 211.45 1042.49 211.854 1042.55 212.251C1042.57 212.44 1042.61 212.627 1042.66 212.81C1043.31 215.342 1046.27 216.73 1051.15 216.887H1051.6C1052.42 216.884 1053.23 216.809 1054.04 216.663C1057.91 215.924 1060.36 215.028 1060.76 212.766C1060.77 212.579 1060.77 212.392 1060.76 212.206C1060.81 211.409 1060.55 210.625 1060.04 210.011Z" fill="white"/>
<g style="mix-blend-mode:multiply">
<path d="M1051.64 210.436C1059.75 210.436 1061.81 210.078 1059.03 212.676C1059.84 212.519 1060.44 212.34 1060.85 212.228C1060.88 211.404 1060.59 210.6 1060.04 209.988C1058.77 208.599 1055.97 209.809 1051.64 209.809C1047.32 209.809 1044.41 208.622 1043.18 209.988C1042.92 210.298 1042.73 210.657 1042.63 211.042C1042.52 211.428 1042.49 211.832 1042.55 212.228C1042.88 212.228 1043.33 212.452 1043.91 212.586C1040.49 208.823 1047.41 210.436 1051.64 210.436Z" fill="#B9B9B9"/>
</g>
<g style="mix-blend-mode:multiply">
<path d="M1044.27 213.102L1042.66 212.9C1043.31 215.431 1046.27 216.82 1051.15 216.977C1044.5 216.238 1044.25 213.908 1044.27 213.102Z" fill="#B9B9B9"/>
</g>
<g style="mix-blend-mode:multiply">
<path d="M1060.85 212.877C1060.11 213.005 1059.36 213.094 1058.61 213.146C1060.6 215.386 1057.26 215.744 1054.13 216.775C1057.91 215.991 1060.36 215.14 1060.85 212.877Z" fill="#B9B9B9"/>
</g>
<path d="M1059.03 212.766C1058.38 212.922 1057.6 213.057 1056.79 213.214C1056.79 213.214 1057.58 213.214 1058.63 213.214L1058.47 213.034C1058.67 212.975 1058.86 212.884 1059.03 212.766Z" fill="#231F20"/>
<path d="M1058.36 212.967L1058.52 213.146C1059.27 213.094 1060.02 213.005 1060.76 212.878C1060.77 212.691 1060.77 212.504 1060.76 212.317C1060.36 212.317 1059.75 212.609 1058.94 212.765C1058.76 212.862 1058.57 212.931 1058.36 212.967Z" fill="#231F20"/>
<path d="M1044.27 213.102C1045.57 213.214 1046.51 213.214 1046.51 213.214C1045.42 213.034 1044.54 212.855 1043.83 212.698L1044.18 212.967L1044.27 213.102Z" fill="#231F20"/>
<path d="M1044.27 212.967L1043.92 212.698C1043.33 212.564 1042.88 212.452 1042.55 212.34C1042.57 212.529 1042.61 212.716 1042.66 212.9L1044.27 213.102V212.967Z" fill="#231F20"/>
<g style="mix-blend-mode:multiply">
<path d="M1061.72 208.913C1062.06 209.12 1062.33 209.42 1062.51 209.777C1062.68 210.135 1062.75 210.535 1062.71 210.93C1062.71 210.93 1064.25 208.779 1061.72 208.913Z" fill="#EAE8E3"/>
</g>
<g style="mix-blend-mode:multiply">
<path d="M1041.65 208.913C1041.31 209.12 1041.04 209.42 1040.87 209.777C1040.69 210.135 1040.62 210.535 1040.67 210.93C1040.67 210.93 1039.12 208.779 1041.65 208.913Z" fill="#EAE8E3"/>
</g>
<path d="M1100.87 181.542C1100.04 182.331 1099.07 182.968 1098.01 183.423C1098.01 183.871 1098.01 186.179 1098.01 186.649C1098.01 195.183 1099.04 210.414 1077.38 210.414C1062.51 210.414 1056.01 199.707 1054.98 189.18C1054.98 189.18 1054.4 186.089 1051.73 186.089C1049.07 186.089 1048.44 189.113 1048.44 189.113C1047.36 199.64 1040.87 210.347 1026.04 210.347C1004.4 210.347 1005.43 195.116 1005.43 186.582C1005.43 186.111 1005.43 183.804 1005.43 183.356C1004.37 182.894 1003.4 182.258 1002.54 181.475C1001.89 180.579 1001.72 178.989 1002.12 178.742C1005.39 177.005 1008.9 175.767 1012.53 175.069C1022.8 173.416 1033.3 173.888 1043.38 176.457C1048.91 177.511 1054.6 177.511 1060.13 176.457C1070.21 173.865 1080.71 173.393 1090.97 175.069C1094.61 175.767 1098.12 177.005 1101.39 178.742C1101.73 179.056 1101.55 180.646 1100.87 181.542Z" fill="#00111A"/>
<path d="M1045.17 186.985C1045.17 180.691 1038.45 177.577 1026.6 177.577C1014.75 177.577 1008.5 179.638 1008.5 187.567C1008.5 194.779 1007.63 207.726 1025.97 207.726C1039.95 207.681 1045.17 196.683 1045.17 186.985Z" fill="#353B42"/>
<path d="M1094.76 187.567C1094.76 179.638 1088.51 177.577 1076.68 177.577C1064.86 177.577 1058.12 180.691 1058.12 186.985C1058.12 196.683 1063.42 207.681 1077.31 207.681C1095.66 207.681 1094.76 194.779 1094.76 187.567Z" fill="#353B42"/>
<path d="M1041 191.173C1038.52 187.186 1034.28 190.501 1028.95 193.816C1023.62 197.131 1019.21 199.237 1021.72 203.224C1024.23 207.211 1030.54 207.704 1035.87 204.411C1041.2 201.118 1043.49 195.16 1041 191.173Z" fill="#292E33"/>
<path d="M1092.21 191.173C1094.69 195.16 1092.39 201.073 1087.06 204.41C1081.72 207.748 1075.39 207.21 1072.9 203.223C1070.41 199.236 1074.83 197.153 1080.16 193.816C1085.49 190.478 1089.7 187.186 1092.21 191.173Z" fill="#292E33"/>
<path d="M1013.32 181.587C1014.51 181.587 1014.3 183.961 1013.92 186.604C1013.54 189.247 1013.14 191.241 1011.95 191.084C1010.76 190.927 1010.12 188.844 1010.47 186.178C1010.83 183.513 1012.13 181.519 1013.32 181.587Z" fill="white"/>
<path d="M1013.57 195.541C1013.74 196.594 1013.27 197.535 1012.56 197.647C1011.84 197.759 1011.15 196.997 1010.97 195.922C1010.79 194.847 1011.26 193.929 1011.97 193.817C1012.69 193.705 1013.41 194.466 1013.57 195.541Z" fill="white"/>
<path d="M1064.14 181.296C1065.33 181.296 1065.13 183.647 1064.75 186.313C1064.36 188.978 1063.96 190.927 1062.77 190.793C1061.59 190.658 1060.92 188.553 1061.3 185.887C1061.68 183.222 1062.95 181.228 1064.14 181.296Z" fill="white"/>
<path d="M1064.39 195.228C1064.54 196.303 1064.1 197.244 1063.38 197.467C1062.66 197.691 1061.94 196.796 1061.79 195.743C1061.63 194.69 1062.08 193.727 1062.8 193.503C1063.51 193.279 1064.23 194.175 1064.39 195.228Z" fill="white"/>
<path d="M1099.4 150.34L1103.45 159.591L1113.15 162.48L1103.9 166.535L1101.01 176.233L1096.93 166.983L1087.26 164.093L1096.51 160.017L1099.4 150.34Z" fill="#FFC54F"/>
<defs>
<linearGradient id="paint0_linear" x1="720" y1="-8.30038e-06" x2="669.5" y2="301" gradientUnits="userSpaceOnUse">
<stop stop-color="white" stop-opacity="0"/>
<stop offset="1" stop-color="white"/>
</linearGradient>
</defs>
</svg>
