<svg width="62" height="62" viewBox="0 0 62 62" fill="none" xmlns="http://www.w3.org/2000/svg">
<path d="M43.7088 56.0823C41.9687 54.4946 41.8417 51.7893 43.4294 50.0492L46.9857 46.1372L54.8732 37.4623C54.9621 37.3734 55.0637 37.2718 55.1526 37.1829C55.2415 37.0812 55.3304 36.9796 55.4193 36.8653C56.6894 35.3158 57.2483 33.4106 57.134 31.5435C57.6928 31.861 58.2263 32.2421 58.7216 32.6993C58.8105 32.7755 58.8994 32.8644 58.9883 32.9533C62.278 36.1922 62.5447 41.4124 59.6107 44.9687L59.0011 45.6292L49.7419 55.8028C48.1542 57.5429 45.4489 57.6699 43.7088 56.0823Z" fill="#D84426"/>
<path d="M36.3172 36.7127C35.6948 36.3824 35.0979 35.976 34.5517 35.4806C34.4755 35.4171 34.3993 35.3409 34.3358 35.2774C30.8684 31.9624 30.6143 26.4755 33.8023 22.8556L33.8912 22.754L38.0191 18.1308L45.8558 9.35424L45.8812 9.32884C47.5959 7.39825 47.9515 4.731 47.0116 2.50829C48.015 2.88932 48.9676 3.46088 49.8186 4.22295C49.9329 4.32456 50.0472 4.42617 50.1488 4.54048C53.5908 7.9317 53.7941 13.4694 50.5425 17.1147L46.2749 21.903L37.9048 31.2765L37.8286 31.3654C36.495 32.8896 35.9996 34.871 36.3045 36.7254L36.3172 36.7127Z" fill="#D84426"/>
<path d="M35.567 58.1272C34.6398 57.3016 33.8777 56.3617 33.2681 55.3456C30.677 51.0526 30.9437 45.4641 34.1953 41.3997L35.1351 40.3582L46.0201 28.2539L53.2217 20.2395C53.2852 20.1633 53.336 20.0998 53.3995 20.0363C53.4503 19.9728 53.5011 19.9219 53.5646 19.8584V19.833C55.7619 17.2674 56.4351 13.9143 55.6476 10.866C56.5875 11.2851 57.4893 11.8567 58.2895 12.5806C58.6324 12.8855 58.9499 13.2157 59.2293 13.5459C62.4047 17.2801 62.4174 22.8813 59.0642 26.6409L59.0134 26.7044L48.8906 37.9577L41.7652 45.8832C41.6509 45.9975 41.5493 46.1119 41.4476 46.2262C41.346 46.3405 41.2444 46.4548 41.1428 46.5818C37.8786 50.5827 38.3104 56.4633 42.1843 59.9562C42.7686 60.4769 43.3909 60.9215 44.0514 61.2771C41.0412 61.3533 37.9802 60.3245 35.567 58.1526V58.1272Z" fill="#D84426"/>
<path d="M33.8786 16.632C30.8558 12.6947 30.9701 7.02993 34.4121 3.21957C35.7076 1.78433 37.308 0.793634 39.0226 0.247482C39.2259 0.183976 39.4291 0.120469 39.6323 0.0696646C40.75 -0.146256 41.9566 0.145872 42.8711 0.95875L42.8965 0.984152C44.4334 2.38129 44.5604 4.75641 43.1759 6.30596L43.1378 6.34406L33.8405 16.632H33.8786Z" fill="#D84426"/>
<path d="M17.9365 56.0813C19.6766 54.4937 19.8036 51.7883 18.2159 50.0483L14.6596 46.1363L6.77212 37.4614C6.68321 37.3725 6.5816 37.2708 6.49269 37.1819C6.40379 37.0803 6.31488 36.9787 6.22597 36.8644C4.95585 35.3149 4.39699 33.4097 4.5113 31.5426C3.95245 31.8601 3.419 32.2412 2.92365 32.6984C2.83474 32.7746 2.74584 32.8635 2.65693 32.9524C-0.632687 36.1912 -0.899413 41.4114 2.03457 44.9678L2.64423 45.6282L11.9034 55.8019C13.4911 57.542 16.1964 57.669 17.9365 56.0813Z" fill="#332771"/>
<path d="M25.3288 36.7127C25.9512 36.3824 26.5481 35.976 27.0943 35.4807C27.1705 35.4172 27.2467 35.3409 27.3102 35.2774C30.7776 31.9624 31.0316 26.4755 27.8436 22.8556L27.7547 22.754L23.6268 18.1308L15.7902 9.35426L15.7648 9.32885C14.0501 7.39827 13.6945 4.73101 14.6344 2.5083C13.631 2.88934 12.6784 3.46089 11.8274 4.22296C11.7131 4.32457 11.5988 4.42618 11.4972 4.5405C8.05514 7.93172 7.85192 13.4694 11.1034 17.1147L15.371 21.9031L23.7411 31.2766L23.8173 31.3655C25.151 32.8896 25.6463 34.871 25.3415 36.7254L25.3288 36.7127Z" fill="#332771"/>
<path d="M26.0792 58.1265C27.0063 57.3009 27.7684 56.361 28.3781 55.3449C30.9691 51.0519 30.7024 45.4633 27.4509 41.399L26.511 40.3575L15.6261 28.2532L8.42447 20.2387C8.36096 20.1625 8.31016 20.099 8.24665 20.0355C8.19585 19.972 8.14504 19.9212 8.08154 19.8577V19.8323C5.88423 17.2666 5.21106 13.9135 5.99854 10.8652C5.05865 11.2844 4.15686 11.8559 3.35668 12.5799C3.01375 12.8847 2.69622 13.215 2.41679 13.5452C-0.758511 17.2793 -0.771213 22.8806 2.58191 26.6401L2.63271 26.7037L12.7556 37.9569L19.881 45.8825C19.9953 45.9968 20.0969 46.1111 20.1985 46.2254C20.3001 46.3397 20.4017 46.454 20.5033 46.5811C23.7675 50.5819 23.3357 56.4626 19.4618 59.9554C18.8776 60.4762 18.2552 60.9207 17.5947 61.2764C20.6049 61.3526 23.6659 60.3238 26.0792 58.1519V58.1265Z" fill="#332771"/>
<path d="M27.7662 16.6311C30.7891 12.6937 30.6748 7.02897 27.2328 3.2186C25.9373 1.78337 24.3369 0.792673 22.6222 0.24652C22.419 0.183014 22.2158 0.119508 22.0126 0.0687033C20.8949 -0.147217 19.6883 0.144911 18.7738 0.957788L18.7484 0.983191C17.2115 2.38032 17.0845 4.75545 18.469 6.305L18.5071 6.3431L27.8043 16.6311H27.7662Z" fill="#332771"/>
</svg>
