<svg width="30" height="40" viewBox="0 0 30 40" fill="none" xmlns="http://www.w3.org/2000/svg">
<path d="M13.3959 40C19.077 40 23.6824 39.239 23.6824 38.3003C23.6824 37.3616 19.077 36.6006 13.3959 36.6006C7.7148 36.6006 3.10938 37.3616 3.10938 38.3003C3.10938 39.239 7.7148 40 13.3959 40Z" fill="#CFE1EC"/>
<path d="M17.443 37.8249C17.0977 37.8326 16.7532 37.8635 16.412 37.9173L17.0201 32.835L16.3848 32.7598C16.3848 32.7598 15.6975 38.4065 15.7193 38.4065H18.3004C18.5945 38.3996 18.1888 37.8114 17.443 37.8249Z" fill="#231F20"/>
<path d="M10.0557 32.6743L9.42037 32.7532L10.066 37.9683C9.74587 37.8882 9.41927 37.8367 9.09001 37.8141C8.47467 37.7936 8.12192 38.4228 8.34428 38.4228H10.704C10.8186 38.4234 10.6985 37.8695 10.0557 32.6743Z" fill="#231F20"/>
<path d="M28.744 23.317C28.9639 22.4653 29.1838 21.4974 29.2731 21.1006C29.2834 21.0508 29.2737 20.999 29.2461 20.9562C29.2185 20.9134 29.1752 20.883 29.1254 20.8716C29.0758 20.8613 29.0241 20.871 28.9816 20.8985C28.9391 20.926 28.9092 20.9691 28.8985 21.0185C28.8126 21.3912 28.6133 22.2771 28.4069 23.0912C28.4069 22.3009 28.4345 21.3809 28.4517 20.9838C28.4545 20.934 28.4373 20.8851 28.4039 20.8479C28.3705 20.8107 28.3236 20.7882 28.2735 20.7855H28.2696C28.2448 20.7841 28.22 20.7876 28.1966 20.7957C28.1732 20.8039 28.1516 20.8166 28.1331 20.833C28.1146 20.8495 28.0996 20.8694 28.0888 20.8917C28.0781 20.914 28.0719 20.9381 28.0705 20.9628C28.0704 20.9641 28.0704 20.9654 28.0705 20.9667C28.0533 21.3532 28.0191 22.2458 28.0258 23.0391C27.7823 22.3887 27.5927 21.7195 27.4588 21.0383C27.4496 20.9906 27.4228 20.9479 27.3836 20.9188C27.3444 20.8898 27.2957 20.8763 27.2471 20.8812C27.2216 20.8849 27.1972 20.8936 27.1751 20.9067C27.153 20.9199 27.1338 20.9372 27.1185 20.9578C27.1031 20.9783 27.0921 21.0017 27.0858 21.0265C27.0796 21.0513 27.0784 21.0771 27.0822 21.1025C27.2651 21.9949 27.5273 22.8693 27.8657 23.7156C27.4588 23.3916 27.099 23.0128 26.7969 22.5902C26.7688 22.5485 26.7256 22.5191 26.6763 22.5083C26.6269 22.4975 26.5753 22.506 26.5322 22.5321C26.4904 22.5579 26.4606 22.5991 26.4493 22.6468C26.4379 22.6944 26.446 22.7445 26.4717 22.7862L26.478 22.7956C26.875 23.3534 27.3642 23.8403 27.9247 24.2355C27.8802 25.5622 27.5502 26.403 26.966 26.6806C26.0584 27.115 24.56 26.1917 24.0823 25.7982L23.6836 26.2943C23.7526 26.3488 25.1273 27.4296 26.4333 27.4296C26.715 27.4342 26.9941 27.3758 27.2501 27.2586C28.0784 26.8654 28.5207 25.8497 28.5733 24.2388C29.2882 23.4281 29.8206 21.9574 29.9928 21.439C30.0083 21.3908 30.004 21.3385 29.981 21.2934C29.9579 21.2483 29.9179 21.2141 29.8697 21.1982H29.8654C29.8179 21.184 29.7667 21.1887 29.7226 21.2111C29.6784 21.2335 29.6446 21.272 29.6282 21.3186C29.3978 22.0111 29.1017 22.6803 28.744 23.317Z" fill="#231F20"/>
<path d="M13.4293 33.6458H13.1852C7.40906 33.5128 2.62914 29.1419 2.00835 23.4277V23.3455C1.9669 21.8851 1.98748 20.6541 2.00835 19.4638C2.02923 18.2734 2.04949 17.0903 2.00835 15.6811C1.99914 15.3965 2.10392 15.1198 2.29965 14.9121C2.49538 14.7043 2.76603 14.5824 3.05207 14.5732H3.09775C3.38114 14.5732 3.65334 14.6833 3.85625 14.8802C4.05916 15.077 4.17672 15.345 4.18382 15.6269C4.22164 17.084 4.18382 18.3153 4.18382 19.5053C4.18382 20.6954 4.14601 21.8535 4.18382 23.247C4.72172 28.3046 9.27837 31.9723 14.3617 31.4355C19.092 30.9376 22.6728 26.9526 22.6434 22.2196V15.7208C22.6384 15.4343 22.7452 15.1571 22.9413 14.9473C23.1373 14.7374 23.4075 14.6114 23.695 14.5955C23.9829 14.5873 24.2623 14.6933 24.4717 14.8901C24.6811 15.0869 24.8034 15.3585 24.8116 15.645C24.8116 15.6555 24.8116 15.6657 24.8116 15.6751V22.9222C24.8088 23.8119 24.6722 24.6961 24.4062 25.5455C23.6866 27.8858 22.2325 29.935 20.257 31.3928C18.2815 32.8505 15.8887 33.6402 13.4293 33.6458Z" fill="#21ABE1"/>
<path d="M13.3891 15.0232C13.1016 15.0224 12.8263 14.9081 12.6233 14.7055C12.4203 14.5029 12.3064 14.2285 12.3064 13.9425V1.141C12.2984 0.999288 12.3186 0.857407 12.3658 0.723458C12.4129 0.589508 12.4861 0.466113 12.5812 0.360318C12.7732 0.146654 13.0427 0.0176486 13.3303 0.00167999C13.6179 -0.0142886 13.9001 0.0840879 14.1148 0.275169C14.3295 0.466249 14.4591 0.734381 14.4752 1.02058C14.4772 1.06069 14.4772 1.10088 14.4752 1.141V13.9425C14.4752 14.0844 14.4471 14.2249 14.3925 14.3561C14.3379 14.4872 14.2579 14.6063 14.1571 14.7067C14.0562 14.8071 13.9365 14.8867 13.8047 14.941C13.673 14.9953 13.5317 15.0232 13.3891 15.0232Z" fill="#21ABE1"/>
<path d="M7.9589 15.5229C7.67209 15.521 7.39767 15.4063 7.19552 15.2038C6.99336 15.0013 6.87987 14.7275 6.87979 14.4421V3.82263C6.86828 3.53911 6.96929 3.26245 7.161 3.05239C7.35271 2.84233 7.61975 2.71573 7.90446 2.69992C8.18917 2.68411 8.46871 2.78036 8.68272 2.96789C8.89672 3.15541 9.02803 3.41917 9.0483 3.70221C9.05067 3.74232 9.05067 3.78253 9.0483 3.82263V14.4421C9.0483 14.7287 8.93387 15.0036 8.73019 15.2063C8.52652 15.409 8.25027 15.5229 7.96223 15.5229H7.9589Z" fill="#21ABE1"/>
<path d="M19.0024 15.2559C18.7153 15.2559 18.4399 15.1424 18.2369 14.9404C18.0338 14.7384 17.9197 14.4644 17.9197 14.1787V4.01746C17.9117 3.87575 17.9319 3.73387 17.979 3.59992C18.0262 3.46597 18.0994 3.34258 18.1945 3.23678C18.2896 3.13099 18.4047 3.04486 18.5332 2.98333C18.6617 2.92179 18.8011 2.88605 18.9435 2.87814C19.086 2.87024 19.2285 2.89032 19.3631 2.93724C19.4977 2.98417 19.6217 3.05702 19.7281 3.15163C19.8344 3.24625 19.9209 3.36077 19.9828 3.48867C20.0446 3.61656 20.0805 3.75533 20.0885 3.89704C20.0905 3.93715 20.0905 3.97735 20.0885 4.01746V14.1787C20.0885 14.3202 20.0604 14.4603 20.006 14.591C19.9516 14.7217 19.8719 14.8405 19.7713 14.9405C19.6708 15.0405 19.5514 15.1199 19.42 15.174C19.2887 15.2281 19.1479 15.2559 19.0057 15.2559H19.0024Z" fill="#21ABE1"/>
<path d="M0.0426334 27.7085C0.286772 26.8466 1.72347 25.9197 2.41081 25.5024L2.62046 26.1181C1.79547 26.6139 0.791991 27.3596 0.647686 27.8795C0.636653 27.9179 0.634931 27.9584 0.642662 27.9976C0.650392 28.0368 0.667356 28.0736 0.692158 28.105C1.11569 28.8164 5.16017 29.9691 5.31143 30.0787C5.71349 30.352 5.31143 31.474 4.96776 31.7203C4.33548 32.165 2.85008 31.58 3.64814 30.6429C3.64814 30.6429 3.38343 30.4923 3.89894 30.3009C2.46587 29.8153 0.486137 29.0286 0.128551 28.447C0.0626077 28.3369 0.0208559 28.2142 0.00604649 28.0869C-0.00876296 27.9596 0.00370632 27.8307 0.0426334 27.7085Z" fill="#231F20"/>
<path d="M17.0057 23.7845C17.5201 23.7845 17.9372 23.3695 17.9372 22.8576C17.9372 22.3457 17.5201 21.9307 17.0057 21.9307C16.4913 21.9307 16.0742 22.3457 16.0742 22.8576C16.0742 23.3695 16.4913 23.7845 17.0057 23.7845Z" fill="#21ABE1"/>
<path d="M9.95622 23.7693C10.464 23.6872 10.8088 23.2111 10.7264 22.7058C10.644 22.2005 10.1655 21.8574 9.65773 21.9394C9.14993 22.0214 8.8051 22.4975 8.88753 23.0028C8.96996 23.5081 9.44843 23.8513 9.95622 23.7693Z" fill="#21ABE1"/>
<path d="M17.0059 22.2022C16.8787 22.2014 16.7542 22.2383 16.6481 22.308C16.542 22.3777 16.459 22.4772 16.4097 22.5938C16.3604 22.7104 16.3469 22.839 16.3711 22.9632C16.3952 23.0875 16.4558 23.2018 16.5452 23.2918C16.6346 23.3817 16.7489 23.4433 16.8735 23.4686C16.998 23.494 17.1274 23.482 17.2451 23.4342C17.3629 23.3864 17.4637 23.3049 17.5349 23.2001C17.6061 23.0952 17.6445 22.9717 17.6451 22.8452V22.8416C17.6451 22.6726 17.5779 22.5104 17.4581 22.3906C17.3383 22.2708 17.1757 22.203 17.0059 22.2022ZM16.92 22.7742C16.873 22.8101 16.8139 22.8266 16.755 22.8203C16.6961 22.814 16.642 22.7852 16.6038 22.7401C16.5849 22.6865 16.5847 22.6281 16.6032 22.5743C16.6217 22.5205 16.6579 22.4745 16.7059 22.4436C16.7539 22.4128 16.8109 22.3989 16.8678 22.4043C16.9247 22.4096 16.9781 22.4339 17.0195 22.4731C17.0449 22.5263 17.0487 22.5871 17.0302 22.643C17.0116 22.6989 16.9722 22.7456 16.92 22.7732V22.7742ZM17.3907 23.229C17.3819 23.238 17.3714 23.2452 17.3598 23.2501C17.3482 23.2551 17.3357 23.2577 17.3231 23.2578C17.3105 23.258 17.298 23.2556 17.2862 23.251C17.2745 23.2463 17.2639 23.2393 17.2549 23.2305V23.229C17.2369 23.2149 17.2238 23.1955 17.2175 23.1736C17.2111 23.1517 17.2117 23.1283 17.2193 23.1068C17.2268 23.0853 17.2409 23.0666 17.2596 23.0534C17.2783 23.0402 17.3006 23.0331 17.3235 23.0331C17.3464 23.0331 17.3688 23.0402 17.3875 23.0534C17.4062 23.0666 17.4203 23.0853 17.4278 23.1068C17.4353 23.1283 17.436 23.1517 17.4296 23.1736C17.4232 23.1955 17.4102 23.2149 17.3922 23.229H17.3907Z" fill="#231F20"/>
<path d="M9.81055 22.2022C9.68339 22.2014 9.55888 22.2383 9.45276 22.308C9.34664 22.3777 9.26368 22.4772 9.21437 22.5938C9.16506 22.7104 9.15161 22.839 9.17574 22.9632C9.19986 23.0875 9.26047 23.2018 9.3499 23.2918C9.43933 23.3817 9.55356 23.4433 9.67814 23.4686C9.80272 23.494 9.93205 23.482 10.0498 23.4342C10.1675 23.3864 10.2684 23.3049 10.3396 23.2001C10.4108 23.0952 10.4491 22.9717 10.4498 22.8452V22.8416C10.4498 22.6726 10.3825 22.5104 10.2628 22.3906C10.143 22.2708 9.98039 22.203 9.81055 22.2022ZM9.69378 22.7742C9.64683 22.8101 9.58774 22.8266 9.52884 22.8203C9.46995 22.814 9.41578 22.7852 9.37764 22.7401C9.34204 22.7047 9.31779 22.6596 9.30796 22.6105C9.29813 22.5614 9.30316 22.5105 9.32242 22.4642C9.34167 22.4179 9.37428 22.3784 9.41612 22.3505C9.45797 22.3227 9.50716 22.3079 9.55749 22.3079C9.60781 22.3079 9.65701 22.3227 9.69885 22.3505C9.7407 22.3784 9.77331 22.4179 9.79256 22.4642C9.81181 22.5105 9.81684 22.5614 9.80701 22.6105C9.79718 22.6596 9.77294 22.7047 9.73734 22.7401C9.72399 22.7526 9.7094 22.7637 9.69378 22.7732V22.7742ZM10.1406 23.229C10.1318 23.238 10.1212 23.2452 10.1096 23.2502C10.098 23.2551 10.0855 23.2577 10.0729 23.2579C10.0602 23.258 10.0477 23.2557 10.0359 23.251C10.0242 23.2463 10.0135 23.2393 10.0045 23.2305V23.229C9.98656 23.2148 9.97354 23.1954 9.96719 23.1735C9.96085 23.1517 9.9615 23.1283 9.96906 23.1068C9.97662 23.0853 9.99072 23.0667 10.0094 23.0535C10.0281 23.0403 10.0504 23.0332 10.0733 23.0332C10.0962 23.0332 10.1185 23.0403 10.1372 23.0535C10.1559 23.0667 10.17 23.0853 10.1775 23.1068C10.1851 23.1283 10.1857 23.1517 10.1794 23.1735C10.173 23.1954 10.16 23.2148 10.1421 23.229H10.1406Z" fill="#231F20"/>
<path d="M13.3851 15.6836C9.29644 15.6854 5.98438 18.9852 5.98438 23.0539C5.98438 27.1225 9.30219 30.419 13.3908 30.4172C17.4795 30.4154 20.7906 27.1177 20.7906 23.0502C20.7858 18.9828 17.4725 15.6872 13.3851 15.6836ZM13.3851 28.8475C10.1592 28.8466 7.54239 26.2444 7.54239 23.0334C7.54239 19.8224 10.1592 17.2189 13.3851 17.2189C16.6109 17.2189 19.2278 19.8221 19.2278 23.0334C19.2278 26.2447 16.6118 28.8466 13.3851 28.8466V28.8475Z" fill="#21ABE1"/>
<path d="M21.1054 21.3602C21.211 21.2199 21.2392 20.9715 21.1865 20.9222C20.6731 20.6511 20.1218 20.4577 19.5511 20.3484C17.9388 20.0864 16.2894 20.1603 14.7073 20.5654C13.8378 20.7302 12.9448 20.7302 12.0753 20.5654C10.4927 20.164 8.84406 20.0901 7.23156 20.3484C6.66076 20.4576 6.10954 20.651 5.5961 20.9222C5.53287 20.961 5.561 21.2094 5.66265 21.3493C5.79645 21.4718 5.94981 21.5712 6.11644 21.6435V22.1474C6.11644 23.4811 5.9549 25.8615 9.35348 25.8615C10.5179 25.8615 11.355 25.443 11.9222 24.8189C12.4895 24.1949 12.7869 23.3658 12.8713 22.543C12.8713 22.543 12.9696 22.0707 13.3883 22.0707C13.5976 22.0707 13.725 22.1911 13.8003 22.3115C13.8462 22.3858 13.8793 22.4672 13.8983 22.5523C14.0602 24.1976 15.08 25.8705 17.4155 25.8705C20.8171 25.8705 20.6553 23.4904 20.6553 22.1571V21.6528C20.8212 21.5818 20.9735 21.4828 21.1054 21.3602ZM9.3432 25.4517C6.46223 25.4517 6.59928 23.4287 6.59928 22.3016C6.59928 21.0625 7.58067 20.7403 9.44152 20.7403C11.3024 20.7403 12.3576 21.2271 12.3576 22.2106C12.3576 23.7261 11.538 25.4448 9.3432 25.4517ZM17.4052 25.4448C15.2243 25.4448 14.3906 23.7261 14.3906 22.2106C14.3906 21.2271 15.4494 20.7403 17.3066 20.7403C19.1638 20.7403 20.1452 21.0625 20.1452 22.3016C20.1455 23.4278 20.2859 25.4448 17.4052 25.4448Z" fill="#00111A"/>
<path opacity="0.2" d="M11.7044 22.8652C11.3141 22.242 10.6492 22.7601 9.81208 23.2782C8.97499 23.7964 8.2819 24.1254 8.6761 24.7483C9.07029 25.3711 10.062 25.4485 10.8991 24.9337C11.7361 24.4189 12.0949 23.4881 11.7044 22.8652Z" fill="#CCCCCC"/>
<path opacity="0.2" d="M19.7456 22.8649C20.1359 23.4878 19.7738 24.412 18.9367 24.9334C18.0996 25.4548 17.104 25.3712 16.7134 24.748C16.3228 24.1248 17.0159 23.7994 17.853 23.278C18.6901 22.7566 19.3517 22.2418 19.7456 22.8649Z" fill="#CCCCCC"/>
<path opacity="0.29" d="M7.35651 21.3669C7.54317 21.3669 7.5114 21.7381 7.4515 22.1497C7.3916 22.5612 7.32838 22.8743 7.14202 22.8496C6.95567 22.8249 6.85371 22.4998 6.90998 22.0831C6.96625 21.6665 7.17015 21.3567 7.35651 21.3669Z" fill="#969696"/>
<path opacity="0.29" d="M7.39427 23.548C7.42241 23.7127 7.34859 23.8596 7.23605 23.8771C7.12351 23.8945 7.0146 23.7756 6.98647 23.6061C6.95833 23.4366 7.03215 23.2945 7.14469 23.2771C7.25723 23.2596 7.36977 23.3794 7.39427 23.548Z" fill="#969696"/>
<path opacity="0.29" d="M15.3385 21.3205C15.5249 21.3205 15.4934 21.6881 15.4335 22.1033C15.3736 22.5184 15.3104 22.8258 15.124 22.8032C14.9376 22.7806 14.8321 22.4531 14.8917 22.0367C14.9513 21.6204 15.1521 21.3109 15.3385 21.3205Z" fill="#969696"/>
<path opacity="0.29" d="M15.3779 23.4985C15.4024 23.6664 15.3322 23.8137 15.2197 23.8486C15.1072 23.8835 14.9946 23.7435 14.9698 23.5776C14.945 23.4118 15.0155 23.2624 15.128 23.2275C15.2406 23.1926 15.3534 23.3341 15.3779 23.4985Z" fill="#969696"/>
<path d="M14.1406 25.5032C14.1749 25.5041 14.2081 25.515 14.2362 25.5347C14.2642 25.5543 14.2858 25.5818 14.2983 25.6136C14.3107 25.6454 14.3134 25.6802 14.306 25.7135C14.2986 25.7468 14.2815 25.7772 14.2568 25.8009C14.0343 26.0396 13.729 26.1851 13.4027 26.2079C13.2389 26.2066 13.0775 26.1695 12.9297 26.0991C12.782 26.0288 12.6516 25.927 12.5478 25.8009C12.5147 25.7678 12.4961 25.723 12.4961 25.6763C12.4961 25.6296 12.5147 25.5848 12.5478 25.5517C12.5817 25.52 12.6265 25.5024 12.673 25.5024C12.7195 25.5024 12.7643 25.52 12.7983 25.5517C12.8723 25.6423 12.9653 25.7158 13.0707 25.7672C13.1761 25.8186 13.2914 25.8467 13.4088 25.8494C13.6417 25.8311 13.8594 25.7272 14.0196 25.558C14.0522 25.5261 14.095 25.5067 14.1406 25.5032Z" fill="#231F20"/>
</svg>
