<svg width="62" height="62" viewBox="0 0 62 62" fill="none" xmlns="http://www.w3.org/2000/svg">
<g filter="url(#filter0_d_0_661)">
<rect x="6" y="4" width="50" height="50" rx="25" fill="#21ABE1" shape-rendering="crispEdges"/>
<path d="M39.3146 30.6942C40.498 30.6942 41.4573 29.7365 41.4573 28.5552C41.4573 27.3738 40.498 26.4161 39.3146 26.4161C38.1312 26.4161 37.1719 27.3738 37.1719 28.5552C37.1719 29.7365 38.1312 30.6942 39.3146 30.6942Z" fill="white"/>
<path d="M23.1142 30.6589C24.2823 30.4696 25.0755 29.3709 24.8859 28.2048C24.6963 27.0387 23.5956 26.2469 22.4275 26.4362C21.2594 26.6255 20.4662 27.7242 20.6558 28.8903C20.8454 30.0563 21.9461 30.8482 23.1142 30.6589Z" fill="white"/>
<path d="M39.3153 27.0425C39.0228 27.0409 38.7364 27.1259 38.4922 27.2867C38.2481 27.4476 38.0573 27.6771 37.9438 27.9463C37.8304 28.2155 37.7995 28.5121 37.855 28.7988C37.9105 29.0856 38.0499 29.3494 38.2556 29.557C38.4613 29.7646 38.7241 29.9066 39.0107 29.9651C39.2973 30.0236 39.5948 29.996 39.8656 29.8856C40.1365 29.7753 40.3685 29.5873 40.5322 29.3454C40.696 29.1034 40.7843 28.8184 40.7858 28.5264V28.5181C40.7858 28.1281 40.6311 27.7539 40.3556 27.4774C40.08 27.2009 39.706 27.0445 39.3153 27.0425ZM39.1177 28.3625C39.0097 28.4454 38.8737 28.4836 38.7382 28.469C38.6028 28.4543 38.4782 28.3881 38.3904 28.284C38.3469 28.1602 38.3464 28.0253 38.389 27.9012C38.4316 27.7771 38.5148 27.6709 38.6253 27.5997C38.7357 27.5285 38.8669 27.4966 38.9978 27.5089C39.1286 27.5212 39.2515 27.5772 39.3466 27.6678C39.405 27.7904 39.4138 27.9309 39.3712 28.0599C39.3286 28.1889 39.2377 28.2965 39.1177 28.3604V28.3625ZM40.2005 29.4122C40.1802 29.4329 40.1561 29.4495 40.1294 29.4609C40.1027 29.4723 40.074 29.4784 40.045 29.4787C40.016 29.479 39.9872 29.4736 39.9602 29.4628C39.9333 29.452 39.9088 29.436 39.888 29.4157V29.4122C39.8468 29.3795 39.8167 29.3347 39.802 29.2842C39.7874 29.2336 39.7888 29.1798 39.8062 29.1301C39.8235 29.0804 39.8559 29.0374 39.8989 29.0069C39.9419 28.9764 39.9933 28.9601 40.046 28.9601C40.0987 28.9601 40.1501 28.9764 40.1931 29.0069C40.2361 29.0374 40.2685 29.0804 40.2859 29.1301C40.3032 29.1798 40.3047 29.2336 40.29 29.2842C40.2753 29.3347 40.2453 29.3795 40.204 29.4122H40.2005Z" fill="#231F20"/>
<path d="M22.7684 27.0425C22.4759 27.0409 22.1895 27.1259 21.9453 27.2867C21.7012 27.4476 21.5104 27.6771 21.397 27.9463C21.2835 28.2155 21.2526 28.5121 21.3081 28.7988C21.3636 29.0856 21.503 29.3494 21.7087 29.557C21.9145 29.7646 22.1772 29.9066 22.4638 29.9651C22.7504 30.0236 23.0479 29.996 23.3187 29.8856C23.5896 29.7753 23.8215 29.5873 23.9853 29.3454C24.1491 29.1034 24.2373 28.8184 24.2388 28.5264V28.5181C24.2389 28.1281 24.0842 27.7539 23.8086 27.4774C23.5331 27.2009 23.1591 27.0445 22.7684 27.0425ZM22.4998 28.3625C22.3918 28.4454 22.2559 28.4836 22.1204 28.469C21.9849 28.4543 21.8603 28.3881 21.7725 28.284C21.6907 28.2023 21.6349 28.0982 21.6123 27.9848C21.5897 27.8715 21.6012 27.754 21.6455 27.6472C21.6898 27.5404 21.7648 27.4492 21.8611 27.3849C21.9573 27.3207 22.0705 27.2865 22.1863 27.2865C22.302 27.2865 22.4152 27.3207 22.5115 27.3849C22.6077 27.4492 22.6827 27.5404 22.727 27.6472C22.7713 27.754 22.7829 27.8715 22.7603 27.9848C22.7376 28.0982 22.6819 28.2023 22.6 28.284C22.5693 28.3128 22.5357 28.3384 22.4998 28.3604V28.3625ZM23.5276 29.4122C23.5073 29.433 23.4831 29.4495 23.4563 29.461C23.4296 29.4724 23.4009 29.4784 23.3718 29.4787C23.3427 29.4791 23.3138 29.4737 23.2868 29.4628C23.2598 29.452 23.2353 29.436 23.2145 29.4157V29.4122C23.1733 29.3794 23.1433 29.3347 23.1287 29.2841C23.1141 29.2336 23.1156 29.1798 23.133 29.1302C23.1504 29.0806 23.1828 29.0375 23.2258 29.0071C23.2687 28.9767 23.3201 28.9603 23.3728 28.9603C23.4255 28.9603 23.4768 28.9767 23.5198 29.0071C23.5627 29.0375 23.5952 29.0806 23.6126 29.1302C23.6299 29.1798 23.6314 29.2336 23.6169 29.2841C23.6023 29.3347 23.5723 29.3794 23.5311 29.4122H23.5276Z" fill="#231F20"/>
<path d="M31.0007 12C21.5954 12.0042 13.9766 19.6189 13.9766 29.008C13.9766 38.397 21.6087 46.0042 31.0139 46C40.4192 45.9958 48.036 38.3859 48.036 28.9996C48.0249 19.6134 40.4032 12.0083 31.0007 12ZM31.0007 42.3778C23.5802 42.3757 17.5605 36.3706 17.5605 28.9607C17.5605 21.5509 23.5802 15.543 31.0007 15.543C38.4212 15.543 44.4409 21.5502 44.4409 28.9607C44.4409 36.3713 38.4233 42.3757 31.0007 42.3757V42.3778Z" fill="white"/>
<path d="M48.754 25.0995C48.9969 24.7757 49.0616 24.2026 48.9405 24.0887C47.7594 23.4631 46.4914 23.0168 45.1784 22.7645C41.4696 22.16 37.6755 22.3305 34.0361 23.2654C32.036 23.6457 29.9819 23.6457 27.9817 23.2654C24.341 22.3391 20.5487 22.1687 16.8394 22.7645C15.5264 23.0167 14.2584 23.463 13.0773 24.0887C12.9318 24.1783 12.9966 24.7514 13.2304 25.0745C13.5382 25.357 13.8909 25.5864 14.2743 25.7532V26.9162C14.2743 29.9937 13.9026 35.4868 21.7205 35.4868C24.3991 35.4868 26.3247 34.5212 27.6296 33.0811C28.9344 31.6409 29.6185 29.7277 29.8126 27.829C29.8126 27.829 30.0388 26.739 31.002 26.739C31.4835 26.739 31.7765 27.0169 31.9498 27.2948C32.0553 27.4663 32.1315 27.6541 32.1753 27.8506C32.5476 31.6472 34.8935 35.5077 40.266 35.5077C48.0908 35.5077 47.7185 30.0153 47.7185 26.9384V25.7747C48.1001 25.611 48.4505 25.3825 48.754 25.0995ZM21.6969 34.5413C15.0697 34.5413 15.3849 29.8729 15.3849 27.2719C15.3849 24.4124 17.6425 23.6691 21.9231 23.6691C26.2036 23.6691 28.631 24.7924 28.631 27.062C28.631 30.5592 26.7457 34.5254 21.6969 34.5413ZM40.2423 34.5254C35.2255 34.5254 33.3075 30.5592 33.3075 27.062C33.3075 24.7924 35.7432 23.6691 40.0154 23.6691C44.2877 23.6691 46.5452 24.4124 46.5452 27.2719C46.5459 29.8708 46.8688 34.5254 40.2423 34.5254Z" fill="#00111A"/>
<path opacity="0.2" d="M27.1219 28.5725C26.2242 27.1344 24.6946 28.33 22.769 29.5257C20.8434 30.7213 19.2491 31.4806 20.1558 32.918C21.0626 34.3553 23.3438 34.5339 25.2694 33.3459C27.195 32.1579 28.0203 30.0099 27.1219 28.5725Z" fill="#CCCCCC"/>
<path opacity="0.2" d="M45.6191 28.5726C46.5169 30.0099 45.6838 32.1427 43.7583 33.3459C41.8327 34.5491 39.5424 34.356 38.644 32.918C37.7456 31.4799 39.3399 30.7289 41.2655 29.5257C43.1911 28.3225 44.713 27.1345 45.6191 28.5726Z" fill="#CCCCCC"/>
<path opacity="0.29" d="M17.1252 25.1149C17.5546 25.1149 17.4815 25.9715 17.3437 26.9211C17.2059 27.8708 17.0605 28.5933 16.6318 28.5364C16.2031 28.4794 15.9686 27.7291 16.098 26.7676C16.2275 25.8061 16.6965 25.0913 17.1252 25.1149Z" fill="#969696"/>
<path opacity="0.29" d="M17.2175 30.1486C17.2822 30.5286 17.1124 30.8676 16.8536 30.9079C16.5947 30.9482 16.3441 30.6738 16.2794 30.2826C16.2147 29.8915 16.3845 29.5636 16.6434 29.5233C16.9023 29.483 17.1611 29.7595 17.2175 30.1486Z" fill="#969696"/>
<path opacity="0.29" d="M35.4842 25.0076C35.9128 25.0076 35.8405 25.8558 35.7027 26.8138C35.5649 27.7718 35.4194 28.4812 34.9908 28.429C34.5621 28.3769 34.3192 27.6211 34.4563 26.6603C34.5934 25.6995 35.0555 24.9853 35.4842 25.0076Z" fill="#969696"/>
<path opacity="0.29" d="M35.5752 30.0342C35.6316 30.4218 35.4702 30.7615 35.2113 30.8421C34.9524 30.9227 34.6935 30.5997 34.6364 30.2169C34.5794 29.8341 34.7415 29.4895 35.0004 29.4089C35.2593 29.3283 35.5189 29.6548 35.5752 30.0342Z" fill="#969696"/>
<path d="M32.7243 34.6601C32.8032 34.6621 32.8797 34.6874 32.9442 34.7327C33.0088 34.778 33.0584 34.8414 33.087 34.9148C33.1155 34.9882 33.1217 35.0685 33.1047 35.1454C33.0878 35.2223 33.0484 35.2925 32.9915 35.3471C32.4799 35.8979 31.7775 36.2336 31.027 36.2864C30.6502 36.2833 30.2788 36.1976 29.9389 36.0353C29.599 35.873 29.2991 35.6381 29.0603 35.3471C28.9842 35.2707 28.9414 35.1673 28.9414 35.0595C28.9414 34.9517 28.9842 34.8483 29.0603 34.7719C29.1384 34.699 29.2414 34.6584 29.3484 34.6584C29.4554 34.6584 29.5584 34.699 29.6365 34.7719C29.8069 34.981 30.0207 35.1507 30.2631 35.2694C30.5056 35.388 30.7709 35.4527 31.0409 35.459C31.5766 35.4167 32.0775 35.177 32.4459 34.7865C32.5209 34.713 32.6195 34.6682 32.7243 34.6601Z" fill="#231F20"/>
</g>
<defs>
<filter id="filter0_d_0_661" x="0.642857" y="0.428571" width="60.7143" height="60.7143" filterUnits="userSpaceOnUse" color-interpolation-filters="sRGB">
<feFlood flood-opacity="0" result="BackgroundImageFix"/>
<feColorMatrix in="SourceAlpha" type="matrix" values="0 0 0 0 0 0 0 0 0 0 0 0 0 0 0 0 0 0 127 0" result="hardAlpha"/>
<feOffset dy="1.78571"/>
<feGaussianBlur stdDeviation="2.67857"/>
<feComposite in2="hardAlpha" operator="out"/>
<feColorMatrix type="matrix" values="0 0 0 0 0 0 0 0 0 0 0 0 0 0 0 0 0 0 0.08 0"/>
<feBlend mode="normal" in2="BackgroundImageFix" result="effect1_dropShadow_0_661"/>
<feBlend mode="normal" in="SourceGraphic" in2="effect1_dropShadow_0_661" result="shape"/>
</filter>
</defs>
</svg>
