<svg width="1440" height="276" viewBox="0 0 1440 276" fill="none" xmlns="http://www.w3.org/2000/svg">
<mask id="mask0" mask-type="alpha" maskUnits="userSpaceOnUse" x="0" y="0" width="1440" height="262">
<path d="M392 48.4999C327.083 43.3064 171.5 112 82.5 125.5C50.589 130.34 22.6418 129.135 3.8147e-06 125.34L0 88.5001V0H1440V115.58V151C1323.89 231.054 1184.07 262.001 1031.5 261.08C866 260.08 668.5 150.5 598 115C527.5 79.5 477.5 55.3401 392 48.4999Z" fill="black"/>
</mask>
<g mask="url(#mask0)">
<path d="M1441.62 -85H0V427H1441.62V-85Z" fill="url(#paint0_linear)"/>
<path d="M0 -23.4687C0 -23.4687 63.5415 -47.4404 109.43 -34.383C155.319 -21.3257 157.506 50.8104 157.506 50.8104C157.506 50.8104 190.337 24.6072 218.728 31.169C237.662 35.5878 234.017 53.7488 230.747 65.5248C237.375 72.1529 302.264 92.3466 315.498 96.7211C328.733 101.096 330.058 108.762 336.311 115.479C342.563 122.195 377.869 130.37 401.553 129.928C425.238 129.486 457.23 135.717 487.719 136.424C518.208 137.131 559.347 138.39 559.347 138.39C559.347 138.39 465.294 141.837 428.994 138.39C392.694 134.943 361.254 135.805 314.106 132.093C266.958 128.381 175.292 131.121 150.613 123.742C150.613 123.742 105.188 134.789 59.2996 132.093C13.4109 129.398 0 126.901 0 126.901V-23.4687Z" fill="url(#paint1_linear)"/>
<path d="M0 34.5712C24.0002 30.3352 47.1723 22.3029 68.6452 10.7763C103.597 -8.18015 113.805 -21.2817 113.805 -21.2817C118.826 -18.0158 124.199 -15.3256 129.823 -13.2617C140.87 -8.84295 142.505 -6.05915 142.505 -6.05915C142.505 -6.05915 133.468 -31.2902 98.1403 -38.2939C98.1403 -38.2939 56.6483 -45.3197 0 -23.469V34.5712Z" fill="url(#paint2_linear)"/>
<path d="M157.506 50.8099L146.459 60.3102L126.067 65.5243C126.067 65.5243 158.125 70.7605 178.517 65.5243C198.91 60.2881 210.553 40.1165 210.553 40.1165C210.553 40.1165 218.618 30.3953 228.228 36.0513C228.361 36.0513 199.02 18.8403 157.506 50.8099Z" fill="url(#paint3_linear)"/>
<path d="M230.703 65.5244L219.413 71.2246L211.769 74.8701C226.417 75.4865 240.953 77.7092 255.116 81.4982C274.78 87.3088 275.862 92.4125 290.798 97.1405C301.205 100.04 312.042 101.087 322.812 100.234C306.251 93.1114 289.194 87.2041 271.775 82.5587C240.093 73.5223 230.703 65.5244 230.703 65.5244Z" fill="url(#paint4_linear)"/>
<path d="M59.896 106.928C59.896 106.928 75.1186 92.8989 90.8493 89.5407C106.58 86.1824 136.738 94.1361 144.935 106.862L150.392 116.318C138.334 116.51 126.279 115.771 114.335 114.109C94.6715 111.391 91.8214 105.271 83.7572 100.344C75.693 95.4176 59.896 106.928 59.896 106.928Z" fill="url(#paint5_linear)"/>
<path d="M228.36 123.741C238.179 119.701 248.573 117.233 259.159 116.428C270.845 116.137 282.312 119.624 291.858 126.371C291.858 126.371 284.434 114.749 250.476 112.01C216.518 109.27 203.925 123.741 203.925 123.741C211.817 126.612 220.468 126.612 228.36 123.741Z" fill="url(#paint6_linear)"/>
<path d="M1441.62 -12.5331C1441.62 -12.5331 1373.12 -57.3391 1317.29 -44.2155C1261.46 -31.0918 1263.21 26.7938 1263.21 26.7938C1263.21 26.7938 1232.06 22.375 1219.02 26.7938C1205.99 31.2125 1192.51 62.1437 1193.5 65.5241C1193.5 65.5241 1141.91 86.2259 1128.53 86.2259C1115.14 86.2259 1082.48 84.2596 1067.99 91.3075C1049.79 100.125 1030.09 105.424 1009.93 106.928C987.943 108.187 943.8 122.924 910.968 123.741C910.968 123.741 1023.65 116.052 1036.02 115.478C1048.39 114.904 1066.49 128.182 1098.59 129.927C1130.69 131.673 1164.74 131.43 1193.59 132.137C1222.45 132.844 1283.03 125.818 1346.94 123.785C1410.86 121.753 1441.77 108.121 1441.77 108.121L1441.62 -12.5331Z" fill="url(#paint7_linear)"/>
<path d="M1264.4 13.6479C1270.09 8.15411 1275.07 1.97159 1279.23 -4.75621C1285.06 -14.7205 1311.28 -24.1987 1320.01 -27.1151C1328.74 -30.0314 1341.82 -32.4396 1352.8 -38.2945C1363.78 -44.1493 1396.32 -34.8921 1396.32 -34.8921C1396.32 -34.8921 1351.65 -54.202 1311.11 -42.4702C1270.57 -30.7384 1264.4 13.6479 1264.4 13.6479Z" fill="url(#paint8_linear)"/>
<path d="M1046.36 99.8796C1046.36 99.8796 1086.39 99.3714 1092.76 99.8796C1099.12 100.388 1106.94 94.6434 1131.86 91.3072C1156.78 87.9711 1211.4 91.3072 1211.4 91.3072C1211.4 91.3072 1160.58 87.0431 1152.08 86.2257C1145.3 85.7558 1138.5 85.6599 1131.71 85.9385C1116.04 84.7069 1100.3 84.803 1084.65 86.2257C1071.07 88.0441 1058.02 92.6959 1046.36 99.8796Z" fill="url(#paint9_linear)"/>
<path d="M1320.01 114.728C1337.61 112.563 1355.31 111.339 1373.04 111.06H1422.84C1422.84 111.06 1377.28 100.588 1361.17 99.2178C1345.07 97.8479 1320.01 114.728 1320.01 114.728Z" fill="url(#paint10_linear)"/>
<path d="M1193.44 65.5248C1193.44 65.5248 1219.13 67.1377 1259.56 65.5248L1236.61 61.7468C1236.61 61.7468 1240.25 38.0844 1243.55 33.7099C1246.84 29.3353 1263.21 26.7945 1263.21 26.7945C1263.21 26.7945 1229.34 21.3374 1216.22 26.7945C1203.09 32.2517 1193.44 65.5248 1193.44 65.5248Z" fill="url(#paint11_linear)"/>
<path d="M561.18 48.3794C561.18 48.3794 570.57 2.66748 598.254 2.09304C625.937 1.51861 642.441 31.4114 642.441 31.4114C642.441 31.4114 666.302 22.7949 674.411 17.404C682.519 12.0131 705.872 -27.2253 715.836 -30.9592C730.86 -36.6373 788.922 -48.7888 824.096 -23.6461L820.848 -1.55241C820.848 -1.55241 873.011 -5.97116 916.138 -3.76179C916.138 -3.76179 950.162 1.16511 949.831 37.5977L996.692 36.6918C996.692 36.6918 939.668 41.6408 903.456 48.534C903.456 48.534 850.431 63.9997 733.335 74.6488C644.54 82.7793 601.457 69.4789 558.463 74.9361C508.73 79.8188 478.66 76.8582 478.66 76.8582C478.66 76.8582 519.931 74.8698 527.377 71.8871C527.377 71.8871 535.485 59.0507 539.948 57.3053C544.411 55.5599 561.18 48.3794 561.18 48.3794Z" fill="url(#paint12_linear)"/>
<path d="M820.892 -1.57415C820.892 -1.57415 814.927 10.7541 808.078 14.4659C808.078 14.4659 850.675 8.76571 859.534 6.88775C868.394 5.00978 867.665 1.32013 872.349 -1.46368C877.033 -4.24749 904.716 -4.18121 904.716 -4.18121C904.716 -4.18121 849.084 -6.21384 820.892 -1.57415Z" fill="url(#paint13_linear)"/>
<path d="M642.441 31.4116C642.441 31.4116 679.757 24.0986 685.104 21.3369C685.104 21.3369 714.643 21.0276 717.383 19.1275C720.122 17.2275 736.494 -16.112 738.703 -24.132C740.913 -32.152 712.655 -29.1031 712.655 -29.1031C712.655 -29.1031 694.98 -9.79315 676.907 15.0844C676.907 15.2169 649.555 29.4674 642.441 31.4116Z" fill="url(#paint14_linear)"/>
<path d="M537.584 58.8744C556.567 59.4163 575.56 58.2034 594.321 55.251C594.321 55.251 571.94 51.6056 561.18 48.3799C561.18 48.3799 540.522 55.8476 537.584 58.8744Z" fill="url(#paint15_linear)"/>
<path d="M562.22 44.2707C562.22 44.2707 582.325 41.7299 593.659 33.3564C593.659 33.3564 601.083 11.9918 606.915 8.34631C612.748 4.70085 622.602 9.89287 622.602 9.89287C622.602 9.89287 607.136 -3.5843 587.915 4.61248C568.693 12.8092 562.22 44.2707 562.22 44.2707Z" fill="url(#paint16_linear)"/>
<path d="M704.79 58.2774C704.79 58.2774 715.086 42.4142 732.65 37.907C738.571 36.3826 786.934 37.907 786.934 37.907C786.934 37.907 760.643 40.1164 757.13 40.2711C753.617 40.4257 742.128 58.6089 742.128 58.6089C742.128 58.6089 721.029 67.2917 704.79 58.2774Z" fill="url(#paint17_linear)"/>
<path d="M1237.25 198.684C1237.25 198.684 1247.1 191.923 1268.82 194.486C1268.82 194.486 1272.53 178.004 1308.17 169.962C1343.81 161.92 1400.74 175.286 1400.74 175.286L1400.01 184.257L1434.35 183.837C1407.84 190.071 1380.88 194.245 1353.73 196.32C1305.12 200.429 1216.46 203.942 1216.46 203.942L1237.25 198.684Z" fill="url(#paint18_linear)"/>
<path d="M1268.8 194.485C1285.86 194.7 1302.92 193.658 1319.84 191.37C1319.84 191.37 1328.28 173.032 1334.57 172.082C1340.87 171.132 1356.2 175.661 1363.29 174.292C1370.39 172.922 1400.85 175.175 1400.85 175.175C1400.85 175.175 1360.36 162.405 1316.7 168.37C1273.04 174.336 1268.8 194.485 1268.8 194.485Z" fill="url(#paint19_linear)"/>
<path d="M1225.69 201.6C1225.69 201.6 1240.72 200.694 1252.21 199.877L1277.99 197.115C1271.44 195.133 1264.64 194.056 1257.8 193.912C1257.8 193.912 1240.28 194.155 1237.31 198.684L1225.69 201.6Z" fill="url(#paint20_linear)"/>
<path d="M1013.7 34.0633L1043.22 24.7397C1043.22 24.7397 1052.68 14.1568 1061.21 9.91485C1069.73 5.67285 1086.3 4.21467 1092.95 4.94376C1099.6 5.67285 1111.42 14.1568 1111.42 14.1568C1111.42 14.1568 1125.14 8.03689 1130.73 7.52873C1136.32 7.02058 1152.59 15.0406 1152.59 15.0406L1181.31 14.3336C1181.31 14.3336 1106.9 24.2316 1013.7 34.0633Z" fill="url(#paint21_linear)"/>
<path d="M1043.22 24.7391C1043.22 24.7391 1062.64 23.6786 1068.1 22.2204C1068.1 22.2204 1069.56 14.2225 1071.92 11.4829C1074.29 8.74324 1085.55 4.85474 1085.55 4.85474H1092.95C1092.95 4.85474 1073.07 3.75006 1062.13 9.40605C1054.96 13.3414 1048.56 18.5351 1043.22 24.7391Z" fill="url(#paint22_linear)"/>
<path d="M1111.42 14.1562L1105.06 19.2377C1105.06 19.2377 1122.74 18.9947 1126.91 16.697C1131.09 14.3992 1130.73 7.48389 1130.73 7.48389C1123.89 8.29072 1117.31 10.5668 1111.42 14.1562Z" fill="url(#paint23_linear)"/>
<path d="M392 48.4999C327.083 43.3064 171.5 112 82.5 125.5C50.589 130.34 22.6418 129.135 3.8147e-06 125.34L0 88.5001V0H1440V115.58V151C1323.89 231.054 1184.07 262.001 1031.5 261.08C866 260.08 668.5 150.5 598 115C527.5 79.5 477.5 55.3401 392 48.4999Z" fill="url(#paint24_linear)"/>
</g>
<path d="M1212.19 155.714L1154.07 251.769C1152.77 251.769 1006.25 251.769 1006.25 251.769L955.038 160.272C955.038 160.272 1076.06 190.437 1212.19 155.714Z" fill="#64748B"/>
<path d="M1086.82 142.221L1135.4 190.798L1086.82 239.376L1038.25 190.798L1086.82 142.221Z" fill="#475569"/>
<path d="M1085.54 192.978C1068.46 192.978 1054.61 179.131 1054.61 162.049C1054.61 144.967 1068.46 131.12 1085.54 131.12C1102.62 131.12 1116.47 144.967 1116.47 162.049C1116.47 179.131 1102.62 192.978 1085.54 192.978Z" fill="#06B6D4"/>
<path d="M1037.41 179.964C1037.25 180.165 1033.71 184.522 1029.2 184.522C1028.88 184.519 1028.56 184.496 1028.25 184.455C1025.02 184.063 1022.28 181.311 1020.07 176.419C1019.47 176.171 1018.98 175.729 1018.66 175.163C1018.35 174.598 1018.23 173.943 1018.34 173.304C1018.97 170.61 1021.94 170.295 1022.79 171.25C1023.11 171.74 1023.23 172.328 1023.15 172.903C1023.15 172.903 1023.97 172.903 1023.62 174.145C1023.42 174.871 1022.49 175.454 1021.81 175.951C1023.72 180.079 1025.97 182.353 1028.5 182.697C1032.43 183.251 1036.01 178.923 1036.01 178.875L1037.41 179.964Z" fill="#F1F5F9"/>
<path d="M1122.69 209.193C1121.41 209.299 1120.13 209.258 1118.87 209.068C1117.27 213.253 1115.54 215.298 1113.57 215.298H1113.45C1109.84 215.136 1107.66 207.912 1107.27 206.469L1108.98 205.992C1109.83 209.078 1111.84 213.444 1113.52 213.521C1114.05 213.521 1115.44 213.043 1117.27 208.266C1117.26 208.25 1117.25 208.23 1117.25 208.208C1117.25 208.187 1117.26 208.167 1117.27 208.151L1123.73 206.966C1124.37 206.861 1124.28 208.963 1122.69 209.193Z" fill="#F1F5F9"/>
<path d="M1067.9 208.419V210.196C1066.84 210.157 1065.79 210.351 1064.82 210.764C1063.84 211.176 1062.97 211.798 1062.26 212.585C1059.4 216.005 1060.51 221.939 1060.51 221.939L1054.03 220.917C1053.41 220.821 1054.39 218.872 1056.06 219.197C1056.92 219.4 1057.75 219.701 1058.55 220.095C1058.45 218.05 1058.62 214.19 1060.91 211.448C1061.77 210.456 1062.85 209.669 1064.06 209.145C1065.27 208.621 1066.58 208.373 1067.9 208.419Z" fill="#F1F5F9"/>
<path d="M1087.02 231.78C1071.23 231.78 1058.42 229.654 1058.42 227.031C1058.42 224.409 1071.23 222.283 1087.02 222.283C1102.81 222.283 1115.62 224.409 1115.62 227.031C1115.62 229.654 1102.81 231.78 1087.02 231.78Z" fill="#1E293B"/>
<path d="M1094.74 160.233C1094.75 159.195 1095.17 158.202 1095.91 157.472C1096.65 156.743 1097.64 156.335 1098.68 156.34C1099.72 156.344 1100.72 156.76 1101.45 157.496C1102.18 158.232 1102.59 159.228 1102.59 160.267C1102.59 161.305 1102.18 162.302 1101.45 163.038C1100.72 163.774 1099.72 164.189 1098.68 164.194C1097.64 164.198 1096.65 163.791 1095.91 163.061C1095.17 162.332 1094.75 161.339 1094.74 160.3V160.233Z" fill="#0F172A"/>
<path d="M1069.78 160.883C1070.59 160.727 1071.42 160.814 1072.17 161.132C1072.93 161.451 1073.57 161.986 1074.02 162.671C1074.47 163.356 1074.7 164.159 1074.7 164.978C1074.69 165.797 1074.44 166.595 1073.97 167.27C1073.51 167.946 1072.86 168.468 1072.09 168.771C1071.33 169.073 1070.5 169.143 1069.7 168.97C1068.9 168.798 1068.17 168.391 1067.6 167.801C1067.03 167.212 1066.65 166.467 1066.51 165.661C1066.36 164.599 1066.62 163.522 1067.22 162.639C1067.83 161.756 1068.74 161.13 1069.78 160.883Z" fill="#0F172A"/>
<path d="M1098.28 162.183C1097.9 162.256 1097.51 162.254 1097.12 162.175C1096.74 162.096 1096.38 161.943 1096.06 161.723C1095.73 161.504 1095.46 161.224 1095.24 160.898C1095.03 160.571 1094.88 160.206 1094.81 159.823C1094.7 159.246 1094.76 158.649 1094.99 158.107C1095.22 157.566 1095.6 157.105 1096.09 156.782C1096.58 156.459 1097.16 156.289 1097.75 156.293C1098.33 156.297 1098.91 156.476 1099.39 156.806C1099.88 157.136 1100.26 157.602 1100.48 158.147C1100.7 158.691 1100.75 159.289 1100.64 159.865C1100.52 160.44 1100.23 160.968 1099.81 161.38C1099.39 161.793 1098.86 162.072 1098.28 162.183ZM1097.52 157.511C1097.34 157.354 1097.1 157.272 1096.86 157.282C1096.62 157.291 1096.39 157.391 1096.22 157.561C1096.05 157.731 1095.95 157.959 1095.94 158.199C1095.93 158.44 1096.02 158.675 1096.17 158.858C1096.25 158.954 1096.35 159.033 1096.46 159.091C1096.58 159.149 1096.7 159.184 1096.82 159.194C1096.95 159.205 1097.07 159.191 1097.19 159.153C1097.31 159.115 1097.42 159.054 1097.52 158.973C1097.71 158.775 1097.81 158.514 1097.81 158.242C1097.81 157.969 1097.71 157.708 1097.52 157.511ZM1099.18 161.256C1099.22 161.217 1099.24 161.171 1099.26 161.121C1099.28 161.071 1099.29 161.018 1099.28 160.965C1099.28 160.912 1099.27 160.86 1099.24 160.813C1099.22 160.765 1099.19 160.723 1099.15 160.688C1099.11 160.652 1099.06 160.625 1099.01 160.608C1098.96 160.591 1098.91 160.583 1098.86 160.587C1098.8 160.59 1098.75 160.603 1098.71 160.626C1098.66 160.649 1098.62 160.682 1098.58 160.721C1098.48 160.786 1098.41 160.887 1098.38 161.003C1098.36 161.118 1098.38 161.24 1098.44 161.342C1098.52 161.425 1098.63 161.471 1098.75 161.471C1098.87 161.471 1098.98 161.425 1099.07 161.342C1099.11 161.321 1099.15 161.292 1099.18 161.256Z" fill="#F1F5F9"/>
<path d="M1069.98 167.591C1069.6 167.664 1069.21 167.661 1068.82 167.583C1068.44 167.504 1068.08 167.35 1067.76 167.131C1067.43 166.912 1067.16 166.631 1066.94 166.305C1066.73 165.979 1066.58 165.614 1066.51 165.231C1066.39 164.653 1066.46 164.056 1066.69 163.515C1066.92 162.974 1067.3 162.513 1067.79 162.19C1068.28 161.867 1068.86 161.697 1069.45 161.701C1070.03 161.705 1070.61 161.883 1071.09 162.213C1071.58 162.543 1071.96 163.01 1072.18 163.555C1072.4 164.099 1072.45 164.697 1072.33 165.273C1072.22 165.848 1071.93 166.376 1071.51 166.788C1071.09 167.201 1070.56 167.48 1069.98 167.591ZM1069.53 164.275C1069.63 164.039 1069.62 163.776 1069.52 163.543C1069.42 163.31 1069.23 163.127 1069 163.033C1068.76 162.939 1068.5 162.943 1068.27 163.043C1068.03 163.144 1067.85 163.332 1067.76 163.568C1067.6 163.675 1067.48 163.824 1067.41 163.998C1067.32 164.234 1067.32 164.497 1067.42 164.73C1067.52 164.963 1067.71 165.146 1067.95 165.24C1068.18 165.334 1068.45 165.33 1068.68 165.23C1068.91 165.13 1069.1 164.941 1069.19 164.705C1069.36 164.606 1069.5 164.456 1069.58 164.275H1069.53ZM1070.96 166.645C1070.99 166.603 1071.01 166.556 1071.03 166.505C1071.04 166.454 1071.05 166.401 1071.04 166.349C1071.03 166.297 1071.02 166.246 1070.99 166.2C1070.97 166.154 1070.93 166.114 1070.89 166.081C1070.85 166.048 1070.8 166.024 1070.75 166.01C1070.7 165.996 1070.65 165.991 1070.6 165.998C1070.54 166.004 1070.49 166.02 1070.45 166.046C1070.4 166.072 1070.36 166.106 1070.33 166.148C1070.28 166.178 1070.24 166.218 1070.2 166.265C1070.17 166.311 1070.15 166.364 1070.13 166.421C1070.12 166.477 1070.12 166.535 1070.13 166.591C1070.14 166.648 1070.16 166.702 1070.19 166.75C1070.28 166.833 1070.39 166.879 1070.51 166.879C1070.63 166.879 1070.74 166.833 1070.82 166.75C1070.89 166.731 1070.96 166.695 1071.01 166.645H1070.96Z" fill="#F1F5F9"/>
<path d="M1083.76 164.505C1080.71 165.049 1078.52 164.333 1077.85 165.46C1076.65 167.371 1079.7 171.193 1084.87 170.237C1090.04 169.282 1091.83 164.791 1089.65 163.176C1088.57 162.364 1086.81 163.969 1083.76 164.505Z" fill="#F1F5F9"/>
<path d="M1084.08 164.858C1081.74 165.374 1079.24 165.04 1079.24 165.508C1079.24 166.272 1080.54 166.569 1082.92 166.272C1086.12 165.871 1088.65 164.275 1088.48 163.817C1088.31 163.358 1086.42 164.342 1084.08 164.858Z" fill="#0F172A"/>
<path d="M1088.91 167.629C1087.84 168.726 1086.45 169.455 1084.94 169.712C1083.47 170.016 1081.95 169.883 1080.56 169.33C1081.53 168.078 1085.7 165.584 1088.91 167.629Z" fill="#EF4444"/>
<path d="M1136.54 174.671C1137.72 170.719 1138.31 166.614 1138.29 162.489V128.617C1138.27 127.957 1138.12 127.307 1137.85 126.705C1137.58 126.103 1137.19 125.56 1136.71 125.107C1136.23 124.655 1135.66 124.301 1135.05 124.067C1134.43 123.833 1133.77 123.724 1133.11 123.744C1131.79 123.829 1130.55 124.416 1129.65 125.384C1128.75 126.353 1128.26 127.629 1128.27 128.951V159.135C1128.27 175.55 1119.15 190.838 1104.38 198.014C1098.17 201.024 1091.32 202.499 1084.42 202.316C1077.52 202.133 1070.77 200.296 1064.72 196.961C1058.68 193.625 1053.53 188.888 1049.69 183.148C1045.86 177.407 1043.46 170.83 1042.69 163.97C1042.51 157.492 1042.61 151.931 1042.69 146.551C1042.78 141.009 1042.88 135.277 1042.69 128.493C1042.66 127.183 1042.11 125.939 1041.18 125.025C1040.24 124.111 1038.98 123.6 1037.67 123.601H1037.5C1036.17 123.638 1034.9 124.203 1033.99 125.17C1033.07 126.137 1032.58 127.429 1032.61 128.76C1032.81 135.343 1032.76 140.857 1032.66 146.398C1032.57 151.94 1032.47 157.673 1032.66 164.457V164.849C1034.06 177.711 1040.08 189.628 1049.61 198.379C1059.14 207.129 1071.52 212.117 1084.46 212.413H1085.58C1096.99 212.404 1108.1 208.733 1117.28 201.94C1126.45 195.146 1133.2 185.588 1136.54 174.671Z" fill="#0F172A"/>
<path d="M1085.46 125.664C1086.12 125.663 1086.77 125.532 1087.38 125.279C1087.99 125.026 1088.54 124.655 1089.01 124.188C1089.47 123.722 1089.84 123.168 1090.09 122.559C1090.34 121.95 1090.47 121.297 1090.47 120.638V61.0258C1090.47 59.6929 1089.94 58.4146 1089 57.472C1088.05 56.5295 1086.78 56 1085.44 56C1084.11 56 1082.83 56.5295 1081.89 57.472C1080.95 58.4146 1080.42 59.6929 1080.42 61.0258V120.638C1080.42 121.968 1080.94 123.244 1081.88 124.186C1082.82 125.127 1084.09 125.659 1085.42 125.664H1085.46Z" fill="#0F172A"/>
<path d="M1065.28 122.96V73.4663C1065.28 72.1333 1064.75 70.855 1063.81 69.9125C1062.87 68.9699 1061.59 68.4404 1060.26 68.4404C1058.92 68.4404 1057.64 68.9699 1056.7 69.9125C1055.76 70.855 1055.23 72.1333 1055.23 73.4663V122.96C1055.23 124.293 1055.76 125.572 1056.7 126.514C1057.64 127.457 1058.92 127.986 1060.26 127.986C1061.59 127.986 1062.87 127.457 1063.81 126.514C1064.75 125.572 1065.28 124.293 1065.28 122.96Z" fill="#0F172A"/>
<path d="M1116.47 121.737V74.4311C1116.47 73.0982 1115.94 71.8198 1114.99 70.8773C1114.05 69.9348 1112.77 69.4053 1111.44 69.4053C1110.11 69.4053 1108.83 69.9348 1107.89 70.8773C1106.94 71.8198 1106.42 73.0982 1106.42 74.4311V121.737C1106.42 123.07 1106.94 124.348 1107.89 125.291C1108.83 126.233 1110.11 126.763 1111.44 126.763C1112.77 126.763 1114.05 126.233 1114.99 125.291C1115.94 124.348 1116.47 123.07 1116.47 121.737Z" fill="#0F172A"/>
<path d="M1119.73 163.014C1119.73 169.799 1117.71 176.43 1113.94 182.071C1110.18 187.712 1104.82 192.109 1098.55 194.705C1092.28 197.301 1085.39 197.981 1078.73 196.657C1072.08 195.333 1065.97 192.067 1061.17 187.269C1056.37 182.472 1053.1 176.36 1051.78 169.706C1050.46 163.052 1051.14 156.155 1053.73 149.888C1056.33 143.62 1060.73 138.262 1066.37 134.493C1072.01 130.724 1078.64 128.712 1085.42 128.712C1094.52 128.712 1103.25 132.326 1109.68 138.759C1116.11 145.192 1119.73 153.917 1119.73 163.014ZM1085.42 189.988C1090.76 189.988 1095.98 188.404 1100.42 185.437C1104.86 182.47 1108.32 178.254 1110.36 173.32C1112.41 168.387 1112.94 162.959 1111.9 157.722C1110.85 152.486 1108.28 147.676 1104.5 143.902C1100.73 140.128 1095.91 137.558 1090.68 136.519C1085.44 135.48 1080.01 136.017 1075.08 138.063C1070.15 140.109 1065.93 143.571 1062.97 148.013C1060.01 152.454 1058.43 157.675 1058.43 163.014C1058.45 170.168 1061.3 177.023 1066.35 182.081C1071.41 187.138 1078.27 189.984 1085.42 189.997V189.988Z" fill="#0F172A"/>
<path d="M955 160.272L1086.82 200.45L1212.19 155.714L1154.03 251.769H1006.21L955 160.272Z" fill="#0F172A"/>
<path d="M955 160.272L1086.82 200.45L1212.19 155.714" stroke="#475569" stroke-width="0.955483" stroke-miterlimit="10"/>
<path d="M1154.03 251.769L1086.82 200.45L1006.21 251.769" stroke="#64748B" stroke-width="0.955483" stroke-miterlimit="10"/>
<path d="M955.506 238.144C953.084 240.657 947.5 252 947 254.5C949.5 255.5 959 256 961 256C961.5 254 962.572 250.5 963.733 248.826C965.614 246.113 968.091 243.868 970.975 242.261C973.858 240.654 977.072 239.73 980.368 239.558C982.795 239.386 993.745 239.672 994.92 243.141C997.363 240.355 1000.18 237.921 1003.29 235.908C996.44 231.658 988.553 229.374 980.492 229.305C976.207 229.286 972.101 229.258 968 230.5C965.038 231.398 959.5 234 955.506 238.144Z" fill="#0891B2"/>
<path d="M964.201 249.504C964.163 249.556 964.115 249.598 964.058 249.628C964.583 250.835 963.147 255.232 963.5 256.5C967.5 257 971 257.5 975 257.5C976.911 251.872 985.26 245 990.171 250.001C991.351 247.803 992.753 245.731 994.356 243.819C993.602 242.778 990.84 241.602 990.038 241.306C988.486 240.823 986.882 240.525 985.26 240.418C982.345 240.089 979.395 240.26 976.537 240.924C971.499 242.147 967.1 245.207 964.201 249.504Z" fill="#06B6D4"/>
<path d="M989.933 250.441C985.155 247.832 978.777 251.968 977 257.5C980.315 258.485 983 259 986.875 259.642C986.86 259.573 986.86 259.501 986.875 259.432C987.45 256.302 988.48 253.272 989.933 250.441Z" fill="#22D3EE"/>
<path d="M987.63 259.623C987.614 259.706 987.568 259.781 987.501 259.834C987.435 259.887 987.351 259.914 987.266 259.91C987.582 260.139 987.897 260.359 988.222 260.598C990.747 259.331 993.386 258.307 996.105 257.54C1000.77 256.251 1005.62 255.808 1010.44 256.231C1010.42 256.181 1010.42 256.128 1010.44 256.078C1016.17 243.103 1033.1 238.88 1043.97 248.176C1047.55 245.774 1051.49 243.976 1055.65 242.854C1051.83 236.472 1043.79 233.299 1036.9 231.627C1029.63 229.805 1022.02 229.848 1014.77 231.752C1011.19 232.728 1007.77 234.229 1004.63 236.204L1004.9 236.405C1005.11 236.558 1004.9 236.902 1004.7 236.758L1004.23 236.462C998.73 240.049 994.243 244.983 991.193 250.794C991.346 250.928 991.499 251.043 991.652 251.186C991.805 251.329 991.576 251.54 991.423 251.415C991.27 251.291 991.146 251.234 991.012 251.138C989.586 253.838 988.453 256.683 987.63 259.623Z" fill="#0891B2"/>
<path d="M1011.26 256.317C1015.79 256.801 1020.22 258.054 1024.33 260.024L1024.4 259.881C1024.32 259.856 1024.25 259.803 1024.21 259.732C1024.18 259.661 1024.17 259.577 1024.19 259.499C1024.56 258.313 1025.22 257.237 1026.1 256.365C1026.99 255.494 1028.08 254.853 1029.27 254.501C1030.46 254.148 1031.72 254.093 1032.94 254.341C1034.16 254.59 1035.3 255.134 1036.25 255.925C1038.22 253.017 1040.71 250.494 1043.59 248.482C1032.11 240.532 1017.66 243.666 1011.26 256.317Z" fill="#06B6D4"/>
<path d="M1024.4 259.881L1024.33 260.025C1027.28 261.431 1030.04 263.213 1032.53 265.327C1033.06 262.136 1034.23 259.084 1035.97 256.355C1031.81 253.489 1026.89 254.922 1024.77 259.747C1024.75 259.781 1024.73 259.811 1024.7 259.836C1024.68 259.861 1024.65 259.88 1024.61 259.893C1024.58 259.905 1024.54 259.91 1024.5 259.909C1024.47 259.907 1024.43 259.897 1024.4 259.881Z" fill="#22D3EE"/>
<path d="M1033.35 265.671C1033.33 265.775 1033.27 265.867 1033.19 265.929C1034.35 266.951 1035.44 268.046 1036.46 269.207C1040.47 267.869 1044.67 267.223 1048.89 267.296C1050.41 258.333 1058.37 252.132 1067.29 251.454C1075.89 250.804 1089.55 255.037 1091.92 264.506C1096.01 263.536 1100.23 263.239 1104.42 263.627C1095.71 250.45 1082.32 241.803 1066.11 242.186C1062.89 242.265 1059.68 242.724 1056.56 243.552C1056.55 243.595 1056.53 243.634 1056.5 243.666C1056.47 243.698 1056.43 243.721 1056.39 243.732C1056.35 243.743 1056.3 243.741 1056.26 243.728C1056.22 243.715 1056.18 243.69 1056.16 243.657C1048.44 245.769 1041.34 250.116 1037.05 256.642C1037.08 256.673 1037.1 256.715 1037.1 256.759C1037.11 256.804 1037.09 256.849 1037.07 256.884C1037.04 256.92 1037 256.944 1036.96 256.953C1036.91 256.961 1036.87 256.952 1036.83 256.929C1035.13 259.599 1033.95 262.565 1033.35 265.671Z" fill="#0891B2"/>
<path d="M1066.57 252.476C1058.34 253.432 1051.28 259.165 1049.78 267.363C1054.48 267.571 1059.11 268.589 1063.46 270.372L1063.51 270.219C1063.47 270.207 1063.43 270.185 1063.39 270.155C1063.36 270.126 1063.33 270.088 1063.31 270.046C1063.29 270.005 1063.28 269.959 1063.28 269.913C1063.28 269.867 1063.29 269.822 1063.31 269.78C1063.93 267.92 1065.09 266.285 1066.64 265.082C1068.19 263.88 1070.06 263.164 1072.02 263.025C1075.76 262.853 1080.07 265.232 1081.11 268.968C1084.32 267.016 1087.79 265.554 1091.42 264.63C1088.46 255.524 1075.15 251.482 1066.57 252.476Z" fill="#06B6D4"/>
<path d="M1063.51 270.219L1063.46 270.372C1066.97 271.794 1070.28 273.687 1073.28 276L1073.39 275.857C1073.36 275.82 1073.33 275.777 1073.31 275.73C1073.29 275.682 1073.28 275.631 1073.28 275.58C1073.28 275.528 1073.29 275.477 1073.31 275.43C1073.33 275.382 1073.36 275.339 1073.39 275.302C1075.61 272.914 1078.14 270.832 1080.91 269.111C1080.91 269.111 1080.91 269.111 1080.87 269.111C1078.7 266.244 1076.41 263.856 1072.5 263.846C1068.58 263.837 1065.44 266.483 1064.05 270.019C1064 270.115 1063.92 270.19 1063.82 270.227C1063.72 270.265 1063.61 270.262 1063.51 270.219Z" fill="#22D3EE"/>
<path d="M1094.74 250.747C1094.71 250.793 1094.66 250.833 1094.61 250.862C1094.56 250.892 1094.51 250.911 1094.45 250.919C1098.8 254.375 1102.38 258.7 1104.96 263.617C1104.97 263.651 1104.97 263.688 1104.96 263.722C1106.36 263.866 1107.74 264.086 1109.11 264.381L1109.17 264.123C1109.11 264.127 1109.04 264.113 1108.99 264.084C1108.93 264.055 1108.89 264.012 1108.86 263.959C1108.82 263.906 1108.81 263.846 1108.81 263.784C1108.8 263.722 1108.82 263.661 1108.85 263.608C1110.81 260.209 1113.61 257.363 1116.97 255.338C1120.33 253.313 1124.15 252.173 1128.08 252.027C1132.31 251.923 1136.49 253.016 1140.13 255.18C1142.57 256.566 1146.33 258.467 1146.37 261.601C1149.85 260.902 1153.41 260.725 1156.93 261.075C1154.5 248.463 1140.15 241.631 1128.49 240.294C1117.36 239.013 1101.91 241.173 1094.74 250.747Z" fill="#0891B2"/>
<path d="M1109.16 264.124L1109.1 264.382C1113.17 265.258 1117.08 266.791 1120.66 268.92C1121.07 267.455 1121.88 266.134 1123 265.112C1124.13 264.091 1125.52 263.409 1127.02 263.148C1128.52 262.887 1130.06 263.056 1131.46 263.637C1132.87 264.217 1134.08 265.184 1134.96 266.426C1136.64 265.265 1138.44 264.276 1140.33 263.474C1142.15 262.707 1144.05 262.112 1145.99 261.697C1145.56 257.875 1138.62 254.836 1135.59 253.804C1132.38 252.756 1128.96 252.494 1125.63 253.04C1122.3 253.554 1119.13 254.8 1116.34 256.689C1113.55 258.577 1111.22 261.061 1109.5 263.961C1109.47 264.02 1109.42 264.067 1109.36 264.096C1109.29 264.125 1109.22 264.135 1109.16 264.124Z" fill="#06B6D4"/>
<path d="M1121.23 269.254C1123.38 270.579 1125.39 272.119 1127.23 273.85C1129.28 271.058 1131.77 268.618 1134.6 266.627C1130.55 261.725 1122.97 263.034 1121.23 269.254Z" fill="#22D3EE"/>
<path d="M1151 248.922L1150.9 249.017C1154.21 251.858 1156.48 255.71 1157.37 259.976C1158.95 253.393 1166.85 249.973 1172.94 248.893C1180.06 247.604 1187.4 249.132 1193.41 253.154C1196.46 251.099 1199.76 249.445 1203.23 248.234C1203.92 247.995 1204.63 247.775 1205.34 247.574C1197.6 241.612 1188.15 238.314 1178.38 238.172C1173.75 238.192 1169.15 238.946 1164.75 240.408C1163.92 240.685 1150.1 246.485 1151.58 248.377C1151.9 248.75 1151.36 249.323 1151 248.922Z" fill="#0891B2"/>
<path d="M1157.95 260.913C1157.94 260.974 1157.91 261.03 1157.87 261.076C1157.83 261.121 1157.78 261.154 1157.72 261.171C1162.43 261.758 1167.01 263.137 1171.26 265.251C1171.61 263.867 1172.29 262.593 1173.26 261.545C1174.22 260.497 1175.44 259.71 1176.79 259.256C1178.14 258.801 1179.58 258.695 1180.98 258.946C1182.39 259.197 1183.7 259.798 1184.81 260.693C1187.22 257.988 1189.94 255.582 1192.92 253.527C1187.8 250.389 1181.83 248.933 1175.84 249.361C1168.93 249.867 1159.53 253.25 1157.95 260.913Z" fill="#06B6D4"/>
<path d="M1171.97 265.413C1171.96 265.455 1171.94 265.494 1171.91 265.528C1174.27 266.73 1176.51 268.144 1178.6 269.751C1180.16 266.595 1182.12 263.65 1184.42 260.989C1183.37 260.207 1182.15 259.696 1180.86 259.501C1179.56 259.305 1178.24 259.432 1177.01 259.87C1175.78 260.308 1174.68 261.042 1173.8 262.009C1172.92 262.976 1172.29 264.146 1171.97 265.413Z" fill="#22D3EE"/>
<defs>
<linearGradient id="paint0_linear" x1="720.808" y1="427" x2="720.808" y2="-85" gradientUnits="userSpaceOnUse">
<stop offset="0.01" stop-color="#020617"/>
<stop offset="0.4" stop-color="#0F172A"/>
<stop offset="0.51" stop-color="#0F172A"/>
<stop offset="0.61" stop-color="#1E293B"/>
<stop offset="0.72" stop-color="#1E293B"/>
<stop offset="0.83" stop-color="#155E75"/>
<stop offset="0.93" stop-color="#0E7490"/>
<stop offset="1" stop-color="#0891B2"/>
</linearGradient>
<linearGradient id="paint1_linear" x1="70796.5" y1="18104.1" x2="70796.5" y2="3727.05" gradientUnits="userSpaceOnUse">
<stop stop-color="#0F172A"/>
<stop offset="0.48" stop-color="#1E293B"/>
<stop offset="1" stop-color="#334155"/>
</linearGradient>
<linearGradient id="paint2_linear" x1="71.2523" y1="34.5712" x2="71.2523" y2="-39.3765" gradientUnits="userSpaceOnUse">
<stop stop-color="#1E293B"/>
<stop offset="0.42" stop-color="#334155"/>
<stop offset="1" stop-color="#475569"/>
</linearGradient>
<linearGradient id="paint3_linear" x1="8322.51" y1="2551.79" x2="8322.51" y2="1950.38" gradientUnits="userSpaceOnUse">
<stop stop-color="#1E293B"/>
<stop offset="0.42" stop-color="#334155"/>
<stop offset="1" stop-color="#475569"/>
</linearGradient>
<linearGradient id="paint4_linear" x1="13645.8" y1="3002.83" x2="13645.8" y2="2449.87" gradientUnits="userSpaceOnUse">
<stop stop-color="#1E293B"/>
<stop offset="0.42" stop-color="#334155"/>
<stop offset="1" stop-color="#475569"/>
</linearGradient>
<linearGradient id="paint5_linear" x1="4366.6" y1="2603.04" x2="4366.6" y2="2259.15" gradientUnits="userSpaceOnUse">
<stop stop-color="#1E293B"/>
<stop offset="0.42" stop-color="#334155"/>
<stop offset="1" stop-color="#475569"/>
</linearGradient>
<linearGradient id="paint6_linear" x1="10070" y1="1518.59" x2="10070" y2="1420.8" gradientUnits="userSpaceOnUse">
<stop stop-color="#1E293B"/>
<stop offset="0.42" stop-color="#334155"/>
<stop offset="1" stop-color="#475569"/>
</linearGradient>
<linearGradient id="paint7_linear" x1="283505" y1="17528.6" x2="283505" y2="3059.3" gradientUnits="userSpaceOnUse">
<stop stop-color="#0F172A"/>
<stop offset="0.48" stop-color="#1E293B"/>
<stop offset="1" stop-color="#334155"/>
</linearGradient>
<linearGradient id="paint8_linear" x1="1330.33" y1="13.6479" x2="1330.33" y2="-46.2703" gradientUnits="userSpaceOnUse">
<stop stop-color="#0F172A"/>
<stop offset="0.31" stop-color="#334155"/>
<stop offset="0.66" stop-color="#475569"/>
<stop offset="1" stop-color="#475569"/>
</linearGradient>
<linearGradient id="paint9_linear" x1="85376.9" y1="1326.17" x2="85376.9" y2="1226.52" gradientUnits="userSpaceOnUse">
<stop stop-color="#1E293B"/>
<stop offset="0.42" stop-color="#334155"/>
<stop offset="1" stop-color="#475569"/>
</linearGradient>
<linearGradient id="paint10_linear" x1="62753.3" y1="1453.35" x2="67533.6" y2="1453.35" gradientUnits="userSpaceOnUse">
<stop stop-color="#1E293B"/>
<stop offset="0.42" stop-color="#334155"/>
<stop offset="1" stop-color="#475569"/>
</linearGradient>
<linearGradient id="paint11_linear" x1="39983.9" y1="2890.96" x2="39983.9" y2="2097.06" gradientUnits="userSpaceOnUse">
<stop stop-color="#1E293B"/>
<stop offset="0.42" stop-color="#334155"/>
<stop offset="1" stop-color="#475569"/>
</linearGradient>
<linearGradient id="paint12_linear" x1="176805" y1="28119.4" x2="177560" y2="20572.6" gradientUnits="userSpaceOnUse">
<stop stop-color="#0F172A"/>
<stop offset="0.48" stop-color="#1E293B"/>
<stop offset="1" stop-color="#334155"/>
</linearGradient>
<linearGradient id="paint13_linear" x1="38742.1" y1="4700.66" x2="38766.1" y2="4460.83" gradientUnits="userSpaceOnUse">
<stop stop-color="#1E293B"/>
<stop offset="0.42" stop-color="#334155"/>
<stop offset="1" stop-color="#475569"/>
</linearGradient>
<linearGradient id="paint14_linear" x1="30998.3" y1="6820.81" x2="31187.4" y2="4929.64" gradientUnits="userSpaceOnUse">
<stop stop-color="#1E293B"/>
<stop offset="0.42" stop-color="#334155"/>
<stop offset="1" stop-color="#475569"/>
</linearGradient>
<linearGradient id="paint15_linear" x1="15476.8" y1="2365.62" x2="15482.9" y2="2304.88" gradientUnits="userSpaceOnUse">
<stop stop-color="#1E293B"/>
<stop offset="0.42" stop-color="#334155"/>
<stop offset="1" stop-color="#475569"/>
</linearGradient>
<linearGradient id="paint16_linear" x1="16906" y1="4662.51" x2="16993.3" y2="3788.78" gradientUnits="userSpaceOnUse">
<stop stop-color="#1E293B"/>
<stop offset="0.42" stop-color="#334155"/>
<stop offset="1" stop-color="#475569"/>
</linearGradient>
<linearGradient id="paint17_linear" x1="28910.4" y1="4692.45" x2="28945.3" y2="4344.14" gradientUnits="userSpaceOnUse">
<stop stop-color="#1E293B"/>
<stop offset="0.42" stop-color="#334155"/>
<stop offset="1" stop-color="#475569"/>
</linearGradient>
<linearGradient id="paint18_linear" x1="131328" y1="16057.9" x2="131391" y2="15286.9" gradientUnits="userSpaceOnUse">
<stop stop-color="#0F172A"/>
<stop offset="0.31" stop-color="#334155"/>
<stop offset="0.66" stop-color="#475569"/>
<stop offset="1" stop-color="#475569"/>
</linearGradient>
<linearGradient id="paint19_linear" x1="1333.65" y1="199.755" x2="1336.39" y2="165.886" gradientUnits="userSpaceOnUse">
<stop stop-color="#475569"/>
<stop offset="1" stop-color="#475569"/>
</linearGradient>
<linearGradient id="paint20_linear" x1="30932.9" y1="1313.07" x2="30932.9" y2="1277.01" gradientUnits="userSpaceOnUse">
<stop stop-color="#475569"/>
<stop offset="1" stop-color="#475569"/>
</linearGradient>
<linearGradient id="paint21_linear" x1="84272.2" y1="1583.69" x2="84272.2" y2="1195.19" gradientUnits="userSpaceOnUse">
<stop stop-color="#0F172A"/>
<stop offset="0.48" stop-color="#1E293B"/>
<stop offset="1" stop-color="#334155"/>
</linearGradient>
<linearGradient id="paint22_linear" x1="25086.1" y1="996.753" x2="25086.1" y2="817.009" gradientUnits="userSpaceOnUse">
<stop stop-color="#1E293B"/>
<stop offset="0.42" stop-color="#334155"/>
<stop offset="1" stop-color="#475569"/>
</linearGradient>
<linearGradient id="paint23_linear" x1="14098.8" y1="562.031" x2="14098.8" y2="499.501" gradientUnits="userSpaceOnUse">
<stop stop-color="#1E293B"/>
<stop offset="0.42" stop-color="#334155"/>
<stop offset="1" stop-color="#475569"/>
</linearGradient>
<linearGradient id="paint24_linear" x1="720" y1="-8.30038e-06" x2="669.5" y2="301" gradientUnits="userSpaceOnUse">
<stop stop-color="#0F172A" stop-opacity="0"/>
<stop offset="1" stop-color="#0F172A"/>
</linearGradient>
</defs>
</svg>
